#VRML V2.0 utf8
# 3D model generated by easyeda2kicad.py (https://github.com/uPesy/easyeda2kicad.py)

Shape{
    appearance Appearance {
        material  Material 	{
            diffuseColor 0.43137254901960786 0.35294117647058826 0.37254901960784315
            specularColor 0.3803921568627451 0.30980392156862746 0.32941176470588235
            ambientIntensity 0.3786
            transparency 0.0
            shininess 0.5
        }
    }
    geometry IndexedFaceSet {
        ccw TRUE
        solid FALSE
        coord DEF co Coordinate {
            point [
                0.4138 0.1188 0.1187, 0.0005 0.1188 0.1187, 0.0005 0.1229 0.1187, 0.4138 0.0532 0.1187, 0.8267 -0.0044 0.1187, 0.4138 -0.0044 0.1187, 0.8267 -0.0783 0.1187, 0.9449 0.0532 0.1187, 0.9449 0.1181 0.1187, 1.1417 0.1188 0.1187, 0.8267 0.1181 0.1187, 0.8267 0.0532 0.1187, 1.1417 0.0532 0.1187, 1.1417 -0.0044 0.1187, 0.9449 -0.0044 0.1187, 1.1417 -0.0783 0.1187, 0.9449 -0.0783 0.1187, -0.0793 0.0532 0.1187, -0.0793 0.0724 0.1187, -0.0791 0.07 0.1187, -0.0698 0.0698 0.1187, -0.0711 0.0794 0.1187, -0.07 0.0833 0.1187, -0.0766 0.0609 0.1187, -0.066 0.0609 0.1187, 0.0005 0.0532 0.1187, -0.0128 0.0609 0.1187, -0.0041 0.0609 0.1187, -0.0002 0.0715 0.1187, 0.0005 0.0778 0.1187, -0.0089 0.0707 0.1187, -0.0077 0.0811 0.1187, -0.0617 0.1009 0.1187, -0.0585 0.1037 0.1187, -0.0098 0.0899 0.1187, -0.0543 0.1058 0.1187, -0.0482 0.1075 0.1187, -0.0386 0.1089 0.1187, -0.029 0.1071 0.1187, -0.0118 0.0955 0.1187, -0.065 0.0962 0.1187, -0.0207 0.1043 0.1187, -0.0165 0.1017 0.1187, -0.0141 0.0992 0.1187, -1.0433 0.0532 0.1187, -1.0433 0.1188 0.1187, -0.9449 0.1181 0.1187, -0.0424 0.1185 0.1187, -0.0605 0.113 0.1187, -0.0793 0.1188 0.1187, -0.0671 0.1091 0.1187, -0.0711 0.1051 0.1187, -0.0742 0.0998 0.1187, -0.077 0.0919 0.1187, -0.0793 0.0817 0.1187, -0.8268 0.1181 0.1187, -0.0412 0.1188 0.1187, -0.0793 0.1229 0.1187, -0.0379 0.1195 0.1187, 0.0005 0.0844 0.1187, -0.0007 0.0887 0.1187, -0.0061 0.1037 0.1187, -0.01 0.1094 0.1187, -0.0138 0.1128 0.1187, -0.0189 0.1154 0.1187, -0.0336 0.1188 0.1187, -0.0262 0.1176 0.1187, 0.0005 -1.0827 0.1187, -0.0793 -1.0827 0.1187, -0.0793 -1.0433 0.1187, -0.5906 -1.0827 0.1187, 1.1023 -1.1811 0.1187, 0.5905 -1.1811 0.1187, 0.5905 -1.0827 0.1187, 1.1417 -1.1417 0.1187, 1.1417 -1.0433 0.1187, 0.4138 -1.0433 0.1187, 0.4138 -1.0827 0.1187, 1.1364 -1.1614 0.1187, 1.1302 -1.1696 0.1187, 1.1404 -1.1519 0.1187, 1.122 -1.1758 0.1187, 1.1125 -1.1798 0.1187, 0.4138 0.4179 0.1187, 0.4138 1.0827 0.1187, 0.5905 1.0827 0.1187, 0.9449 0.9055 0.1187, 1.1023 1.1811 0.1187, 1.1125 1.1798 0.1187, 1.122 1.1758 0.1187, 1.1302 1.1696 0.1187, 1.1364 1.1614 0.1187, 1.1404 1.1519 0.1187, 1.1417 1.1417 0.1187, 0.9449 0.6693 0.1187, 1.1417 0.4179 0.1187, 0.8267 0.6693 0.1187, 0.0005 1.0827 0.1187, -0.9449 0.6693 0.1187, -1.0433 0.4179 0.1187, -0.9449 0.9055 0.1187, -1.0433 1.1811 0.1187, -0.8268 0.9055 0.1187, -0.8268 0.6693 0.1187, -0.0793 0.4179 0.1187, -0.5906 1.1811 0.1187, -0.5906 1.0827 0.1187, -0.0793 1.0827 0.1187, 0.0005 0.4179 0.1187, -1.1418 0.4179 0.1187, -1.1418 1.1417 0.1187, -1.1024 1.1811 0.1187, -1.1365 1.1614 0.1187, -1.1302 1.1696 0.1187, -1.1221 1.1758 0.1187, -1.1404 1.1519 0.1187, -1.1126 1.1798 0.1187, -1.1365 -1.1614 0.1187, -1.1024 -1.1811 0.1187, -1.1302 -1.1696 0.1187, -1.1126 -1.1798 0.1187, -1.1221 -1.1758 0.1187, -1.0433 -1.0433 0.1187, -1.0433 -1.1811 0.1187, -1.1418 -1.1417 0.1187, -1.1404 -1.1519 0.1187, -0.8268 0.0532 0.1187, -0.0793 -0.0044 0.1187, -0.8268 -0.0044 0.1187, -0.0793 -0.0783 0.1187, -0.8268 -0.0783 0.1187, -0.8268 -0.1181 0.1187, -0.0793 -0.4108 0.1187, -0.9449 -0.1181 0.1187, -1.0433 -0.4108 0.1187, -0.9449 -0.0783 0.1187, -0.9449 0.0532 0.1187, -0.9449 -0.0044 0.1187, -1.0433 -0.0044 0.1187, -1.0433 -0.0783 0.1187, 0.9449 -0.9055 0.1187, 0.8267 -0.9055 0.1187, 0.8267 -0.6693 0.1187, 0.4138 -0.4108 0.1187, 0.9449 -0.6693 0.1187, 1.1417 -0.4108 0.1187, 0.0005 -1.0433 0.1187, 0.0005 -0.4108 0.1187, -0.5906 -1.1811 0.1187, -0.8268 -0.9055 0.1187, -0.8268 -0.6693 0.1187, -0.9449 -0.6693 0.1187, -0.9449 -0.9055 0.1187, 0.0005 -0.0044 0.1187, 0.4138 -0.0783 0.1187, 0.0005 -0.0783 0.1187, -0.0 -0.0927 0.1187, -0.0 -0.0812 0.1187, -0.0 -0.1407 0.1187, -0.0221 -0.1328 0.1187, -0.0221 -0.1002 0.1187, -0.0788 -0.111 0.1187, -0.0788 -0.1215 0.1187, -0.0 -0.1523 0.1187, -0.0 -0.0121 0.1187, -0.0788 -0.0121 0.1187, -0.0788 -0.0343 0.1187, -0.0777 -0.0397 0.1187, -0.0727 -0.0566 0.1187, -0.0689 -0.063 0.1187, -0.0651 -0.0669 0.1187, -0.06 -0.07 0.1187, -0.018 -0.068 0.1187, -0.0115 -0.0638 0.1187, -0.0077 -0.0596 0.1187, -0.0047 -0.0542 0.1187, -0.0524 -0.0727 0.1187, -0.0404 -0.0754 0.1187, -0.0357 -0.0742 0.1187, -0.0022 -0.0462 0.1187, -0.0 -0.0335 0.1187, 0.0009 0.0826 0.1187, -0.0701 0.0052 0.1187, -0.0087 0.0033 0.1187, -0.0 0.0033 0.1187, -0.0 0.0456 0.1187, 0.9449 -0.1181 0.1187, 0.8267 -0.1181 0.1187, -0.0788 0.0456 0.1187, -0.0788 0.0052 0.1187, -0.0797 0.0795 0.1187, -0.0356 0.0071 0.1187, -0.0356 0.035 0.1187, -0.0087 0.035 0.1187, -0.0442 0.0071 0.1187, -0.0442 0.035 0.1187, -0.0701 0.035 0.1187, 0.5905 1.1811 0.1187, 0.8267 0.9055 0.1187, 1.1417 0.1229 0.1187, 0.4138 0.1229 0.1187, -0.0 0.1262 0.1187, -0.0 0.1666 0.1187, -0.0087 0.1262 0.1187, -0.0788 0.1666 0.1187, -0.0788 0.156 0.1187, -0.0087 0.156 0.1187, -1.0433 0.1229 0.1187, -1.1418 -1.0433 0.1187, -1.1418 -0.4108 0.1187, -1.1418 -0.0783 0.1187, -1.1418 -0.0044 0.1187, -1.1418 0.0532 0.1187, -1.1418 0.1188 0.1187, -1.1418 0.1229 0.1187, -0.3937 1.1811 0.1974, -0.3937 1.1811 1.6895, 0.3937 1.1811 0.1974, 0.3937 1.1811 1.6895, 1.1023 1.1811 1.6895, 0.5905 1.1811 1.6895, -1.1024 1.1811 1.6895, -0.5906 1.1811 1.6895, 0.5905 -1.1417 1.6895, 0.5905 -1.1811 1.6895, 1.1023 -1.1811 1.6895, -0.4153 1.1417 1.6895, -0.5906 1.1417 1.6895, 0.4153 -1.1417 1.6895, -1.1024 -1.1811 1.6895, -0.5906 -1.1811 1.6895, -0.5906 -1.1417 1.6895, 0.5905 1.1417 1.6895, 1.1417 1.1417 1.6895, -0.4153 -1.1417 1.6895, -0.3937 -1.1811 1.6895, 0.3937 -1.1811 1.6895, 1.1364 1.1614 1.6895, 1.1302 1.1696 1.6895, 1.122 1.1758 1.6895, -1.1418 -1.1417 1.6895, -1.1418 1.1417 1.6895, 1.1417 -1.1417 1.6895, 1.122 -1.1758 1.6895, 1.1404 -1.1519 1.6895, 1.1302 -1.1696 1.6895, 1.1364 -1.1614 1.6895, 1.1404 1.1519 1.6895, 1.1125 1.1798 1.6895, -1.1221 -1.1758 1.6895, -1.1126 -1.1798 1.6895, -1.1302 -1.1696 1.6895, -1.1365 -1.1614 1.6895, 0.4153 1.1417 1.6895, -1.1221 1.1758 1.6895, -1.1302 1.1696 1.6895, -1.1365 1.1614 1.6895, -1.1404 -1.1519 1.6895, -1.1126 1.1798 1.6895, -1.1404 1.1519 1.6895, 1.1125 -1.1798 1.6895, 0.4153 1.1417 0.1974, 0.5905 1.1417 0.1974, 0.5905 1.0827 0.1974, -0.5906 1.0827 0.1974, -0.5906 1.1417 0.1974, -0.4153 1.1417 0.1974, 0.3937 -1.1811 0.1974, -0.3937 -1.1811 0.1974, -0.5906 -1.0827 0.1974, 0.5905 -1.0827 0.1974, 0.4153 -1.1417 0.1974, 0.5905 -1.1417 0.1974, -0.5906 -1.1417 0.1974, -0.4153 -1.1417 0.1974
            ]
        }
        coordIndex [
            0,1,2,-1,3,4,5,-1,5,4,6,-1,7,8,9,-1,0,10,3,-1,3,10,11,-1,3,11,4,-1,9,12,7,-1,7,12,13,-1,7,13,14,-1,14,13,15,-1,14,15,16,-1,17,18,19,-1,20,21,22,-1,19,23,17,-1,17,23,24,-1,17,24,25,-1,25,24,26,-1,26,27,25,-1,25,27,28,-1,25,28,29,-1,24,20,26,-1,26,20,22,-1,26,22,30,-1,30,22,31,-1,32,33,34,-1,34,33,35,-1,34,35,36,-1,36,37,34,-1,34,37,38,-1,34,38,39,-1,31,22,34,-1,34,22,40,-1,34,40,32,-1,41,42,38,-1,38,42,43,-1,38,43,39,-1,44,45,46,-1,47,48,49,-1,48,50,49,-1,49,50,51,-1,49,51,52,-1,52,53,49,-1,49,53,54,-1,49,54,55,-1,47,49,56,-1,56,49,57,-1,56,57,58,-1,0,59,1,-1,1,59,60,-1,1,60,61,-1,61,62,1,-1,1,62,63,-1,1,63,64,-1,58,2,65,-1,65,2,1,-1,65,1,66,-1,66,1,64,-1,67,68,69,-1,69,68,70,-1,71,72,73,-1,74,71,75,-1,75,71,73,-1,75,73,76,-1,76,73,77,-1,78,79,80,-1,80,79,81,-1,80,81,74,-1,74,81,82,-1,74,82,71,-1,83,84,85,-1,86,87,88,-1,88,89,86,-1,86,89,90,-1,86,90,91,-1,91,92,86,-1,86,92,93,-1,86,93,94,-1,94,93,95,-1,94,95,96,-1,84,83,97,-1,98,99,100,-1,100,99,101,-1,100,101,102,-1,98,103,104,-1,104,103,102,-1,101,105,102,-1,102,105,106,-1,102,106,104,-1,104,106,107,-1,104,107,108,-1,109,110,111,-1,112,113,114,-1,110,115,111,-1,111,115,112,-1,111,112,116,-1,116,112,114,-1,117,118,119,-1,119,118,120,-1,119,120,121,-1,122,123,124,-1,124,123,118,-1,124,118,125,-1,125,118,117,-1,126,127,128,-1,128,127,129,-1,128,129,130,-1,131,132,133,-1,133,132,134,-1,133,134,135,-1,46,136,44,-1,44,136,137,-1,44,137,138,-1,138,137,135,-1,138,135,139,-1,139,135,134,-1,140,75,141,-1,141,75,76,-1,141,76,142,-1,142,76,143,-1,142,143,144,-1,144,143,145,-1,144,145,140,-1,140,145,75,-1,67,69,146,-1,146,69,132,-1,146,132,147,-1,148,123,70,-1,70,123,122,-1,70,122,69,-1,69,122,149,-1,69,149,132,-1,132,149,150,-1,132,150,134,-1,134,150,151,-1,134,151,122,-1,122,151,152,-1,122,152,149,-1,153,154,155,-1,155,154,143,-1,155,143,147,-1,147,143,76,-1,147,76,146,-1,146,76,77,-1,146,77,67,-1,156,157,155,-1,158,159,160,-1,155,157,129,-1,129,157,161,-1,129,161,162,-1,160,156,158,-1,158,156,155,-1,158,155,163,-1,163,155,147,-1,163,147,162,-1,162,147,132,-1,162,132,129,-1,129,132,131,-1,129,131,130,-1,164,165,127,-1,127,165,166,-1,127,166,129,-1,129,166,167,-1,129,167,168,-1,168,169,129,-1,129,169,170,-1,129,170,171,-1,172,173,155,-1,155,173,174,-1,155,174,175,-1,171,176,129,-1,129,176,177,-1,129,177,155,-1,155,177,178,-1,155,178,172,-1,175,179,155,-1,155,179,180,-1,155,180,153,-1,5,25,3,-1,3,25,29,-1,3,29,0,-1,0,29,181,-1,0,181,59,-1,180,164,153,-1,153,164,127,-1,153,127,182,-1,183,184,153,-1,153,184,185,-1,16,15,186,-1,186,15,145,-1,186,145,187,-1,187,145,143,-1,187,143,6,-1,6,143,154,-1,6,154,5,-1,5,154,153,-1,5,153,25,-1,25,153,185,-1,25,185,17,-1,17,185,188,-1,17,188,189,-1,54,190,55,-1,55,190,18,-1,55,18,126,-1,126,18,17,-1,126,17,127,-1,127,17,189,-1,127,189,182,-1,191,192,193,-1,193,183,191,-1,191,183,153,-1,191,153,194,-1,194,153,182,-1,194,182,195,-1,195,182,196,-1,87,86,197,-1,197,86,198,-1,197,198,85,-1,85,198,96,-1,85,96,83,-1,83,96,95,-1,83,95,199,-1,107,97,108,-1,108,97,83,-1,108,83,200,-1,200,83,199,-1,200,199,9,-1,2,201,202,-1,58,57,2,-1,2,57,203,-1,2,203,201,-1,8,10,9,-1,9,10,0,-1,9,0,200,-1,200,0,2,-1,200,2,108,-1,108,2,202,-1,108,202,104,-1,104,202,204,-1,104,204,57,-1,57,204,205,-1,57,205,203,-1,203,205,206,-1,98,104,99,-1,99,104,57,-1,99,57,207,-1,207,57,49,-1,207,49,45,-1,45,49,55,-1,45,55,46,-1,124,208,122,-1,122,208,209,-1,122,209,134,-1,134,209,210,-1,134,210,139,-1,139,210,211,-1,139,211,138,-1,138,211,212,-1,138,212,44,-1,44,212,213,-1,44,213,45,-1,45,213,214,-1,45,214,207,-1,207,214,109,-1,207,109,99,-1,99,109,111,-1,99,111,101,-1,215,216,217,-1,217,216,218,-1,87,197,219,-1,219,197,220,-1,111,221,101,-1,101,221,222,-1,101,222,105,-1,223,224,225,-1,226,227,228,-1,229,230,231,-1,220,232,219,-1,219,232,233,-1,234,235,236,-1,237,238,239,-1,240,227,241,-1,241,227,222,-1,241,222,221,-1,242,243,244,-1,244,243,245,-1,244,245,246,-1,233,247,219,-1,219,247,237,-1,219,237,248,-1,248,237,239,-1,249,250,251,-1,251,250,229,-1,251,229,252,-1,253,218,216,-1,254,255,256,-1,236,228,234,-1,234,228,227,-1,234,227,231,-1,231,227,240,-1,231,240,229,-1,229,240,257,-1,229,257,252,-1,221,258,241,-1,241,258,254,-1,241,254,259,-1,259,254,256,-1,216,226,253,-1,253,226,228,-1,253,228,232,-1,232,228,223,-1,232,223,233,-1,233,223,225,-1,233,225,242,-1,242,225,260,-1,242,260,243,-1,261,262,263,-1,264,265,266,-1,215,217,266,-1,266,217,261,-1,266,261,264,-1,264,261,263,-1,225,224,71,-1,71,224,72,-1,236,235,267,-1,267,235,268,-1,269,270,271,-1,271,270,272,-1,273,269,274,-1,274,269,271,-1,274,271,268,-1,268,271,267,-1,74,75,242,-1,242,75,145,-1,145,15,242,-1,242,15,13,-1,242,13,233,-1,233,13,12,-1,233,12,9,-1,9,199,233,-1,233,199,95,-1,233,95,93,-1,110,109,241,-1,241,109,214,-1,241,214,240,-1,240,214,213,-1,213,212,240,-1,240,212,211,-1,240,211,210,-1,210,209,240,-1,240,209,208,-1,240,208,124,-1,148,230,123,-1,123,230,229,-1,123,229,118,-1,270,73,272,-1,272,73,72,-1,272,72,223,-1,223,72,224,-1,70,68,269,-1,269,68,67,-1,269,67,270,-1,270,67,77,-1,270,77,73,-1,231,230,273,-1,273,230,148,-1,273,148,269,-1,269,148,70,-1,235,234,268,-1,268,234,274,-1,234,231,274,-1,274,231,273,-1,223,228,272,-1,272,228,271,-1,228,236,271,-1,271,236,267,-1,232,220,262,-1,262,220,197,-1,262,197,263,-1,263,197,85,-1,264,106,265,-1,265,106,105,-1,265,105,227,-1,227,105,222,-1,85,84,263,-1,263,84,97,-1,263,97,264,-1,264,97,107,-1,264,107,106,-1,227,226,265,-1,265,226,266,-1,226,216,266,-1,266,216,215,-1,218,253,217,-1,217,253,261,-1,253,232,261,-1,261,232,262,-1,240,124,125,-1,240,125,257,-1,257,125,117,-1,257,117,252,-1,252,117,119,-1,252,119,251,-1,251,119,121,-1,251,121,249,-1,249,121,120,-1,249,120,250,-1,250,120,118,-1,250,118,229,-1,221,111,116,-1,221,116,258,-1,258,116,114,-1,258,114,254,-1,254,114,113,-1,254,113,255,-1,255,113,112,-1,255,112,256,-1,256,112,115,-1,256,115,259,-1,259,115,110,-1,259,110,241,-1,225,71,82,-1,225,82,260,-1,260,82,81,-1,260,81,243,-1,243,81,79,-1,243,79,245,-1,245,79,78,-1,245,78,246,-1,246,78,80,-1,246,80,244,-1,244,80,74,-1,244,74,242,-1,233,93,92,-1,233,92,247,-1,247,92,91,-1,247,91,237,-1,237,91,90,-1,237,90,238,-1,238,90,89,-1,238,89,239,-1,239,89,88,-1,239,88,248,-1,248,88,87,-1,248,87,219,-1,
        ]
    }
}
Shape{
    appearance Appearance {
        material  Material 	{
            diffuseColor 1.0 1.0 1.0
            specularColor 0.8784313725490196 0.8784313725490196 0.8784313725490196
            ambientIntensity 1.0
            transparency 0.0
            shininess 0.5
        }
    }
    geometry IndexedFaceSet {
        ccw TRUE
        solid FALSE
        coord DEF co Coordinate {
            point [
                -0.0221 -0.1002 0.1187, -0.0221 -0.1002 0.1226, -0.0 -0.0927 0.1187, -0.0 -0.0927 0.1226, -0.0221 -0.1328 0.1187, -0.0221 -0.1328 0.1226, -0.0 -0.1407 0.1187, -0.0 -0.1407 0.1226, -0.0 -0.1523 0.1187, -0.0 -0.1523 0.1226, -0.0788 -0.1215 0.1187, -0.0788 -0.1215 0.1226, -0.0788 -0.111 0.1187, -0.0788 -0.111 0.1226, -0.0 -0.0812 0.1187, -0.0 -0.0812 0.1226, -0.0308 -0.1029 0.1226, -0.0636 -0.1146 0.1226, -0.0664 -0.1167 0.1226, -0.0692 -0.1159 0.1226, -0.0664 -0.1154 0.1226, -0.0636 -0.1174 0.1226, -0.0308 -0.1292 0.1226, -0.0308 -0.1029 0.1187, -0.0636 -0.1146 0.1187, -0.0308 -0.1292 0.1187, -0.0636 -0.1174 0.1187, -0.0664 -0.1167 0.1187, -0.0692 -0.1159 0.1187, -0.0664 -0.1154 0.1187, -0.0 -0.0121 0.1187, -0.0 -0.0121 0.1226, -0.0788 -0.0121 0.1187, -0.0788 -0.0121 0.1226, -0.0 -0.0335 0.1187, -0.0 -0.0335 0.1226, -0.0404 -0.0754 0.1187, -0.0404 -0.0754 0.1226, -0.0357 -0.0742 0.1226, -0.0357 -0.0742 0.1187, -0.018 -0.068 0.1226, -0.018 -0.068 0.1187, -0.0115 -0.0638 0.1226, -0.0115 -0.0638 0.1187, -0.0077 -0.0596 0.1226, -0.0077 -0.0596 0.1187, -0.0047 -0.0542 0.1226, -0.0047 -0.0542 0.1187, -0.0022 -0.0462 0.1226, -0.0022 -0.0462 0.1187, -0.0788 -0.0343 0.1187, -0.0788 -0.0343 0.1226, -0.0777 -0.0397 0.1226, -0.0777 -0.0397 0.1187, -0.0727 -0.0566 0.1226, -0.0727 -0.0566 0.1187, -0.0689 -0.063 0.1226, -0.0689 -0.063 0.1187, -0.0651 -0.0669 0.1226, -0.0651 -0.0669 0.1187, -0.06 -0.07 0.1226, -0.06 -0.07 0.1187, -0.0524 -0.0727 0.1226, -0.0524 -0.0727 0.1187, -0.0671 -0.0493 0.1226, -0.0651 -0.0533 0.1226, -0.0626 -0.0562 0.1226, -0.0586 -0.059 0.1226, -0.0508 -0.0622 0.1226, -0.0402 -0.0649 0.1226, -0.0307 -0.0634 0.1226, -0.0247 -0.0617 0.1226, -0.0206 -0.0596 0.1226, -0.0175 -0.0571 0.1226, -0.0146 -0.0529 0.1226, -0.0113 -0.0449 0.1226, -0.0687 -0.0434 0.1226, -0.0701 -0.0342 0.1226, -0.0701 -0.0226 0.1226, -0.0087 -0.0226 0.1226, -0.0087 -0.0338 0.1226, -0.0402 -0.0649 0.1187, -0.0508 -0.0622 0.1187, -0.0586 -0.059 0.1187, -0.0626 -0.0562 0.1187, -0.0651 -0.0533 0.1187, -0.0671 -0.0493 0.1187, -0.0687 -0.0434 0.1187, -0.0701 -0.0342 0.1187, -0.0701 -0.0226 0.1187, -0.0087 -0.0226 0.1187, -0.0087 -0.0338 0.1187, -0.0113 -0.0449 0.1187, -0.0146 -0.0529 0.1187, -0.0175 -0.0571 0.1187, -0.0206 -0.0596 0.1187, -0.0247 -0.0617 0.1187, -0.0307 -0.0634 0.1187, -0.0442 0.0071 0.1187, -0.0442 0.0071 0.1226, -0.0356 0.0071 0.1187, -0.0356 0.0071 0.1226, -0.0442 0.035 0.1187, -0.0442 0.035 0.1226, -0.0701 0.035 0.1187, -0.0701 0.035 0.1226, -0.0701 0.0052 0.1187, -0.0701 0.0052 0.1226, -0.0788 0.0052 0.1187, -0.0788 0.0052 0.1226, -0.0788 0.0456 0.1187, -0.0788 0.0456 0.1226, -0.0 0.0456 0.1187, -0.0 0.0456 0.1226, -0.0 0.0033 0.1187, -0.0 0.0033 0.1226, -0.0087 0.0033 0.1187, -0.0087 0.0033 0.1226, -0.0087 0.035 0.1187, -0.0087 0.035 0.1226, -0.0356 0.035 0.1187, -0.0356 0.035 0.1226, -0.066 0.0609 0.1187, -0.066 0.0609 0.1226, -0.0698 0.0698 0.1226, -0.0698 0.0698 0.1187, -0.0711 0.0794 0.1226, -0.0711 0.0794 0.1187, -0.0766 0.0609 0.1187, -0.0766 0.0609 0.1226, -0.0797 0.0795 0.1187, -0.0797 0.0795 0.1226, -0.0793 0.0724 0.1187, -0.0791 0.07 0.1226, -0.0791 0.07 0.1187, -0.0379 0.1195 0.1187, -0.0379 0.1195 0.1226, -0.0412 0.1188 0.1187, -0.0424 0.1185 0.1226, -0.0424 0.1185 0.1187, -0.0605 0.113 0.1226, -0.0605 0.113 0.1187, -0.0671 0.1091 0.1226, -0.0671 0.1091 0.1187, -0.0711 0.1051 0.1226, -0.0711 0.1051 0.1187, -0.0742 0.0998 0.1226, -0.0742 0.0998 0.1187, -0.077 0.0919 0.1226, -0.077 0.0919 0.1187, -0.0793 0.0817 0.1187, 0.0009 0.0826 0.1187, 0.0009 0.0826 0.1226, 0.0005 0.0844 0.1187, -0.0007 0.0887 0.1226, -0.0007 0.0887 0.1187, -0.0061 0.1037 0.1226, -0.0061 0.1037 0.1187, -0.01 0.1094 0.1226, -0.01 0.1094 0.1187, -0.0138 0.1128 0.1226, -0.0138 0.1128 0.1187, -0.0189 0.1154 0.1226, -0.0189 0.1154 0.1187, -0.0262 0.1176 0.1226, -0.0262 0.1176 0.1187, -0.0336 0.1188 0.1187, -0.0002 0.0715 0.1187, -0.0041 0.0609 0.1187, -0.0002 0.0715 0.1226, -0.0041 0.0609 0.1226, 0.0005 0.0778 0.1187, -0.0128 0.0609 0.1187, -0.0128 0.0609 0.1226, -0.0077 0.0811 0.1187, -0.0077 0.0811 0.1226, -0.0089 0.0707 0.1226, -0.0089 0.0707 0.1187, -0.0386 0.1089 0.1187, -0.0386 0.1089 0.1226, -0.029 0.1071 0.1226, -0.029 0.1071 0.1187, -0.0207 0.1043 0.1226, -0.0207 0.1043 0.1187, -0.0165 0.1017 0.1226, -0.0165 0.1017 0.1187, -0.0141 0.0992 0.1226, -0.0141 0.0992 0.1187, -0.0118 0.0955 0.1226, -0.0118 0.0955 0.1187, -0.0098 0.0899 0.1226, -0.0098 0.0899 0.1187, -0.07 0.0833 0.1226, -0.07 0.0833 0.1187, -0.065 0.0962 0.1226, -0.065 0.0962 0.1187, -0.0617 0.1009 0.1226, -0.0617 0.1009 0.1187, -0.0585 0.1037 0.1226, -0.0585 0.1037 0.1187, -0.0543 0.1058 0.1226, -0.0543 0.1058 0.1187, -0.0482 0.1075 0.1226, -0.0482 0.1075 0.1187, -0.0 0.1666 0.1187, -0.0 0.1666 0.1226, -0.0788 0.1666 0.1187, -0.0788 0.1666 0.1226, -0.0 0.1262 0.1187, -0.0 0.1262 0.1226, -0.0087 0.1262 0.1187, -0.0087 0.1262 0.1226, -0.0087 0.156 0.1187, -0.0087 0.156 0.1226, -0.0788 0.156 0.1187, -0.0788 0.156 0.1226
            ]
        }
        coordIndex [
            0,1,2,-1,2,1,3,-1,4,5,0,-1,0,5,1,-1,6,7,4,-1,4,7,5,-1,8,9,6,-1,6,9,7,-1,10,11,8,-1,8,11,9,-1,12,13,10,-1,10,13,11,-1,14,15,12,-1,12,15,13,-1,14,2,15,-1,15,2,3,-1,16,17,13,-1,15,3,1,-1,18,11,19,-1,19,11,13,-1,19,13,20,-1,20,13,17,-1,18,21,11,-1,11,21,22,-1,11,22,9,-1,7,9,5,-1,5,9,22,-1,5,22,1,-1,1,22,16,-1,1,16,15,-1,15,16,13,-1,16,23,17,-1,17,23,24,-1,22,25,16,-1,16,25,23,-1,21,26,22,-1,22,26,25,-1,26,21,18,-1,26,18,27,-1,27,18,19,-1,27,19,28,-1,28,19,20,-1,28,20,29,-1,29,20,17,-1,29,17,24,-1,30,31,32,-1,32,31,33,-1,34,35,30,-1,30,35,31,-1,36,37,38,-1,36,38,39,-1,39,38,40,-1,39,40,41,-1,41,40,42,-1,41,42,43,-1,43,42,44,-1,43,44,45,-1,45,44,46,-1,45,46,47,-1,47,46,48,-1,47,48,49,-1,49,48,35,-1,49,35,34,-1,50,51,52,-1,50,52,53,-1,53,52,54,-1,53,54,55,-1,55,54,56,-1,55,56,57,-1,57,56,58,-1,57,58,59,-1,59,58,60,-1,59,60,61,-1,61,60,62,-1,61,62,63,-1,63,62,37,-1,63,37,36,-1,50,32,51,-1,51,32,33,-1,64,65,54,-1,54,65,56,-1,56,65,66,-1,56,66,58,-1,58,66,67,-1,58,67,60,-1,60,67,68,-1,60,68,62,-1,62,68,37,-1,37,68,69,-1,37,69,38,-1,38,69,70,-1,38,70,40,-1,70,71,40,-1,40,71,72,-1,40,72,42,-1,42,72,73,-1,42,73,44,-1,44,73,74,-1,44,74,46,-1,46,74,75,-1,64,54,76,-1,76,54,52,-1,76,52,77,-1,77,52,51,-1,77,51,78,-1,78,51,33,-1,78,33,79,-1,79,33,31,-1,79,31,80,-1,80,31,35,-1,80,35,75,-1,75,35,48,-1,75,48,46,-1,81,69,68,-1,81,68,82,-1,82,68,67,-1,82,67,83,-1,83,67,66,-1,83,66,84,-1,84,66,65,-1,84,65,85,-1,85,65,64,-1,85,64,86,-1,86,64,76,-1,86,76,87,-1,87,76,77,-1,87,77,88,-1,78,89,77,-1,77,89,88,-1,79,90,78,-1,78,90,89,-1,80,91,79,-1,79,91,90,-1,91,80,75,-1,91,75,92,-1,92,75,74,-1,92,74,93,-1,93,74,73,-1,93,73,94,-1,94,73,72,-1,94,72,95,-1,95,72,71,-1,95,71,96,-1,96,71,70,-1,96,70,97,-1,97,70,69,-1,97,69,81,-1,98,99,100,-1,100,99,101,-1,102,103,98,-1,98,103,99,-1,104,105,102,-1,102,105,103,-1,106,107,104,-1,104,107,105,-1,108,109,106,-1,106,109,107,-1,110,111,108,-1,108,111,109,-1,112,113,110,-1,110,113,111,-1,114,115,112,-1,112,115,113,-1,116,117,114,-1,114,117,115,-1,118,119,116,-1,116,119,117,-1,120,121,118,-1,118,121,119,-1,120,100,121,-1,121,100,101,-1,113,115,117,-1,117,119,113,-1,113,119,121,-1,113,121,111,-1,107,109,105,-1,105,109,111,-1,105,111,103,-1,103,111,121,-1,103,121,99,-1,99,121,101,-1,122,123,124,-1,122,124,125,-1,125,124,126,-1,125,126,127,-1,128,129,122,-1,122,129,123,-1,130,131,132,-1,132,131,133,-1,132,133,134,-1,134,133,129,-1,134,129,128,-1,135,136,137,-1,137,136,138,-1,137,138,139,-1,139,138,140,-1,139,140,141,-1,141,140,142,-1,141,142,143,-1,143,142,144,-1,143,144,145,-1,145,144,146,-1,145,146,147,-1,147,146,148,-1,147,148,149,-1,149,148,150,-1,150,148,131,-1,150,131,130,-1,151,152,153,-1,153,152,154,-1,153,154,155,-1,155,154,156,-1,155,156,157,-1,157,156,158,-1,157,158,159,-1,159,158,160,-1,159,160,161,-1,161,160,162,-1,161,162,163,-1,163,162,164,-1,163,164,165,-1,165,164,166,-1,166,164,136,-1,166,136,135,-1,167,168,169,-1,169,168,170,-1,167,169,171,-1,171,169,152,-1,171,152,151,-1,172,173,168,-1,168,173,170,-1,174,175,176,-1,174,176,177,-1,177,176,173,-1,177,173,172,-1,178,179,180,-1,178,180,181,-1,181,180,182,-1,181,182,183,-1,183,182,184,-1,183,184,185,-1,185,184,186,-1,185,186,187,-1,187,186,188,-1,187,188,189,-1,189,188,190,-1,189,190,191,-1,191,190,175,-1,191,175,174,-1,127,126,192,-1,127,192,193,-1,193,192,194,-1,193,194,195,-1,195,194,196,-1,195,196,197,-1,197,196,198,-1,197,198,199,-1,199,198,200,-1,199,200,201,-1,201,200,202,-1,201,202,203,-1,203,202,179,-1,203,179,178,-1,123,129,124,-1,124,129,133,-1,124,133,126,-1,126,133,131,-1,126,131,192,-1,192,131,148,-1,192,148,194,-1,180,162,182,-1,182,162,160,-1,182,160,184,-1,184,160,158,-1,184,158,186,-1,186,158,156,-1,148,146,194,-1,194,146,144,-1,194,144,196,-1,196,144,142,-1,196,142,198,-1,198,142,140,-1,198,140,200,-1,170,173,169,-1,169,173,176,-1,169,176,152,-1,152,176,175,-1,152,175,154,-1,154,175,190,-1,154,190,156,-1,156,190,188,-1,156,188,186,-1,200,140,202,-1,202,140,138,-1,202,138,179,-1,179,138,136,-1,179,136,180,-1,180,136,164,-1,180,164,162,-1,204,205,206,-1,206,205,207,-1,208,209,204,-1,204,209,205,-1,210,211,208,-1,208,211,209,-1,212,213,210,-1,210,213,211,-1,214,215,212,-1,212,215,213,-1,214,206,215,-1,215,206,207,-1,215,207,213,-1,213,207,205,-1,213,205,211,-1,211,205,209,-1,
        ]
    }
}
Shape{
    appearance Appearance {
        material  Material 	{
            diffuseColor 0.43137254901960786 0.35294117647058826 0.37254901960784315
            specularColor 0.3803921568627451 0.30980392156862746 0.32941176470588235
            ambientIntensity 0.3786
            transparency 0.0
            shininess 0.5
        }
    }
    geometry IndexedFaceSet {
        ccw TRUE
        solid FALSE
        coord DEF co Coordinate {
            point [
                -0.0308 -0.1029 0.1187, -0.0308 -0.1292 0.1187, -0.0636 -0.1146 0.1187, -0.0636 -0.1174 0.1187, -0.0664 -0.1154 0.1187, -0.0664 -0.1167 0.1187, -0.0692 -0.1159 0.1187, -0.0701 -0.0342 0.1187, -0.0701 -0.0226 0.1187, -0.0307 -0.0634 0.1187, -0.0247 -0.0617 0.1187, -0.0671 -0.0493 0.1187, -0.0687 -0.0434 0.1187, -0.0508 -0.0622 0.1187, -0.0402 -0.0649 0.1187, -0.0087 -0.0226 0.1187, -0.0087 -0.0338 0.1187, -0.0113 -0.0449 0.1187, -0.0146 -0.0529 0.1187, -0.0175 -0.0571 0.1187, -0.0206 -0.0596 0.1187, -0.0651 -0.0533 0.1187, -0.0586 -0.059 0.1187, -0.0626 -0.0562 0.1187
            ]
        }
        coordIndex [
            0,1,2,-1,2,1,3,-1,2,3,4,-1,4,3,5,-1,4,5,6,-1,7,8,9,-1,9,8,10,-1,11,12,13,-1,7,9,12,-1,12,9,14,-1,12,14,13,-1,15,16,8,-1,8,16,17,-1,8,17,18,-1,18,19,8,-1,8,19,20,-1,8,20,10,-1,11,13,21,-1,21,13,22,-1,21,22,23,-1,
        ]
    }
}
Shape{
    appearance Appearance {
        material  Material 	{
            diffuseColor 0.7764705882352941 0.7568627450980392 0.7372549019607844
            specularColor 0.38823529411764707 0.3764705882352941 0.3686274509803922
            ambientIntensity 0.7605
            transparency 0.0
            shininess 0.5
        }
    }
    geometry IndexedFaceSet {
        ccw TRUE
        solid FALSE
        coord DEF co Coordinate {
            point [
                1.6342 -0.9055 0.0, 0.9491 -0.9055 0.0, 1.6342 -0.6693 0.0, 0.9491 -0.6693 0.0, 1.6342 -0.6693 0.1144, 0.9787 -0.6693 0.1144, 1.6342 -0.9055 0.1144, 0.9787 -0.9055 0.1144, 0.8267 -0.9055 0.1187, 0.8267 -0.6693 0.1187, 0.8343 -0.6693 0.0891, 0.8343 -0.9055 0.0891, 0.8482 -0.6693 0.0619, 0.8482 -0.9055 0.0619, 0.8677 -0.6693 0.0384, 0.8677 -0.9055 0.0384, 0.8918 -0.6693 0.0197, 0.8918 -0.9055 0.0197, 0.9194 -0.6693 0.0067, 0.9194 -0.9055 0.0067, 0.9449 -0.6693 0.1187, 0.9496 -0.6693 0.1148, 0.961 -0.6693 0.1107, 0.9551 -0.6693 0.1122, 0.9671 -0.6693 0.1106, 0.9731 -0.6693 0.1119, 0.9731 -0.9055 0.1119, 0.9671 -0.9055 0.1106, 0.961 -0.9055 0.1107, 0.9551 -0.9055 0.1122, 0.9496 -0.9055 0.1148, 0.9449 -0.9055 0.1187, 1.6342 -0.1181 0.1144, 0.9787 -0.1181 0.1144, 1.6342 -0.1181 0.0, 0.9491 -0.1181 0.0, 1.6342 0.1181 0.0, 0.9491 0.1181 0.0, 1.6342 0.1181 0.1144, 0.9787 0.1181 0.1144, 0.9731 -0.1181 0.1119, 0.9449 -0.1181 0.1187, 0.8267 -0.1181 0.1187, 0.8343 -0.1181 0.0891, 0.9671 -0.1181 0.1106, 0.961 -0.1181 0.1107, 0.9194 -0.1181 0.0067, 0.9551 -0.1181 0.1122, 0.8918 -0.1181 0.0197, 0.9496 -0.1181 0.1148, 0.8677 -0.1181 0.0384, 0.8482 -0.1181 0.0619, 0.8267 0.0532 0.1187, 0.8267 0.1181 0.1187, 0.8343 0.1181 0.0891, 0.8267 -0.0783 0.1187, 0.8267 -0.0044 0.1187, 0.8482 0.1181 0.0619, 0.8677 0.1181 0.0384, 0.8918 0.1181 0.0197, 0.9194 0.1181 0.0067, 0.9449 0.1181 0.1187, 0.961 0.1181 0.1107, 0.9671 0.1181 0.1106, 0.9731 0.1181 0.1119, 0.9551 0.1181 0.1122, 0.9496 0.1181 0.1148, 0.9449 0.0532 0.1187, 0.9449 -0.0044 0.1187, 0.9449 -0.0783 0.1187, 1.6342 0.6693 0.1144, 0.9787 0.6693 0.1144, 1.6342 0.6693 0.0, 0.9491 0.6693 0.0, 1.6342 0.9055 0.0, 0.9491 0.9055 0.0, 1.6342 0.9055 0.1144, 0.9787 0.9055 0.1144, 0.9731 0.6693 0.1119, 0.9449 0.6693 0.1187, 0.8267 0.6693 0.1187, 0.8343 0.6693 0.0891, 0.9671 0.6693 0.1106, 0.961 0.6693 0.1107, 0.9194 0.6693 0.0067, 0.9551 0.6693 0.1122, 0.8918 0.6693 0.0197, 0.9496 0.6693 0.1148, 0.8677 0.6693 0.0384, 0.8482 0.6693 0.0619, 0.8267 0.9055 0.1187, 0.8343 0.9055 0.0891, 0.8482 0.9055 0.0619, 0.8677 0.9055 0.0384, 0.8918 0.9055 0.0197, 0.9194 0.9055 0.0067, 0.9449 0.9055 0.1187, 0.961 0.9055 0.1107, 0.9671 0.9055 0.1106, 0.9731 0.9055 0.1119, 0.9551 0.9055 0.1122, 0.9496 0.9055 0.1148, -1.6342 -0.9055 0.1144, -0.9787 -0.9055 0.1144, -1.6342 -0.6693 0.1144, -0.9787 -0.6693 0.1144, -1.6342 -0.6693 0.0, -0.9492 -0.6693 0.0, -1.6342 -0.9055 0.0, -0.9492 -0.9055 0.0, -0.9732 -0.6693 0.1119, -0.9732 -0.9055 0.1119, -0.9672 -0.6693 0.1106, -0.9672 -0.9055 0.1106, -0.9611 -0.6693 0.1107, -0.9611 -0.9055 0.1107, -0.9552 -0.6693 0.1122, -0.9552 -0.9055 0.1122, -0.9497 -0.6693 0.1148, -0.9497 -0.9055 0.1148, -0.9449 -0.6693 0.1187, -0.9449 -0.9055 0.1187, -0.8268 -0.6693 0.1187, -0.8344 -0.6693 0.0891, -0.8483 -0.6693 0.0619, -0.8677 -0.6693 0.0384, -0.8918 -0.6693 0.0197, -0.9194 -0.6693 0.0067, -0.8268 -0.9055 0.1187, -0.8344 -0.9055 0.0891, -0.8483 -0.9055 0.0619, -0.8677 -0.9055 0.0384, -0.8918 -0.9055 0.0197, -0.9194 -0.9055 0.0067, -1.6342 0.1181 0.1144, -0.9787 0.1181 0.1144, -1.6342 0.1181 0.0, -0.9492 0.1181 0.0, -1.6342 -0.1181 0.0, -0.9492 -0.1181 0.0, -1.6342 -0.1181 0.1144, -0.9787 -0.1181 0.1144, -0.9732 0.1181 0.1119, -0.9449 0.1181 0.1187, -0.8268 0.1181 0.1187, -0.8344 0.1181 0.0891, -0.9672 0.1181 0.1106, -0.9611 0.1181 0.1107, -0.9194 0.1181 0.0067, -0.9552 0.1181 0.1122, -0.8918 0.1181 0.0197, -0.9497 0.1181 0.1148, -0.8677 0.1181 0.0384, -0.8483 0.1181 0.0619, -0.8268 0.0532 0.1187, -0.8268 -0.0044 0.1187, -0.8268 -0.1181 0.1187, -0.8344 -0.1181 0.0891, -0.8268 -0.0783 0.1187, -0.8483 -0.1181 0.0619, -0.8677 -0.1181 0.0384, -0.8918 -0.1181 0.0197, -0.9194 -0.1181 0.0067, -0.9611 -0.1181 0.1107, -0.9552 -0.1181 0.1122, -0.9497 -0.1181 0.1148, -0.9449 -0.1181 0.1187, -0.9672 -0.1181 0.1106, -0.9732 -0.1181 0.1119, -0.9449 0.0532 0.1187, -0.9449 -0.0044 0.1187, -0.9449 -0.0783 0.1187, -1.6342 0.9055 0.1144, -0.9787 0.9055 0.1144, -1.6342 0.9055 0.0, -0.9492 0.9055 0.0, -1.6342 0.6693 0.0, -0.9492 0.6693 0.0, -1.6342 0.6693 0.1144, -0.9787 0.6693 0.1144, -0.9732 0.9055 0.1119, -0.9449 0.9055 0.1187, -0.8268 0.9055 0.1187, -0.8344 0.9055 0.0891, -0.9672 0.9055 0.1106, -0.9611 0.9055 0.1107, -0.9194 0.9055 0.0067, -0.9552 0.9055 0.1122, -0.8918 0.9055 0.0197, -0.9497 0.9055 0.1148, -0.8677 0.9055 0.0384, -0.8483 0.9055 0.0619, -0.8268 0.6693 0.1187, -0.8344 0.6693 0.0891, -0.8483 0.6693 0.0619, -0.8677 0.6693 0.0384, -0.8918 0.6693 0.0197, -0.9194 0.6693 0.0067, -0.9611 0.6693 0.1107, -0.9672 0.6693 0.1106, -0.9732 0.6693 0.1119, -0.9449 0.6693 0.1187, -0.9497 0.6693 0.1148, -0.9552 0.6693 0.1122
            ]
        }
        coordIndex [
            0,1,2,-1,2,1,3,-1,2,3,4,-1,4,3,5,-1,4,5,6,-1,6,5,7,-1,6,7,0,-1,0,7,1,-1,8,9,10,-1,8,10,11,-1,11,10,12,-1,11,12,13,-1,13,12,14,-1,13,14,15,-1,15,14,16,-1,15,16,17,-1,17,16,18,-1,17,18,19,-1,19,18,3,-1,19,3,1,-1,10,9,20,-1,21,14,20,-1,20,14,12,-1,20,12,10,-1,22,3,23,-1,23,3,18,-1,23,18,21,-1,21,18,16,-1,21,16,14,-1,22,24,3,-1,3,24,25,-1,3,25,5,-1,7,5,26,-1,26,5,25,-1,26,25,27,-1,27,25,24,-1,27,24,28,-1,28,24,22,-1,28,22,29,-1,29,22,23,-1,29,23,30,-1,30,23,21,-1,30,21,31,-1,31,21,20,-1,1,7,26,-1,31,8,11,-1,26,27,1,-1,1,27,28,-1,1,28,19,-1,19,28,29,-1,19,29,17,-1,17,29,30,-1,17,30,15,-1,15,30,31,-1,15,31,13,-1,13,31,11,-1,32,33,34,-1,34,33,35,-1,34,35,36,-1,36,35,37,-1,36,37,38,-1,38,37,39,-1,38,39,32,-1,32,39,33,-1,35,33,40,-1,41,42,43,-1,40,44,35,-1,35,44,45,-1,35,45,46,-1,46,45,47,-1,46,47,48,-1,48,47,49,-1,48,49,50,-1,50,49,41,-1,50,41,51,-1,51,41,43,-1,52,53,54,-1,42,55,43,-1,43,55,56,-1,52,54,56,-1,56,54,43,-1,43,54,57,-1,43,57,51,-1,51,57,58,-1,51,58,50,-1,50,58,59,-1,50,59,48,-1,48,59,60,-1,48,60,46,-1,46,60,37,-1,46,37,35,-1,54,53,61,-1,62,63,37,-1,37,63,64,-1,37,64,39,-1,54,61,57,-1,62,37,65,-1,65,37,60,-1,65,60,66,-1,66,60,59,-1,66,59,61,-1,61,59,58,-1,61,58,57,-1,33,39,40,-1,40,39,64,-1,40,64,44,-1,44,64,63,-1,44,63,45,-1,45,63,62,-1,45,62,47,-1,47,62,65,-1,47,65,49,-1,49,65,66,-1,61,67,66,-1,66,67,68,-1,66,68,49,-1,49,68,69,-1,49,69,41,-1,70,71,72,-1,72,71,73,-1,72,73,74,-1,74,73,75,-1,74,75,76,-1,76,75,77,-1,76,77,70,-1,70,77,71,-1,73,71,78,-1,79,80,81,-1,78,82,73,-1,73,82,83,-1,73,83,84,-1,84,83,85,-1,84,85,86,-1,86,85,87,-1,86,87,88,-1,88,87,79,-1,88,79,89,-1,89,79,81,-1,80,90,91,-1,80,91,81,-1,81,91,92,-1,81,92,89,-1,89,92,93,-1,89,93,88,-1,88,93,94,-1,88,94,86,-1,86,94,95,-1,86,95,84,-1,84,95,75,-1,84,75,73,-1,91,90,96,-1,97,98,75,-1,75,98,99,-1,75,99,77,-1,91,96,92,-1,97,75,100,-1,100,75,95,-1,100,95,101,-1,101,95,94,-1,101,94,96,-1,96,94,93,-1,96,93,92,-1,71,77,78,-1,78,77,99,-1,78,99,82,-1,82,99,98,-1,82,98,83,-1,83,98,97,-1,83,97,85,-1,85,97,100,-1,85,100,87,-1,87,100,101,-1,87,101,79,-1,79,101,96,-1,102,103,104,-1,104,103,105,-1,104,105,106,-1,106,105,107,-1,106,107,108,-1,108,107,109,-1,108,109,102,-1,102,109,103,-1,105,103,110,-1,110,103,111,-1,110,111,112,-1,112,111,113,-1,112,113,114,-1,114,113,115,-1,114,115,116,-1,116,115,117,-1,116,117,118,-1,118,117,119,-1,118,119,120,-1,120,119,121,-1,120,122,123,-1,107,105,110,-1,123,124,120,-1,120,124,125,-1,120,125,118,-1,118,125,126,-1,118,126,116,-1,116,126,127,-1,116,127,114,-1,114,127,107,-1,114,107,112,-1,112,107,110,-1,122,128,129,-1,122,129,123,-1,123,129,130,-1,123,130,124,-1,124,130,131,-1,124,131,125,-1,125,131,132,-1,125,132,126,-1,126,132,133,-1,126,133,127,-1,127,133,109,-1,127,109,107,-1,129,128,121,-1,115,113,109,-1,109,113,111,-1,109,111,103,-1,129,121,130,-1,115,109,117,-1,117,109,133,-1,117,133,119,-1,119,133,132,-1,119,132,121,-1,121,132,131,-1,121,131,130,-1,134,135,136,-1,136,135,137,-1,136,137,138,-1,138,137,139,-1,138,139,140,-1,140,139,141,-1,140,141,134,-1,134,141,135,-1,137,135,142,-1,143,144,145,-1,142,146,137,-1,137,146,147,-1,137,147,148,-1,148,147,149,-1,148,149,150,-1,150,149,151,-1,150,151,152,-1,152,151,143,-1,152,143,153,-1,153,143,145,-1,144,154,145,-1,145,154,155,-1,156,157,158,-1,158,157,155,-1,155,157,145,-1,145,157,159,-1,145,159,153,-1,153,159,160,-1,153,160,152,-1,152,160,161,-1,152,161,150,-1,150,161,162,-1,150,162,148,-1,148,162,139,-1,148,139,137,-1,163,139,164,-1,164,139,162,-1,164,162,165,-1,165,162,161,-1,165,161,166,-1,166,161,160,-1,163,167,139,-1,139,167,168,-1,139,168,141,-1,160,159,166,-1,166,159,157,-1,166,157,156,-1,169,143,151,-1,169,151,170,-1,165,166,171,-1,171,170,165,-1,165,170,151,-1,165,151,164,-1,164,151,149,-1,164,149,163,-1,163,149,147,-1,163,147,167,-1,167,147,146,-1,167,146,168,-1,168,146,142,-1,168,142,141,-1,141,142,135,-1,172,173,174,-1,174,173,175,-1,174,175,176,-1,176,175,177,-1,176,177,178,-1,178,177,179,-1,178,179,172,-1,172,179,173,-1,175,173,180,-1,181,182,183,-1,180,184,175,-1,175,184,185,-1,175,185,186,-1,186,185,187,-1,186,187,188,-1,188,187,189,-1,188,189,190,-1,190,189,181,-1,190,181,191,-1,191,181,183,-1,182,192,193,-1,182,193,183,-1,183,193,194,-1,183,194,191,-1,191,194,195,-1,191,195,190,-1,190,195,196,-1,190,196,188,-1,188,196,197,-1,188,197,186,-1,186,197,177,-1,186,177,175,-1,198,199,177,-1,177,199,200,-1,177,200,179,-1,195,201,202,-1,195,194,201,-1,201,194,193,-1,201,193,192,-1,198,177,203,-1,203,177,197,-1,203,197,202,-1,202,197,196,-1,202,196,195,-1,173,179,180,-1,180,179,200,-1,180,200,184,-1,184,200,199,-1,184,199,185,-1,185,199,198,-1,185,198,187,-1,187,198,203,-1,187,203,189,-1,189,203,202,-1,189,202,181,-1,181,202,201,-1,178,172,176,-1,176,172,174,-1,140,134,138,-1,138,134,136,-1,108,102,106,-1,106,102,104,-1,76,70,74,-1,74,70,72,-1,38,32,36,-1,36,32,34,-1,0,2,6,-1,6,2,4,-1,
        ]
    }
}
Shape{
    appearance Appearance {
        material  Material 	{
            diffuseColor 0.43137254901960786 0.35294117647058826 0.37254901960784315
            specularColor 0.3803921568627451 0.30980392156862746 0.32941176470588235
            ambientIntensity 0.3786
            transparency 0.0
            shininess 0.5
        }
    }
    geometry IndexedFaceSet {
        ccw TRUE
        solid FALSE
        coord DEF co Coordinate {
            point [
                0.3937 -0.689 2.1265, 0.5315 -0.689 2.1265, 0.3937 -0.689 3.032, 0.5315 -0.689 3.032, 0.5708 -0.6496 2.1265, 0.5708 0.6496 2.1265, 0.5708 -0.6496 3.032, 0.5708 0.6496 3.032, -0.5315 0.689 3.032, 0.5315 0.689 3.032, -0.5315 0.689 2.1265, 0.5315 0.689 2.1265, -0.5709 -0.6496 3.032, -0.5709 0.6496 3.032, -0.5709 -0.6496 2.1265, -0.5709 0.6496 2.1265, -0.3937 -0.689 3.032, -0.5315 -0.689 3.032, -0.3937 -0.689 2.1265, -0.5315 -0.689 2.1265, 0.3937 -0.6102 3.032, -0.3937 -0.6102 3.032, -0.5656 -0.6693 3.032, -0.5594 -0.6775 3.032, -0.5512 -0.6837 3.032, -0.5696 -0.6598 3.032, -0.5417 -0.6876 3.032, 0.5695 0.6598 3.032, 0.5656 0.6693 3.032, 0.5593 0.6774 3.032, 0.5512 0.6837 3.032, 0.5417 0.6876 3.032, -0.5417 0.6876 3.032, 0.5656 -0.6693 3.032, 0.5695 -0.6598 3.032, 0.5593 -0.6775 3.032, 0.5512 -0.6837 3.032, -0.5512 0.6837 3.032, -0.5594 0.6774 3.032, -0.5656 0.6693 3.032, -0.5696 0.6598 3.032, 0.5417 -0.6876 3.032, 0.3937 -0.6102 2.1265, -0.3937 -0.6102 2.1265, 0.5512 -0.6837 2.1265, 0.5593 -0.6775 2.1265, 0.5695 -0.6598 2.1265, 0.5656 -0.6693 2.1265, -0.5696 -0.6598 2.1265, -0.5696 0.6598 2.1265, -0.5512 -0.6837 2.1265, -0.5594 -0.6775 2.1265, -0.5656 -0.6693 2.1265, 0.5417 -0.6876 2.1265, -0.5656 0.6693 2.1265, -0.5594 0.6774 2.1265, -0.5512 0.6837 2.1265, -0.5417 0.6876 2.1265, 0.5695 0.6598 2.1265, 0.5417 0.6876 2.1265, 0.5512 0.6837 2.1265, 0.5656 0.6693 2.1265, 0.5593 0.6774 2.1265, -0.5417 -0.6876 2.1265, -1.1024 -1.1811 1.6935, 1.1023 -1.1811 1.6935, -1.1024 -1.1811 2.0872, 1.1023 -1.1811 2.0872, 1.1417 -1.1417 1.6935, 1.1417 1.1417 1.6935, 1.1417 -1.1417 2.0872, 1.1417 1.1417 2.0872, 1.1023 1.1811 1.6935, -1.1024 1.1811 1.6935, 1.1023 1.1811 2.0872, -1.1024 1.1811 2.0872, -1.1418 -1.1417 2.0872, -1.1418 1.1417 2.0872, -1.1418 -1.1417 1.6935, -1.1418 1.1417 1.6935, -1.1024 -1.1417 2.1265, 1.1023 -1.1417 2.1265, -1.1024 1.1417 2.1265, 1.1023 1.1417 2.1265, -1.1365 -1.1614 1.6935, -1.1302 -1.1696 1.6935, -1.1126 -1.1798 1.6935, -1.1221 -1.1758 1.6935, 1.1364 1.1614 1.6935, 1.1302 1.1696 1.6935, 1.1125 1.1798 1.6935, 1.122 1.1758 1.6935, -1.1221 1.1758 1.6935, -1.1302 1.1696 1.6935, -1.1404 1.1519 1.6935, -1.1365 1.1614 1.6935, 1.1404 1.1519 1.6935, -1.1404 -1.1519 1.6935, -1.1126 1.1798 1.6935, 1.1364 -1.1614 1.6935, 1.1302 -1.1696 1.6935, 1.1404 -1.1519 1.6935, 1.122 -1.1758 1.6935, 1.1125 -1.1798 1.6935, 1.1404 1.1519 2.0872, 1.1364 1.1614 2.0872, 1.1302 1.1696 2.0872, 1.122 1.1758 2.0872, 1.1125 1.1798 2.0872, 1.1023 1.1798 2.0973, 1.1122 1.1785 2.0973, 1.1122 1.1588 2.1213, 1.1074 1.1505 2.1252, 1.1095 1.1489 2.1252, 1.1125 1.1417 2.1252, 1.1122 1.1444 2.1252, 1.105 1.1516 2.1252, 1.1074 1.1607 2.1213, 1.1095 1.1686 2.115, 1.1023 1.1519 2.1252, 1.1163 1.1556 2.1213, 1.1112 1.1468 2.1252, 1.1194 1.1516 2.1213, 1.1213 1.1468 2.1213, 1.122 1.1417 2.1213, 1.1023 1.1614 2.1213, 1.1023 1.1696 2.115, 1.1023 1.1758 2.1068, 1.1163 1.1658 2.115, 1.122 1.1614 2.115, 1.1264 1.1556 2.115, 1.1292 1.1489 2.115, 1.1302 1.1417 2.115, 1.1112 1.1747 2.1068, 1.1194 1.1712 2.1068, 1.1264 1.1658 2.1068, 1.1319 1.1588 2.1068, 1.1353 1.1505 2.1068, 1.1364 1.1417 2.1068, 1.1213 1.1747 2.0973, 1.1292 1.1686 2.0973, 1.1353 1.1607 2.0973, 1.1391 1.1516 2.0973, 1.1404 1.1417 2.0973, -1.1126 1.1798 2.0872, -1.1221 1.1758 2.0872, -1.1302 1.1696 2.0872, -1.1365 1.1614 2.0872, -1.1404 1.1519 2.0872, -1.1024 1.1519 2.1252, -1.1024 1.1614 2.1213, -1.1024 1.1696 2.115, -1.1024 1.1758 2.1068, -1.1024 1.1798 2.0973, 1.1125 -1.1417 2.1252, 1.122 -1.1417 2.1213, 1.1302 -1.1417 2.115, 1.1364 -1.1417 2.1068, 1.1404 -1.1417 2.0973, 1.1125 -1.1798 2.0872, 1.122 -1.1758 2.0872, 1.1302 -1.1696 2.0872, 1.1364 -1.1614 2.0872, 1.1404 -1.1519 2.0872, -1.1404 1.1417 2.0973, -1.1391 1.1516 2.0973, -1.1194 1.1516 2.1213, -1.1112 1.1468 2.1252, -1.1096 1.1489 2.1252, -1.105 1.1516 2.1252, -1.1122 1.1444 2.1252, -1.1214 1.1468 2.1213, -1.1293 1.1489 2.115, -1.1126 1.1417 2.1252, -1.1163 1.1556 2.1213, -1.1075 1.1505 2.1252, -1.1122 1.1588 2.1213, -1.1075 1.1607 2.1213, -1.1221 1.1417 2.1213, -1.1302 1.1417 2.115, -1.1365 1.1417 2.1068, -1.1265 1.1556 2.115, -1.1221 1.1614 2.115, -1.1163 1.1658 2.115, -1.1096 1.1686 2.115, -1.1353 1.1505 2.1068, -1.1319 1.1588 2.1068, -1.1265 1.1658 2.1068, -1.1194 1.1712 2.1068, -1.1112 1.1747 2.1068, -1.1353 1.1607 2.0973, -1.1293 1.1686 2.0973, -1.1214 1.1747 2.0973, -1.1122 1.1785 2.0973, 1.1391 -1.1516 2.0973, 1.1194 -1.1516 2.1213, 1.1112 -1.1468 2.1252, 1.1095 -1.1489 2.1252, 1.1023 -1.1519 2.1252, 1.105 -1.1516 2.1252, 1.1122 -1.1444 2.1252, 1.1213 -1.1468 2.1213, 1.1292 -1.1489 2.115, 1.1163 -1.1557 2.1213, 1.1074 -1.1506 2.1252, 1.1122 -1.1588 2.1213, 1.1074 -1.1608 2.1213, 1.1023 -1.1614 2.1213, 1.1264 -1.1557 2.115, 1.122 -1.1614 2.115, 1.1163 -1.1659 2.115, 1.1095 -1.1686 2.115, 1.1023 -1.1696 2.115, 1.1353 -1.1506 2.1068, 1.1319 -1.1588 2.1068, 1.1264 -1.1659 2.1068, 1.1194 -1.1713 2.1068, 1.1112 -1.1747 2.1068, 1.1023 -1.1758 2.1068, 1.1353 -1.1608 2.0973, 1.1292 -1.1686 2.0973, 1.1213 -1.1747 2.0973, 1.1122 -1.1785 2.0973, 1.1023 -1.1798 2.0973, -1.1126 -1.1417 2.1252, -1.1221 -1.1417 2.1213, -1.1302 -1.1417 2.115, -1.1365 -1.1417 2.1068, -1.1404 -1.1417 2.0973, -1.1024 -1.1519 2.1252, -1.1024 -1.1614 2.1213, -1.1024 -1.1696 2.115, -1.1024 -1.1758 2.1068, -1.1024 -1.1798 2.0973, -1.1122 -1.1785 2.0973, -1.1122 -1.1588 2.1213, -1.1075 -1.1506 2.1252, -1.1096 -1.1489 2.1252, -1.1122 -1.1444 2.1252, -1.105 -1.1516 2.1252, -1.1075 -1.1608 2.1213, -1.1096 -1.1686 2.115, -1.1163 -1.1557 2.1213, -1.1112 -1.1468 2.1252, -1.1194 -1.1516 2.1213, -1.1214 -1.1468 2.1213, -1.1163 -1.1659 2.115, -1.1221 -1.1614 2.115, -1.1265 -1.1557 2.115, -1.1293 -1.1489 2.115, -1.1112 -1.1747 2.1068, -1.1194 -1.1713 2.1068, -1.1265 -1.1659 2.1068, -1.1319 -1.1588 2.1068, -1.1353 -1.1506 2.1068, -1.1214 -1.1747 2.0973, -1.1293 -1.1686 2.0973, -1.1353 -1.1608 2.0973, -1.1391 -1.1516 2.0973, -1.1126 -1.1798 2.0872, -1.1221 -1.1758 2.0872, -1.1302 -1.1696 2.0872, -1.1365 -1.1614 2.0872, -1.1404 -1.1519 2.0872
            ]
        }
        coordIndex [
            0,1,2,-1,2,1,3,-1,4,5,6,-1,6,5,7,-1,8,9,10,-1,10,9,11,-1,12,13,14,-1,14,13,15,-1,16,17,18,-1,18,17,19,-1,20,2,3,-1,16,21,17,-1,17,21,12,-1,22,23,24,-1,12,25,17,-1,17,25,22,-1,17,22,26,-1,26,22,24,-1,27,28,20,-1,20,28,29,-1,20,29,30,-1,30,31,20,-1,20,31,9,-1,20,9,21,-1,21,9,8,-1,21,8,32,-1,33,34,35,-1,35,34,6,-1,35,6,36,-1,32,37,21,-1,21,37,38,-1,21,38,39,-1,39,40,21,-1,21,40,13,-1,21,13,12,-1,27,20,7,-1,7,20,3,-1,7,3,6,-1,6,3,41,-1,6,41,36,-1,1,0,42,-1,43,18,19,-1,44,4,45,-1,45,4,46,-1,45,46,47,-1,48,14,19,-1,19,14,15,-1,19,15,43,-1,43,15,49,-1,50,51,52,-1,42,5,1,-1,1,5,4,-1,1,4,53,-1,53,4,44,-1,49,54,43,-1,43,54,55,-1,43,55,56,-1,56,57,43,-1,43,57,10,-1,43,10,42,-1,42,10,11,-1,42,11,5,-1,5,11,58,-1,11,59,58,-1,58,59,60,-1,58,60,61,-1,61,60,62,-1,48,19,52,-1,52,19,63,-1,52,63,50,-1,12,14,48,-1,12,48,25,-1,25,48,52,-1,25,52,22,-1,22,52,51,-1,22,51,23,-1,23,51,50,-1,23,50,24,-1,24,50,63,-1,24,63,26,-1,26,63,19,-1,26,19,17,-1,8,10,57,-1,8,57,32,-1,32,57,56,-1,32,56,37,-1,37,56,55,-1,37,55,38,-1,38,55,54,-1,38,54,39,-1,39,54,49,-1,39,49,40,-1,40,49,15,-1,40,15,13,-1,3,1,53,-1,3,53,41,-1,41,53,44,-1,41,44,36,-1,36,44,45,-1,36,45,35,-1,35,45,47,-1,35,47,33,-1,33,47,46,-1,33,46,34,-1,34,46,4,-1,34,4,6,-1,7,5,58,-1,7,58,27,-1,27,58,61,-1,27,61,28,-1,28,61,62,-1,28,62,29,-1,29,62,60,-1,29,60,30,-1,30,60,59,-1,30,59,31,-1,31,59,11,-1,31,11,9,-1,42,0,20,-1,20,0,2,-1,18,43,16,-1,16,43,21,-1,43,42,21,-1,21,42,20,-1,64,65,66,-1,66,65,67,-1,68,69,70,-1,70,69,71,-1,72,73,74,-1,74,73,75,-1,76,77,78,-1,78,77,79,-1,80,81,82,-1,82,81,83,-1,64,73,65,-1,65,73,72,-1,84,64,85,-1,85,64,86,-1,85,86,87,-1,88,72,89,-1,89,72,90,-1,89,90,91,-1,92,79,93,-1,93,79,94,-1,93,94,95,-1,68,65,69,-1,69,65,72,-1,69,72,96,-1,96,72,88,-1,84,97,64,-1,64,97,78,-1,64,78,73,-1,73,78,79,-1,73,79,98,-1,98,79,92,-1,99,100,101,-1,101,100,102,-1,101,102,68,-1,68,102,103,-1,68,103,65,-1,71,69,96,-1,71,96,104,-1,104,96,88,-1,104,88,105,-1,105,88,89,-1,105,89,106,-1,106,89,91,-1,106,91,107,-1,107,91,90,-1,107,90,108,-1,108,90,72,-1,108,72,74,-1,74,109,110,-1,111,112,113,-1,83,114,115,-1,113,112,83,-1,116,83,112,-1,116,112,117,-1,117,112,111,-1,117,111,118,-1,119,83,116,-1,120,121,122,-1,122,121,115,-1,122,115,123,-1,123,115,114,-1,123,114,124,-1,119,116,125,-1,125,116,117,-1,125,117,126,-1,126,117,118,-1,126,118,127,-1,128,120,129,-1,129,120,122,-1,129,122,130,-1,130,122,123,-1,130,123,131,-1,131,123,124,-1,131,124,132,-1,133,128,134,-1,134,128,129,-1,134,129,135,-1,135,129,130,-1,135,130,136,-1,136,130,131,-1,136,131,137,-1,137,131,132,-1,137,132,138,-1,109,133,110,-1,110,133,134,-1,110,134,139,-1,139,134,135,-1,139,135,140,-1,140,135,136,-1,140,136,141,-1,141,136,137,-1,141,137,142,-1,142,137,138,-1,142,138,143,-1,74,110,108,-1,108,110,139,-1,108,139,107,-1,107,139,140,-1,107,140,106,-1,106,140,141,-1,106,141,105,-1,105,141,142,-1,105,142,104,-1,104,142,143,-1,104,143,71,-1,121,83,115,-1,109,127,133,-1,133,127,118,-1,133,118,128,-1,128,118,111,-1,128,111,120,-1,120,111,113,-1,120,113,121,-1,121,113,83,-1,75,73,98,-1,75,98,144,-1,144,98,92,-1,144,92,145,-1,145,92,93,-1,145,93,146,-1,146,93,95,-1,146,95,147,-1,147,95,94,-1,147,94,148,-1,148,94,79,-1,148,79,77,-1,82,83,119,-1,82,119,149,-1,149,119,125,-1,149,125,150,-1,150,125,126,-1,150,126,151,-1,151,126,127,-1,151,127,152,-1,152,127,109,-1,152,109,153,-1,153,109,74,-1,153,74,75,-1,83,81,154,-1,83,154,114,-1,114,154,155,-1,114,155,124,-1,124,155,156,-1,124,156,132,-1,132,156,157,-1,132,157,138,-1,138,157,158,-1,138,158,143,-1,143,158,70,-1,143,70,71,-1,67,65,103,-1,67,103,159,-1,159,103,102,-1,159,102,160,-1,160,102,100,-1,160,100,161,-1,161,100,99,-1,161,99,162,-1,162,99,101,-1,162,101,163,-1,163,101,68,-1,163,68,70,-1,77,164,165,-1,166,167,168,-1,82,149,169,-1,168,167,82,-1,170,82,167,-1,170,167,171,-1,171,167,166,-1,171,166,172,-1,173,82,170,-1,174,175,176,-1,176,175,169,-1,176,169,177,-1,177,169,149,-1,177,149,150,-1,173,170,178,-1,178,170,171,-1,178,171,179,-1,179,171,172,-1,179,172,180,-1,181,174,182,-1,182,174,176,-1,182,176,183,-1,183,176,177,-1,183,177,184,-1,184,177,150,-1,184,150,151,-1,185,181,186,-1,186,181,182,-1,186,182,187,-1,187,182,183,-1,187,183,188,-1,188,183,184,-1,188,184,189,-1,189,184,151,-1,189,151,152,-1,164,185,165,-1,165,185,186,-1,165,186,190,-1,190,186,187,-1,190,187,191,-1,191,187,188,-1,191,188,192,-1,192,188,189,-1,192,189,193,-1,193,189,152,-1,193,152,153,-1,77,165,148,-1,148,165,190,-1,148,190,147,-1,147,190,191,-1,147,191,146,-1,146,191,192,-1,146,192,145,-1,145,192,193,-1,145,193,144,-1,144,193,153,-1,144,153,75,-1,175,82,169,-1,164,180,185,-1,185,180,172,-1,185,172,181,-1,181,172,166,-1,181,166,174,-1,174,166,168,-1,174,168,175,-1,175,168,82,-1,70,158,194,-1,195,196,197,-1,81,198,199,-1,197,196,81,-1,200,81,196,-1,200,196,201,-1,201,196,195,-1,201,195,202,-1,154,81,200,-1,203,204,205,-1,205,204,199,-1,205,199,206,-1,206,199,198,-1,206,198,207,-1,154,200,155,-1,155,200,201,-1,155,201,156,-1,156,201,202,-1,156,202,157,-1,208,203,209,-1,209,203,205,-1,209,205,210,-1,210,205,206,-1,210,206,211,-1,211,206,207,-1,211,207,212,-1,213,208,214,-1,214,208,209,-1,214,209,215,-1,215,209,210,-1,215,210,216,-1,216,210,211,-1,216,211,217,-1,217,211,212,-1,217,212,218,-1,158,213,194,-1,194,213,214,-1,194,214,219,-1,219,214,215,-1,219,215,220,-1,220,215,216,-1,220,216,221,-1,221,216,217,-1,221,217,222,-1,222,217,218,-1,222,218,223,-1,70,194,163,-1,163,194,219,-1,163,219,162,-1,162,219,220,-1,162,220,161,-1,161,220,221,-1,161,221,160,-1,160,221,222,-1,160,222,159,-1,159,222,223,-1,159,223,67,-1,204,81,199,-1,158,157,213,-1,213,157,202,-1,213,202,208,-1,208,202,195,-1,208,195,203,-1,203,195,197,-1,203,197,204,-1,204,197,81,-1,80,82,173,-1,80,173,224,-1,224,173,178,-1,224,178,225,-1,225,178,179,-1,225,179,226,-1,226,179,180,-1,226,180,227,-1,227,180,164,-1,227,164,228,-1,228,164,77,-1,228,77,76,-1,81,80,229,-1,81,229,198,-1,198,229,230,-1,198,230,207,-1,207,230,231,-1,207,231,212,-1,212,231,232,-1,212,232,218,-1,218,232,233,-1,218,233,223,-1,223,233,66,-1,223,66,67,-1,66,233,234,-1,235,236,237,-1,80,224,238,-1,237,236,80,-1,239,80,236,-1,239,236,240,-1,240,236,235,-1,240,235,241,-1,229,80,239,-1,242,243,244,-1,244,243,238,-1,244,238,245,-1,245,238,224,-1,245,224,225,-1,229,239,230,-1,230,239,240,-1,230,240,231,-1,231,240,241,-1,231,241,232,-1,246,242,247,-1,247,242,244,-1,247,244,248,-1,248,244,245,-1,248,245,249,-1,249,245,225,-1,249,225,226,-1,250,246,251,-1,251,246,247,-1,251,247,252,-1,252,247,248,-1,252,248,253,-1,253,248,249,-1,253,249,254,-1,254,249,226,-1,254,226,227,-1,233,250,234,-1,234,250,251,-1,234,251,255,-1,255,251,252,-1,255,252,256,-1,256,252,253,-1,256,253,257,-1,257,253,254,-1,257,254,258,-1,258,254,227,-1,258,227,228,-1,66,234,259,-1,259,234,255,-1,259,255,260,-1,260,255,256,-1,260,256,261,-1,261,256,257,-1,261,257,262,-1,262,257,258,-1,262,258,263,-1,263,258,228,-1,263,228,76,-1,243,80,238,-1,233,232,250,-1,250,232,241,-1,250,241,246,-1,246,241,235,-1,246,235,242,-1,242,235,237,-1,242,237,243,-1,243,237,80,-1,76,78,97,-1,76,97,263,-1,263,97,84,-1,263,84,262,-1,262,84,85,-1,262,85,261,-1,261,85,87,-1,261,87,260,-1,260,87,86,-1,260,86,259,-1,259,86,64,-1,259,64,66,-1,
        ]
    }
}