#VRML V2.0 utf8
# 3D model generated by easyeda2kicad.py (https://github.com/uPesy/easyeda2kicad.py)

Shape{
    appearance Appearance {
        material  Material 	{
            diffuseColor 0.14901960784313725 0.14901960784313725 0.14901960784313725
            specularColor 0.07450980392156863 0.07450980392156863 0.07450980392156863
            ambientIntensity 0.149
            transparency 0.0
            shininess 0.5
        }
    }
    geometry IndexedFaceSet {
        ccw TRUE
        solid FALSE
        coord DEF co Coordinate {
            point [
                6.126 0.626 0.1969, 5.874 0.626 0.1969, 5.5 0.7067 0.1969, 4.874 0.626 0.1969, 4.5 0.7067 0.1969, 3.874 0.626 0.1969, 3.5 0.7067 0.1969, 2.874 0.626 0.1969, 2.5 0.7067 0.1969, -0.0252 0.0 0.1969, -0.0252 0.1969 0.1969, 0.5 0.1994 0.1969, -0.5 0.7087 0.1969, -0.4325 0.7874 0.1969, -0.3533 0.7874 0.1969, -0.8025 0.1969 0.1969, -0.7903 0.1994 0.1969, -0.8 0.1969 0.1969, -0.7903 0.1764 0.1969, -0.7259 0.0 0.1969, -0.7066 0.0 0.1969, -0.694 -0.1895 0.1969, -0.7903 -0.1895 0.1969, -0.7903 0.0631 0.1969, -0.7559 0.0631 0.1969, -0.3533 0.7067 0.1969, -0.694 0.7067 0.1969, -0.5675 0.7874 0.1969, -2.4325 0.7874 0.1969, -1.5675 0.7874 0.1969, -2.5 0.7087 0.1969, -1.5 0.7087 0.1969, -3.4325 0.7874 0.1969, -2.5675 0.7874 0.1969, -3.5 0.7087 0.1969, -4.4325 0.7874 0.1969, -3.5675 0.7874 0.1969, -4.5 0.7087 0.1969, -4.5 0.7067 0.1969, -5.5 0.7067 0.1969, -5.5 0.7087 0.1969, -6.313 0.7067 0.1969, -5.5675 0.7874 0.1969, -6.5 0.7067 0.1969, -6.5 0.7087 0.1969, -6.313 0.7874 0.1969, -6.4325 0.7874 0.1969, -6.5 -0.1895 0.1969, -6.313 -0.1895 0.1969, -6.5 -0.7087 0.1969, -6.313 -0.7874 0.1969, -6.4325 -0.7874 0.1969, -5.5 -0.1895 0.1969, -5.874 -0.374 0.1969, -5.5 -0.7087 0.1969, -5.874 -0.626 0.1969, -5.5675 -0.7874 0.1969, -6.126 -0.626 0.1969, -6.126 -0.374 0.1969, -4.874 -0.374 0.1969, -4.5 -0.7087 0.1969, -4.874 -0.626 0.1969, -4.5675 -0.7874 0.1969, -5.126 -0.626 0.1969, -3.874 -0.374 0.1969, -4.126 -0.374 0.1969, -4.5 -0.1895 0.1969, -5.4325 -0.7874 0.1969, -5.126 -0.374 0.1969, -4.126 -0.626 0.1969, -3.5 -0.1895 0.1969, -3.5 -0.7087 0.1969, -3.874 -0.626 0.1969, -3.5675 -0.7874 0.1969, -4.4325 -0.7874 0.1969, -2.874 -0.374 0.1969, -2.5 -0.7087 0.1969, -2.874 -0.626 0.1969, -2.5675 -0.7874 0.1969, -3.126 -0.626 0.1969, -1.874 -0.374 0.1969, -2.126 -0.374 0.1969, -2.5 -0.1895 0.1969, -3.4325 -0.7874 0.1969, -3.126 -0.374 0.1969, -2.126 -0.626 0.1969, -1.5 -0.1895 0.1969, -1.5 -0.7087 0.1969, -1.874 -0.626 0.1969, -1.5675 -0.7874 0.1969, -2.4325 -0.7874 0.1969, -0.7903 -0.7874 0.1969, -1.4325 -0.7874 0.1969, -1.126 -0.626 0.1969, -1.126 -0.374 0.1969, -0.874 -0.374 0.1969, -0.874 -0.626 0.1969, 1.126 -0.374 0.1969, 1.5 -0.7087 0.1969, 1.126 -0.626 0.1969, 1.4325 -0.7874 0.1969, 0.874 -0.626 0.1969, 2.126 -0.374 0.1969, 1.874 -0.374 0.1969, 1.5 -0.1895 0.1969, 0.5675 -0.7874 0.1969, 0.5 -0.7087 0.1969, 0.874 -0.374 0.1969, 0.5 -0.1895 0.1969, 1.874 -0.626 0.1969, 2.5 -0.1895 0.1969, 2.5 -0.7087 0.1969, 2.126 -0.626 0.1969, 2.4325 -0.7874 0.1969, 1.5675 -0.7874 0.1969, 3.126 -0.374 0.1969, 3.5 -0.7087 0.1969, 3.126 -0.626 0.1969, 3.4325 -0.7874 0.1969, 2.874 -0.626 0.1969, 4.126 -0.374 0.1969, 3.874 -0.374 0.1969, 3.5 -0.1895 0.1969, 2.5675 -0.7874 0.1969, 2.874 -0.374 0.1969, 3.874 -0.626 0.1969, 4.5 -0.1895 0.1969, 4.5 -0.7087 0.1969, 4.126 -0.626 0.1969, 4.4325 -0.7874 0.1969, 3.5675 -0.7874 0.1969, 5.126 -0.374 0.1969, 5.5 -0.7087 0.1969, 5.126 -0.626 0.1969, 5.4325 -0.7874 0.1969, 4.874 -0.626 0.1969, 6.126 -0.374 0.1969, 5.874 -0.374 0.1969, 5.5 -0.1895 0.1969, 4.5675 -0.7874 0.1969, 4.874 -0.374 0.1969, 5.874 -0.626 0.1969, 6.5 -0.1895 0.1969, 6.5 -0.7087 0.1969, 6.126 -0.626 0.1969, 6.4325 -0.7874 0.1969, 5.5675 -0.7874 0.1969, 5.5675 0.7874 0.1969, 6.4325 0.7874 0.1969, 5.5 0.7087 0.1969, 6.5 0.7087 0.1969, 6.5 0.7067 0.1969, 4.5675 0.7874 0.1969, 5.4325 0.7874 0.1969, 4.5 0.7087 0.1969, 3.5675 0.7874 0.1969, 4.4325 0.7874 0.1969, 3.5 0.7087 0.1969, 2.5675 0.7874 0.1969, 3.4325 0.7874 0.1969, 2.5 0.7087 0.1969, 1.5675 0.7874 0.1969, 2.4325 0.7874 0.1969, 1.5 0.7087 0.1969, 0.5675 0.7874 0.1969, 1.4325 0.7874 0.1969, 0.5 0.7087 0.1969, -0.126 -0.374 0.1969, -0.1337 -0.1895 0.1969, -0.1223 -0.374 0.1969, -0.1223 -0.1895 0.1969, 0.126 -0.374 0.1969, 0.126 -0.626 0.1969, 0.4325 -0.7874 0.1969, -0.1223 -0.626 0.1969, -0.1223 -0.7874 0.1969, -0.126 -0.626 0.1969, -0.1337 -0.7874 0.1969, -0.1337 0.7067 0.1969, -0.126 0.626 0.1969, -0.126 0.374 0.1969, -0.1223 0.374 0.1969, -0.1223 0.1994 0.1969, -0.1337 0.1994 0.1969, -0.1223 0.626 0.1969, -0.1223 0.7067 0.1969, 0.126 0.626 0.1969, 0.5 0.7067 0.1969, 0.126 0.374 0.1969, -0.3533 0.1994 0.1969, -0.2692 0.1994 0.1969, -0.2759 0.1986 0.1969, -0.2938 0.1924 0.1969, -0.3153 0.1794 0.1969, -0.3273 0.168 0.1969, -0.1866 0.1847 0.1969, -0.2075 0.1953 0.1969, -0.2248 0.1994 0.1969, -0.2315 0.201 0.1969, -0.2472 0.2019 0.1969, -0.1594 0.1075 0.1969, -0.159 0.0982 0.1969, -0.2461 0.1817 0.1969, -0.3177 0.048 0.1969, -0.3331 0.0362 0.1969, -0.3331 0.1607 0.1969, -0.3533 -0.1895 0.1969, -0.3158 0.018 0.1969, -0.2954 0.0052 0.1969, -0.1637 0.1266 0.1969, -0.2168 -0.0015 0.1969, -0.1932 0.0075 0.1969, -0.1742 0.0212 0.1969, -0.1663 0.0294 0.1969, -0.1784 0.0448 0.1969, -0.1926 0.0318 0.1969, -0.1446 0.1265 0.1969, -0.1526 0.1473 0.1969, -0.1661 0.1667 0.1969, -0.3177 0.1489 0.1969, -0.3019 0.1642 0.1969, -0.3068 0.037 0.1969, -0.2834 0.1746 0.1969, -0.2894 0.025 0.1969, -0.2704 0.0179 0.1969, -0.2229 0.1788 0.1969, -0.2028 0.1711 0.1969, -0.1616 0.0765 0.1969, -0.1678 0.0602 0.1969, -0.2747 0.1777 0.1969, -0.253 0.1815 0.1969, -0.2317 0.0162 0.1969, -0.2117 0.0214 0.1969, -0.152 0.051 0.1969, -0.1441 0.0736 0.1969, -0.1413 0.0996 0.1969, -0.2474 0.0151 0.1969, -0.1847 0.1583 0.1969, -0.1724 0.1441 0.1969, -0.273 -0.0024 0.1969, -0.2573 -0.0047 0.1969, -0.2475 -0.005 0.1969, -6.5 0.1994 0.1969, -6.313 0.1994 0.1969, -5.874 0.626 0.1969, -5.874 0.374 0.1969, -5.5 0.1994 0.1969, -6.126 0.374 0.1969, -6.126 0.626 0.1969, -4.874 0.626 0.1969, -4.874 0.374 0.1969, -4.5 0.1994 0.1969, -5.126 0.374 0.1969, -5.126 0.626 0.1969, -3.874 0.626 0.1969, -3.5 0.7067 0.1969, -3.874 0.374 0.1969, -3.5 0.1994 0.1969, -4.126 0.374 0.1969, -4.126 0.626 0.1969, -2.874 0.626 0.1969, -2.5 0.7067 0.1969, -2.874 0.374 0.1969, -2.5 0.1994 0.1969, -3.126 0.374 0.1969, -3.126 0.626 0.1969, -1.5 0.1994 0.1969, -1.874 0.374 0.1969, -2.126 0.374 0.1969, -2.126 0.626 0.1969, -1.874 0.626 0.1969, -1.5 0.7067 0.1969, -1.126 0.626 0.1969, -1.126 0.374 0.1969, -0.8451 0.0631 0.1969, -0.8742 0.0 0.1969, -0.8934 0.0 0.1969, -0.874 0.374 0.1969, -5.4325 0.7874 0.1969, -4.5675 0.7874 0.1969, -0.7903 0.7067 0.1969, -0.874 0.626 0.1969, -0.694 -0.7874 0.1969, -0.694 0.7874 0.1969, -0.7903 0.7874 0.1969, -1.4325 0.7874 0.1969, -0.5912 0.1956 0.1969, -0.6221 0.1898 0.1969, -0.694 0.1994 0.1969, -0.5199 0.1969 0.1969, -0.5596 0.1969 0.1969, -0.6786 0.0696 0.1969, -0.6709 0.0477 0.1969, -0.6575 0.0274 0.1969, -0.6428 0.0144 0.1969, -0.3912 0.1767 0.1969, -0.3912 0.1161 0.1969, -0.4846 0.1767 0.1969, -0.4846 0.1161 0.1969, -0.628 0.0068 0.1969, -0.604 0.0013 0.1969, -0.5809 0.0 0.1969, -0.4846 0.1969 0.1969, -0.5199 0.0 0.1969, -0.4846 0.0959 0.1969, -0.642 0.1797 0.1969, -0.6564 0.1672 0.1969, -0.6689 0.1494 0.1969, -0.5675 -0.7874 0.1969, -0.5 -0.7087 0.1969, -0.3912 0.0959 0.1969, -0.3912 0.0202 0.1969, -0.4846 0.0202 0.1969, -0.4846 0.0 0.1969, -0.3735 0.0 0.1969, -0.3735 0.1969 0.1969, -0.6772 0.1289 0.1969, -0.6811 0.1051 0.1969, -0.6814 0.0959 0.1969, -0.3533 -0.7874 0.1969, -0.4325 -0.7874 0.1969, -0.1337 0.7874 0.1969, -0.1223 0.7874 0.1969, -0.0429 0.1969 0.1969, -0.0429 0.0202 0.1969, -0.1186 0.0202 0.1969, -0.1186 0.0 0.1969, 1.126 0.626 0.1969, 1.5 0.7067 0.1969, 1.126 0.374 0.1969, 1.5 0.1994 0.1969, 0.874 0.374 0.1969, 0.874 0.626 0.1969, 2.126 0.626 0.1969, 2.126 0.374 0.1969, 2.5 0.1994 0.1969, 1.874 0.374 0.1969, 1.874 0.626 0.1969, 2.874 0.374 0.1969, 3.5 0.1994 0.1969, 3.126 0.374 0.1969, 3.126 0.626 0.1969, 3.874 0.374 0.1969, 4.5 0.1994 0.1969, 4.126 0.374 0.1969, 4.126 0.626 0.1969, 4.874 0.374 0.1969, 5.5 0.1994 0.1969, 5.126 0.374 0.1969, 5.126 0.626 0.1969, 6.5 0.1994 0.1969, 5.874 0.374 0.1969, 6.126 0.374 0.1969, 0.4325 0.7874 0.1969, -6.313 -0.9268 1.0, -6.313 -0.8051 1.0, -6.4173 -0.8051 1.0, 0.874 0.626 1.0, 1.126 0.626 1.0, 1.2638 0.9843 1.0, 0.7362 0.9843 1.0, 0.5 0.7087 1.0, 0.874 0.374 1.0, 0.5 -0.0 1.0, 1.126 0.374 1.0, 1.5 -0.0 1.0, 1.5 0.7087 1.0, 1.874 0.626 1.0, 2.126 0.626 1.0, 2.2638 0.9843 1.0, 1.7362 0.9843 1.0, 1.874 0.374 1.0, 2.126 0.374 1.0, 2.5 -0.0 1.0, 2.5 0.7087 1.0, 2.874 0.626 1.0, 3.126 0.626 1.0, 3.2638 0.9843 1.0, 2.7362 0.9843 1.0, 2.874 0.374 1.0, 3.126 0.374 1.0, 3.5 -0.0 1.0, 3.5 0.7087 1.0, 3.874 0.626 1.0, 4.126 0.626 1.0, 4.2638 0.9843 1.0, 3.7362 0.9843 1.0, 3.874 0.374 1.0, 4.126 0.374 1.0, 4.5 -0.0 1.0, 4.5 0.7087 1.0, 4.874 0.626 1.0, 5.126 0.626 1.0, 5.2638 0.9843 1.0, 4.7362 0.9843 1.0, 4.874 0.374 1.0, 5.126 0.374 1.0, 5.5 -0.0 1.0, 5.5 0.7087 1.0, 5.874 0.626 1.0, 6.126 0.626 1.0, 6.2638 0.9843 1.0, 5.7362 0.9843 1.0, 5.874 0.374 1.0, 6.126 0.374 1.0, 6.5 -0.0 1.0, 6.5 0.7087 1.0, 6.126 -0.626 1.0, 5.874 -0.626 1.0, 5.5827 -0.8051 1.0, 6.4173 -0.8051 1.0, 6.5 -0.7087 1.0, 6.126 -0.374 1.0, 5.874 -0.374 1.0, 5.5 -0.7087 1.0, 5.7362 -0.9843 1.0, 6.2638 -0.9843 1.0, 5.126 -0.626 1.0, 4.874 -0.626 1.0, 4.5827 -0.8051 1.0, 5.4173 -0.8051 1.0, 5.126 -0.374 1.0, 4.874 -0.374 1.0, 4.5 -0.7087 1.0, 4.7362 -0.9843 1.0, 5.2638 -0.9843 1.0, 4.126 -0.626 1.0, 3.874 -0.626 1.0, 3.5827 -0.8051 1.0, 4.4173 -0.8051 1.0, 4.126 -0.374 1.0, 3.874 -0.374 1.0, 3.5 -0.7087 1.0, 3.7362 -0.9843 1.0, 4.2638 -0.9843 1.0, 3.126 -0.626 1.0, 2.874 -0.626 1.0, 2.5827 -0.8051 1.0, 3.4173 -0.8051 1.0, 3.126 -0.374 1.0, 2.874 -0.374 1.0, 2.5 -0.7087 1.0, 2.7362 -0.9843 1.0, 3.2638 -0.9843 1.0, 2.126 -0.626 1.0, 1.874 -0.626 1.0, 1.5827 -0.8051 1.0, 2.4173 -0.8051 1.0, 2.126 -0.374 1.0, 1.874 -0.374 1.0, 1.5 -0.7087 1.0, 1.7362 -0.9843 1.0, 2.2638 -0.9843 1.0, 1.126 -0.626 1.0, 0.874 -0.626 1.0, 0.5827 -0.8051 1.0, 1.4173 -0.8051 1.0, 1.126 -0.374 1.0, 0.874 -0.374 1.0, 0.5 -0.7087 1.0, 0.7362 -0.9843 1.0, 1.2638 -0.9843 1.0, 0.126 -0.626 1.0, -0.126 -0.626 1.0, -0.4173 -0.8051 1.0, 0.4173 -0.8051 1.0, 0.126 -0.374 1.0, -0.126 -0.374 1.0, -0.5 -0.0 1.0, -0.5 -0.7087 1.0, -0.2638 -0.9843 1.0, 0.2638 -0.9843 1.0, -1.5 -0.7087 1.0, -1.874 -0.374 1.0, -1.5827 -0.8051 1.0, -1.874 -0.626 1.0, -2.126 -0.626 1.0, -2.4173 -0.8051 1.0, -0.874 -0.626 1.0, -1.126 -0.626 1.0, -1.4173 -0.8051 1.0, -1.126 -0.374 1.0, -2.126 -0.374 1.0, -2.5 -0.0 1.0, -2.5 -0.7087 1.0, -0.874 -0.374 1.0, -0.5827 -0.8051 1.0, -1.2638 -0.9843 1.0, -0.7362 -0.9843 1.0, -2.2638 -0.9843 1.0, -1.7362 -0.9843 1.0, -2.874 -0.626 1.0, -3.126 -0.626 1.0, -3.4173 -0.8051 1.0, -2.5827 -0.8051 1.0, -2.874 -0.374 1.0, -3.126 -0.374 1.0, -3.5 -0.0 1.0, -3.5 -0.7087 1.0, -3.2638 -0.9843 1.0, -2.7362 -0.9843 1.0, -3.874 -0.626 1.0, -4.126 -0.626 1.0, -4.4173 -0.8051 1.0, -3.5827 -0.8051 1.0, -3.874 -0.374 1.0, -4.126 -0.374 1.0, -4.5 -0.0 1.0, -4.5 -0.7087 1.0, -4.2638 -0.9843 1.0, -3.7362 -0.9843 1.0, -4.874 -0.626 1.0, -5.126 -0.626 1.0, -5.4173 -0.8051 1.0, -4.5827 -0.8051 1.0, -4.874 -0.374 1.0, -5.126 -0.374 1.0, -5.5 -0.0 1.0, -5.5 -0.7087 1.0, -5.2638 -0.9843 1.0, -4.7362 -0.9843 1.0, -6.126 -0.626 1.0, -6.126 -0.374 1.0, -6.313 -0.0 1.0, -5.874 -0.374 1.0, -5.874 -0.626 1.0, -5.5827 -0.8051 1.0, -6.2638 -0.9843 1.0, -5.7362 -0.9843 1.0, -6.5 -0.7087 1.0, -6.313 0.9268 1.0, -6.5 0.7087 1.0, -6.5 -0.0 1.0, -5.5 0.7087 1.0, -5.7362 0.9843 1.0, -5.874 0.626 1.0, -6.2638 0.9843 1.0, -6.126 0.626 1.0, -6.126 0.374 1.0, -5.874 0.374 1.0, -5.126 0.626 1.0, -4.874 0.626 1.0, -4.7362 0.9843 1.0, -5.2638 0.9843 1.0, -5.126 0.374 1.0, -4.874 0.374 1.0, -4.5 0.7087 1.0, -4.126 0.626 1.0, -3.874 0.626 1.0, -3.7362 0.9843 1.0, -4.2638 0.9843 1.0, -4.126 0.374 1.0, -3.874 0.374 1.0, -3.5 0.7087 1.0, -3.126 0.626 1.0, -2.874 0.626 1.0, -2.7362 0.9843 1.0, -3.2638 0.9843 1.0, -3.126 0.374 1.0, -2.874 0.374 1.0, -2.5 0.7087 1.0, -0.874 0.626 1.0, -0.874 0.374 1.0, -1.7362 0.9843 1.0, -2.126 0.626 1.0, -1.5 0.7087 1.0, -1.874 0.626 1.0, -1.126 0.374 1.0, -1.874 0.374 1.0, -2.126 0.374 1.0, -2.2638 0.9843 1.0, -1.2638 0.9843 1.0, -1.126 0.626 1.0, -0.7362 0.9843 1.0, -0.5 0.7087 1.0, -0.126 0.626 1.0, 0.126 0.626 1.0, 0.2638 0.9843 1.0, -0.2638 0.9843 1.0, -0.126 0.374 1.0, 0.126 0.374 1.0, 0.4325 0.7874 0.0, -0.4325 0.7874 0.0, 0.2638 0.9843 0.0, -0.2638 0.9843 0.0, -0.5675 0.7874 0.0, -1.4325 0.7874 0.0, -0.7362 0.9843 0.0, -1.2638 0.9843 0.0, 2.4325 0.7874 0.0, 1.5675 0.7874 0.0, 2.2638 0.9843 0.0, 1.7362 0.9843 0.0, 0.7362 0.9843 0.0, 1.2638 0.9843 0.0, 0.5675 0.7874 0.0, 1.4325 0.7874 0.0, -3.5675 0.7874 0.0, -4.4325 0.7874 0.0, -3.7362 0.9843 0.0, -4.2638 0.9843 0.0, -4.5675 0.7874 0.0, -5.4325 0.7874 0.0, -4.7362 0.9843 0.0, -5.2638 0.9843 0.0, -1.5675 0.7874 0.0, -2.4325 0.7874 0.0, -1.7362 0.9843 0.0, -2.2638 0.9843 0.0, -3.2638 0.9843 0.0, -2.7362 0.9843 0.0, -3.4325 0.7874 0.0, -2.5675 0.7874 0.0, 5.4325 0.7874 0.0, 4.5675 0.7874 0.0, 5.2638 0.9843 0.0, 4.7362 0.9843 0.0, 2.7362 0.9843 0.0, 3.2638 0.9843 0.0, 2.5675 0.7874 0.0, 3.4325 0.7874 0.0, 3.7362 0.9843 0.0, 4.2638 0.9843 0.0, 3.5675 0.7874 0.0, 4.4325 0.7874 0.0, 0.2638 -0.9843 0.0, -0.2638 -0.9843 0.0, -0.7362 -0.9843 0.0, -1.2638 -0.9843 0.0, 2.2638 -0.9843 0.0, 1.7362 -0.9843 0.0, 0.7362 -0.9843 0.0, 1.2638 -0.9843 0.0, -3.7362 -0.9843 0.0, -4.2638 -0.9843 0.0, -4.7362 -0.9843 0.0, -5.2638 -0.9843 0.0, -1.7362 -0.9843 0.0, -2.2638 -0.9843 0.0, -3.2638 -0.9843 0.0, -2.7362 -0.9843 0.0, 5.2638 -0.9843 0.0, 4.7362 -0.9843 0.0, 2.7362 -0.9843 0.0, 3.2638 -0.9843 0.0, 3.7362 -0.9843 0.0, 4.2638 -0.9843 0.0, 0.4325 -0.7874 0.0, -0.4325 -0.7874 0.0, -0.5675 -0.7874 0.0, -1.4325 -0.7874 0.0, 2.4325 -0.7874 0.0, 1.5675 -0.7874 0.0, 0.5675 -0.7874 0.0, 1.4325 -0.7874 0.0, -3.5675 -0.7874 0.0, -4.4325 -0.7874 0.0, -4.5675 -0.7874 0.0, -5.4325 -0.7874 0.0, -1.5675 -0.7874 0.0, -2.4325 -0.7874 0.0, -3.4325 -0.7874 0.0, -2.5675 -0.7874 0.0, 5.4325 -0.7874 0.0, 4.5675 -0.7874 0.0, 2.5675 -0.7874 0.0, 3.4325 -0.7874 0.0, 3.5675 -0.7874 0.0, 4.4325 -0.7874 0.0, 5.7362 0.9843 0.0, 6.2638 0.9843 0.0, 5.5675 0.7874 0.0, 6.4325 0.7874 0.0, -6.4325 0.7874 0.0, -6.2638 0.9843 0.0, -5.5675 0.7874 0.0, -5.7362 0.9843 0.0, -5.5675 -0.7874 0.0, -5.7362 -0.9843 0.0, -6.4325 -0.7874 0.0, -6.2638 -0.9843 0.0, 5.7362 -0.9843 0.0, 6.2638 -0.9843 0.0, 5.5675 -0.7874 0.0, 6.4325 -0.7874 0.0
            ]
        }
        coordIndex [
            0,1,2,-1,3,4,2,-1,5,6,4,-1,7,8,6,-1,9,10,11,-1,12,13,14,-1,15,16,17,-1,17,16,18,-1,19,20,21,-1,22,23,24,-1,12,25,26,-1,12,26,27,-1,28,29,30,-1,30,29,31,-1,32,33,34,-1,34,33,30,-1,35,36,37,-1,37,36,34,-1,38,39,40,-1,40,39,41,-1,40,41,42,-1,41,43,44,-1,42,41,45,-1,45,41,44,-1,45,44,46,-1,47,48,49,-1,49,48,50,-1,49,50,51,-1,48,52,53,-1,53,52,54,-1,53,54,55,-1,55,54,56,-1,55,56,57,-1,57,56,50,-1,57,50,58,-1,58,50,48,-1,58,48,53,-1,59,60,61,-1,61,60,62,-1,61,62,63,-1,64,65,66,-1,62,67,63,-1,63,67,54,-1,63,54,68,-1,68,54,52,-1,68,52,59,-1,59,52,66,-1,59,66,60,-1,60,66,65,-1,60,65,69,-1,66,70,64,-1,64,70,71,-1,64,71,72,-1,72,71,73,-1,72,73,69,-1,69,73,74,-1,69,74,60,-1,75,76,77,-1,77,76,78,-1,77,78,79,-1,80,81,82,-1,78,83,79,-1,79,83,71,-1,79,71,84,-1,84,71,70,-1,84,70,75,-1,75,70,82,-1,75,82,76,-1,76,82,81,-1,76,81,85,-1,82,86,80,-1,80,86,87,-1,80,87,88,-1,88,87,89,-1,88,89,85,-1,85,89,90,-1,85,90,76,-1,91,92,93,-1,93,92,87,-1,93,87,94,-1,94,87,86,-1,94,86,95,-1,95,86,22,-1,95,22,96,-1,96,22,91,-1,96,91,93,-1,97,98,99,-1,99,98,100,-1,99,100,101,-1,102,103,104,-1,100,105,101,-1,101,105,106,-1,101,106,107,-1,107,106,108,-1,107,108,97,-1,97,108,104,-1,97,104,98,-1,98,104,103,-1,98,103,109,-1,104,110,102,-1,102,110,111,-1,102,111,112,-1,112,111,113,-1,112,113,109,-1,109,113,114,-1,109,114,98,-1,115,116,117,-1,117,116,118,-1,117,118,119,-1,120,121,122,-1,118,123,119,-1,119,123,111,-1,119,111,124,-1,124,111,110,-1,124,110,115,-1,115,110,122,-1,115,122,116,-1,116,122,121,-1,116,121,125,-1,122,126,120,-1,120,126,127,-1,120,127,128,-1,128,127,129,-1,128,129,125,-1,125,129,130,-1,125,130,116,-1,131,132,133,-1,133,132,134,-1,133,134,135,-1,136,137,138,-1,134,139,135,-1,135,139,127,-1,135,127,140,-1,140,127,126,-1,140,126,131,-1,131,126,138,-1,131,138,132,-1,132,138,137,-1,132,137,141,-1,138,142,136,-1,136,142,143,-1,136,143,144,-1,144,143,145,-1,144,145,141,-1,141,145,146,-1,141,146,132,-1,147,148,149,-1,149,148,150,-1,149,150,151,-1,152,153,154,-1,154,153,149,-1,155,156,157,-1,157,156,154,-1,158,159,160,-1,160,159,157,-1,161,162,163,-1,163,162,160,-1,164,165,166,-1,166,165,163,-1,167,168,169,-1,169,168,170,-1,169,170,171,-1,170,108,171,-1,171,108,106,-1,171,106,172,-1,172,106,173,-1,172,173,174,-1,174,173,175,-1,174,175,176,-1,176,175,177,-1,176,177,167,-1,178,179,180,-1,181,182,180,-1,180,182,183,-1,180,183,178,-1,179,178,184,-1,184,178,185,-1,184,185,186,-1,186,185,187,-1,186,187,188,-1,188,187,11,-1,188,11,181,-1,189,190,191,-1,191,192,189,-1,189,192,193,-1,189,193,194,-1,195,196,183,-1,183,196,197,-1,183,197,178,-1,178,197,198,-1,178,198,25,-1,25,198,199,-1,25,199,190,-1,200,201,202,-1,203,204,205,-1,194,205,189,-1,189,205,204,-1,189,204,206,-1,206,204,207,-1,206,207,208,-1,200,202,209,-1,210,211,168,-1,168,211,212,-1,168,212,213,-1,202,214,215,-1,216,217,183,-1,183,217,218,-1,183,218,195,-1,205,219,203,-1,203,219,220,-1,203,220,221,-1,221,220,222,-1,221,222,223,-1,223,222,224,-1,202,225,226,-1,201,227,202,-1,202,227,228,-1,202,228,214,-1,229,230,231,-1,231,230,202,-1,231,202,232,-1,232,202,215,-1,213,233,168,-1,168,233,234,-1,168,234,235,-1,229,231,222,-1,222,231,236,-1,222,236,224,-1,226,237,202,-1,202,237,238,-1,202,238,209,-1,208,239,206,-1,206,239,240,-1,206,240,168,-1,168,240,241,-1,168,241,210,-1,43,41,242,-1,242,41,243,-1,242,243,47,-1,244,39,245,-1,245,39,246,-1,245,246,247,-1,247,246,243,-1,247,243,248,-1,248,243,41,-1,248,41,244,-1,244,41,39,-1,249,38,250,-1,250,38,251,-1,250,251,252,-1,252,251,246,-1,252,246,253,-1,253,246,39,-1,253,39,249,-1,249,39,38,-1,254,255,256,-1,256,255,257,-1,256,257,258,-1,258,257,251,-1,258,251,259,-1,259,251,38,-1,259,38,254,-1,254,38,255,-1,260,261,262,-1,262,261,263,-1,262,263,264,-1,264,263,257,-1,264,257,265,-1,265,257,255,-1,265,255,260,-1,260,255,261,-1,47,243,48,-1,48,243,246,-1,48,246,52,-1,52,246,251,-1,52,251,66,-1,66,251,257,-1,66,257,70,-1,70,257,263,-1,70,263,82,-1,82,263,266,-1,82,266,86,-1,267,266,268,-1,268,266,263,-1,268,263,269,-1,269,263,261,-1,269,261,270,-1,270,261,271,-1,270,271,267,-1,267,271,266,-1,266,271,272,-1,266,272,273,-1,274,23,275,-1,275,23,22,-1,275,22,276,-1,276,22,86,-1,276,86,15,-1,15,86,266,-1,15,266,16,-1,16,266,273,-1,16,273,277,-1,278,279,40,-1,40,279,37,-1,40,37,38,-1,38,37,34,-1,38,34,255,-1,255,34,30,-1,255,30,261,-1,261,30,31,-1,261,31,271,-1,271,31,280,-1,271,280,272,-1,272,280,281,-1,24,19,22,-1,22,19,21,-1,22,21,91,-1,91,21,282,-1,27,26,283,-1,283,26,280,-1,283,280,284,-1,284,280,31,-1,284,31,285,-1,286,287,288,-1,189,289,288,-1,288,289,290,-1,288,290,286,-1,291,292,21,-1,21,292,293,-1,21,293,294,-1,295,296,297,-1,297,296,298,-1,294,299,21,-1,21,299,300,-1,21,300,301,-1,189,302,289,-1,289,302,297,-1,289,297,303,-1,303,297,298,-1,303,298,304,-1,287,305,288,-1,288,305,306,-1,288,306,307,-1,308,282,309,-1,309,282,21,-1,309,21,206,-1,206,21,301,-1,206,301,303,-1,310,311,304,-1,304,311,312,-1,304,312,303,-1,303,312,313,-1,303,313,206,-1,206,313,314,-1,206,314,189,-1,189,314,315,-1,189,315,302,-1,307,316,288,-1,288,316,317,-1,288,317,318,-1,18,16,20,-1,20,16,288,-1,20,288,21,-1,21,288,318,-1,21,318,291,-1,190,189,25,-1,25,189,288,-1,25,288,26,-1,26,288,16,-1,26,16,280,-1,280,16,277,-1,280,277,281,-1,167,177,168,-1,168,177,319,-1,168,319,206,-1,206,319,320,-1,206,320,309,-1,12,14,25,-1,25,14,321,-1,25,321,178,-1,178,321,322,-1,178,322,185,-1,181,11,182,-1,182,11,10,-1,182,10,323,-1,323,324,182,-1,182,324,325,-1,182,325,326,-1,9,108,326,-1,326,108,170,-1,326,170,182,-1,182,170,168,-1,182,168,183,-1,183,168,235,-1,183,235,216,-1,327,328,329,-1,329,328,330,-1,329,330,331,-1,331,330,11,-1,331,11,332,-1,332,11,187,-1,332,187,327,-1,327,187,328,-1,333,8,334,-1,334,8,335,-1,334,335,336,-1,336,335,330,-1,336,330,337,-1,337,330,328,-1,337,328,333,-1,333,328,8,-1,8,7,335,-1,335,7,338,-1,335,338,339,-1,339,338,340,-1,339,340,6,-1,6,340,341,-1,6,341,7,-1,6,5,339,-1,339,5,342,-1,339,342,343,-1,343,342,344,-1,343,344,4,-1,4,344,345,-1,4,345,5,-1,4,3,343,-1,343,3,346,-1,343,346,347,-1,347,346,348,-1,347,348,2,-1,2,348,349,-1,2,349,3,-1,9,11,108,-1,108,11,330,-1,108,330,104,-1,104,330,335,-1,104,335,110,-1,110,335,339,-1,110,339,122,-1,122,339,343,-1,122,343,126,-1,126,343,347,-1,126,347,138,-1,138,347,350,-1,138,350,142,-1,2,1,347,-1,347,1,351,-1,347,351,350,-1,350,351,352,-1,350,352,151,-1,352,0,151,-1,151,0,2,-1,151,2,149,-1,149,2,4,-1,149,4,154,-1,154,4,6,-1,154,6,157,-1,157,6,8,-1,157,8,160,-1,160,8,328,-1,160,328,163,-1,163,328,187,-1,163,187,166,-1,166,187,185,-1,166,185,353,-1,353,185,322,-1,354,355,356,-1,357,358,359,-1,359,360,357,-1,357,360,361,-1,357,361,362,-1,362,361,363,-1,362,363,364,-1,364,363,365,-1,364,365,358,-1,358,365,366,-1,358,366,359,-1,367,368,369,-1,369,370,367,-1,367,370,366,-1,367,366,371,-1,371,366,365,-1,371,365,372,-1,372,365,373,-1,372,373,368,-1,368,373,374,-1,368,374,369,-1,375,376,377,-1,377,378,375,-1,375,378,374,-1,375,374,379,-1,379,374,373,-1,379,373,380,-1,380,373,381,-1,380,381,376,-1,376,381,382,-1,376,382,377,-1,383,384,385,-1,385,386,383,-1,383,386,382,-1,383,382,387,-1,387,382,381,-1,387,381,388,-1,388,381,389,-1,388,389,384,-1,384,389,390,-1,384,390,385,-1,391,392,393,-1,393,394,391,-1,391,394,390,-1,391,390,395,-1,395,390,389,-1,395,389,396,-1,396,389,397,-1,396,397,392,-1,392,397,398,-1,392,398,393,-1,399,400,401,-1,401,402,399,-1,399,402,398,-1,399,398,403,-1,403,398,397,-1,403,397,404,-1,404,397,405,-1,404,405,400,-1,400,405,406,-1,400,406,401,-1,407,408,409,-1,407,410,411,-1,407,411,412,-1,412,411,405,-1,412,405,413,-1,413,405,397,-1,413,397,408,-1,408,397,414,-1,408,414,409,-1,407,409,410,-1,410,409,415,-1,410,415,416,-1,417,418,419,-1,417,420,414,-1,417,414,421,-1,421,414,397,-1,421,397,422,-1,422,397,389,-1,422,389,418,-1,418,389,423,-1,418,423,419,-1,417,419,420,-1,420,419,424,-1,420,424,425,-1,426,427,428,-1,426,429,423,-1,426,423,430,-1,430,423,389,-1,430,389,431,-1,431,389,381,-1,431,381,427,-1,427,381,432,-1,427,432,428,-1,426,428,429,-1,429,428,433,-1,429,433,434,-1,435,436,437,-1,435,438,432,-1,435,432,439,-1,439,432,381,-1,439,381,440,-1,440,381,373,-1,440,373,436,-1,436,373,441,-1,436,441,437,-1,435,437,438,-1,438,437,442,-1,438,442,443,-1,444,445,446,-1,444,447,441,-1,444,441,448,-1,448,441,373,-1,448,373,449,-1,449,373,365,-1,449,365,445,-1,445,365,450,-1,445,450,446,-1,444,446,447,-1,447,446,451,-1,447,451,452,-1,453,454,455,-1,453,456,450,-1,453,450,457,-1,457,450,365,-1,457,365,458,-1,458,365,363,-1,458,363,454,-1,454,363,459,-1,454,459,455,-1,453,455,456,-1,456,455,460,-1,456,460,461,-1,462,463,464,-1,462,465,459,-1,462,459,466,-1,466,459,363,-1,466,363,467,-1,467,363,468,-1,467,468,463,-1,463,468,469,-1,463,469,464,-1,462,464,465,-1,465,464,470,-1,465,470,471,-1,472,473,474,-1,474,473,475,-1,475,476,477,-1,478,479,480,-1,481,473,479,-1,479,473,472,-1,479,472,480,-1,482,483,476,-1,476,483,484,-1,476,484,477,-1,482,473,483,-1,483,473,481,-1,483,481,468,-1,468,481,485,-1,468,485,469,-1,469,485,478,-1,469,478,486,-1,478,480,486,-1,486,480,487,-1,486,487,488,-1,475,477,474,-1,474,477,489,-1,474,489,490,-1,491,492,493,-1,491,494,484,-1,491,484,495,-1,495,484,483,-1,495,483,496,-1,496,483,497,-1,496,497,492,-1,492,497,498,-1,492,498,493,-1,491,493,494,-1,494,493,499,-1,494,499,500,-1,501,502,503,-1,501,504,498,-1,501,498,505,-1,505,498,497,-1,505,497,506,-1,506,497,507,-1,506,507,502,-1,502,507,508,-1,502,508,503,-1,501,503,504,-1,504,503,509,-1,504,509,510,-1,511,512,513,-1,511,514,508,-1,511,508,515,-1,515,508,507,-1,515,507,516,-1,516,507,517,-1,516,517,512,-1,512,517,518,-1,512,518,513,-1,511,513,514,-1,514,513,519,-1,514,519,520,-1,521,522,523,-1,523,522,517,-1,517,522,524,-1,517,524,518,-1,518,524,525,-1,518,525,526,-1,527,528,354,-1,354,528,526,-1,354,526,355,-1,355,526,525,-1,355,525,521,-1,521,523,355,-1,355,523,529,-1,355,529,356,-1,530,531,523,-1,523,531,532,-1,523,532,529,-1,533,534,535,-1,535,534,536,-1,535,536,537,-1,537,536,530,-1,537,530,538,-1,538,530,523,-1,538,523,539,-1,539,523,517,-1,539,517,535,-1,535,517,533,-1,540,541,542,-1,542,543,540,-1,540,543,533,-1,540,533,544,-1,544,533,517,-1,544,517,545,-1,545,517,507,-1,545,507,541,-1,541,507,546,-1,541,546,542,-1,547,548,549,-1,549,550,547,-1,547,550,546,-1,547,546,551,-1,551,546,507,-1,551,507,552,-1,552,507,497,-1,552,497,548,-1,548,497,553,-1,548,553,549,-1,554,555,556,-1,556,557,554,-1,554,557,553,-1,554,553,558,-1,558,553,497,-1,558,497,559,-1,559,497,483,-1,559,483,555,-1,555,483,560,-1,555,560,556,-1,561,562,468,-1,563,564,565,-1,565,564,566,-1,562,567,468,-1,468,567,568,-1,468,568,483,-1,483,568,569,-1,483,569,560,-1,560,569,564,-1,560,564,570,-1,570,564,563,-1,566,568,565,-1,565,568,567,-1,565,567,571,-1,571,567,572,-1,571,572,573,-1,573,572,561,-1,573,561,574,-1,574,561,468,-1,575,576,577,-1,577,578,575,-1,575,578,574,-1,575,574,579,-1,579,574,468,-1,579,468,580,-1,580,468,363,-1,580,363,576,-1,576,363,361,-1,576,361,577,-1,581,582,583,-1,583,582,584,-1,585,586,587,-1,587,586,588,-1,589,590,591,-1,591,590,592,-1,593,594,595,-1,595,594,596,-1,597,598,599,-1,599,598,600,-1,601,602,603,-1,603,602,604,-1,605,606,607,-1,607,606,608,-1,609,610,611,-1,611,610,612,-1,613,614,615,-1,615,614,616,-1,617,618,619,-1,619,618,620,-1,621,622,623,-1,623,622,624,-1,471,470,625,-1,625,470,626,-1,488,487,627,-1,627,487,628,-1,452,451,629,-1,629,451,630,-1,631,632,460,-1,460,632,461,-1,510,509,633,-1,633,509,634,-1,520,519,635,-1,635,519,636,-1,490,489,637,-1,637,489,638,-1,639,640,499,-1,499,640,500,-1,425,424,641,-1,641,424,642,-1,643,644,442,-1,442,644,443,-1,645,646,433,-1,433,646,434,-1,583,584,577,-1,577,584,578,-1,587,588,573,-1,573,588,571,-1,591,592,369,-1,369,592,370,-1,360,359,593,-1,593,359,594,-1,599,600,549,-1,549,600,550,-1,603,604,542,-1,542,604,543,-1,607,608,563,-1,563,608,570,-1,557,556,609,-1,609,556,610,-1,615,616,393,-1,393,616,394,-1,378,377,617,-1,617,377,618,-1,386,385,621,-1,621,385,622,-1,625,626,647,-1,647,626,648,-1,627,628,649,-1,649,628,650,-1,629,630,651,-1,651,630,652,-1,653,654,631,-1,631,654,632,-1,633,634,655,-1,655,634,656,-1,635,636,657,-1,657,636,658,-1,637,638,659,-1,659,638,660,-1,661,662,639,-1,639,662,640,-1,641,642,663,-1,663,642,664,-1,665,666,643,-1,643,666,644,-1,667,668,645,-1,645,668,646,-1,581,353,582,-1,582,353,322,-1,322,321,582,-1,582,321,14,-1,582,14,13,-1,285,586,284,-1,284,586,585,-1,284,585,283,-1,283,585,27,-1,162,161,589,-1,589,161,590,-1,595,596,164,-1,164,596,165,-1,36,35,597,-1,597,35,598,-1,279,278,601,-1,601,278,602,-1,29,28,605,-1,605,28,606,-1,611,612,32,-1,32,612,33,-1,153,152,613,-1,613,152,614,-1,619,620,158,-1,158,620,159,-1,623,624,155,-1,155,624,156,-1,648,320,319,-1,173,647,175,-1,175,647,648,-1,175,648,177,-1,177,648,319,-1,649,650,92,-1,92,91,649,-1,649,91,282,-1,649,282,308,-1,651,652,113,-1,113,652,114,-1,105,100,653,-1,653,100,654,-1,655,656,73,-1,73,656,74,-1,657,658,62,-1,62,658,67,-1,659,660,89,-1,89,660,90,-1,83,78,661,-1,661,78,662,-1,663,664,134,-1,134,664,139,-1,123,118,665,-1,665,118,666,-1,130,129,667,-1,667,129,668,-1,669,670,671,-1,671,670,672,-1,673,674,675,-1,675,674,676,-1,677,678,679,-1,679,678,680,-1,676,674,534,-1,534,674,536,-1,681,682,415,-1,415,682,416,-1,411,143,405,-1,405,143,142,-1,150,406,151,-1,151,406,405,-1,151,405,350,-1,350,405,142,-1,402,401,669,-1,669,401,670,-1,49,529,44,-1,44,529,531,-1,680,678,527,-1,527,678,528,-1,683,684,681,-1,681,684,682,-1,674,673,46,-1,44,531,46,-1,46,531,536,-1,46,536,674,-1,675,676,42,-1,42,676,534,-1,42,534,40,-1,40,534,533,-1,528,678,56,-1,56,678,677,-1,528,56,526,-1,526,56,54,-1,526,54,518,-1,679,680,51,-1,51,680,527,-1,51,527,49,-1,49,527,529,-1,42,46,675,-1,675,46,673,-1,671,672,147,-1,147,672,148,-1,146,145,683,-1,683,145,684,-1,51,56,679,-1,679,56,677,-1,
        ]
    }
}
Shape{
    appearance Appearance {
        material  Material 	{
            diffuseColor 0.7529411764705882 0.7529411764705882 0.7529411764705882
            specularColor 0.3764705882352941 0.3764705882352941 0.3764705882352941
            ambientIntensity 0.7529
            transparency 0.0
            shininess 0.5
        }
    }
    geometry IndexedFaceSet {
        ccw TRUE
        solid FALSE
        coord DEF co Coordinate {
            point [
                -6.126 -0.4724 -1.1811, -6.126 -0.374 -1.0827, -5.874 -0.4724 -1.1811, -5.874 -0.374 -1.0827, -6.126 -0.5276 -1.1811, -5.874 -0.5276 -1.1811, -6.126 -0.626 -1.0827, -5.874 -0.626 -1.0827, -5.874 -0.626 0.1969, -5.874 -0.374 0.1969, -6.126 -0.374 0.1969, -6.126 -0.626 0.1969, -5.874 -0.626 3.2638, -6.126 -0.626 3.2638, -5.874 -0.626 1.0, -6.126 -0.626 1.0, -6.126 -0.5276 3.3622, -5.874 -0.5276 3.3622, -6.126 -0.4724 3.3622, -5.874 -0.4724 3.3622, -6.126 -0.374 3.2638, -5.874 -0.374 3.2638, -6.126 -0.374 1.0, -5.874 -0.374 1.0, -6.126 0.5276 -1.1811, -6.126 0.626 -1.0827, -5.874 0.5276 -1.1811, -5.874 0.626 -1.0827, -6.126 0.4724 -1.1811, -5.874 0.4724 -1.1811, -6.126 0.374 -1.0827, -5.874 0.374 -1.0827, -5.874 0.626 0.1969, -5.874 0.374 0.1969, -6.126 0.626 0.1969, -6.126 0.374 0.1969, -5.874 0.374 3.2638, -6.126 0.374 3.2638, -5.874 0.374 1.0, -6.126 0.374 1.0, -6.126 0.4724 3.3622, -5.874 0.4724 3.3622, -6.126 0.5276 3.3622, -5.874 0.5276 3.3622, -6.126 0.626 3.2638, -5.874 0.626 3.2638, -6.126 0.626 1.0, -5.874 0.626 1.0
            ]
        }
        coordIndex [
            0,1,2,-1,2,1,3,-1,4,0,5,-1,5,0,2,-1,6,4,7,-1,7,4,5,-1,5,2,7,-1,7,2,3,-1,7,3,8,-1,8,3,9,-1,0,4,1,-1,1,4,6,-1,1,6,10,-1,10,6,11,-1,9,3,10,-1,10,3,1,-1,11,6,8,-1,8,6,7,-1,12,13,14,-1,14,13,15,-1,16,13,17,-1,17,13,12,-1,18,16,19,-1,19,16,17,-1,20,18,21,-1,21,18,19,-1,20,21,22,-1,22,21,23,-1,16,18,13,-1,13,18,20,-1,13,20,15,-1,15,20,22,-1,19,17,21,-1,21,17,12,-1,21,12,23,-1,23,12,14,-1,24,25,26,-1,26,25,27,-1,28,24,29,-1,29,24,26,-1,30,28,31,-1,31,28,29,-1,32,33,27,-1,27,33,31,-1,27,31,26,-1,26,31,29,-1,24,28,25,-1,25,28,30,-1,25,30,34,-1,34,30,35,-1,32,27,34,-1,34,27,25,-1,35,30,33,-1,33,30,31,-1,36,37,38,-1,38,37,39,-1,40,37,41,-1,41,37,36,-1,42,40,43,-1,43,40,41,-1,44,42,45,-1,45,42,43,-1,44,45,46,-1,46,45,47,-1,40,42,37,-1,37,42,44,-1,37,44,39,-1,39,44,46,-1,43,41,45,-1,45,41,36,-1,45,36,47,-1,47,36,38,-1,
        ]
    }
}
Shape{
    appearance Appearance {
        material  Material 	{
            diffuseColor 0.14901960784313725 0.14901960784313725 0.14901960784313725
            specularColor 0.07450980392156863 0.07450980392156863 0.07450980392156863
            ambientIntensity 0.149
            transparency 0.0
            shininess 0.5
        }
    }
    geometry IndexedFaceSet {
        ccw TRUE
        solid FALSE
        coord DEF co Coordinate {
            point [
                4.2638 -0.9843 1.0, 4.2638 -0.9843 0.0, 4.4325 -0.7874 0.1969, 4.4325 -0.7874 0.0, 4.4173 -0.8051 1.0, 4.5 -0.7087 0.1969, 4.5 -0.7087 1.0, 4.5675 -0.7874 0.1969, 4.5675 -0.7874 0.0, 4.7362 -0.9843 0.0, 4.5827 -0.8051 1.0, 4.7362 -0.9843 1.0, 3.2638 -0.9843 1.0, 3.2638 -0.9843 0.0, 3.4325 -0.7874 0.1969, 3.4325 -0.7874 0.0, 3.4173 -0.8051 1.0, 3.5 -0.7087 0.1969, 3.5 -0.7087 1.0, 3.5675 -0.7874 0.1969, 3.5675 -0.7874 0.0, 3.7362 -0.9843 0.0, 3.5827 -0.8051 1.0, 3.7362 -0.9843 1.0, 6.2638 -0.9843 1.0, 6.2638 -0.9843 0.0, 6.4325 -0.7874 0.1969, 6.4325 -0.7874 0.0, 6.4173 -0.8051 1.0, 6.5 -0.7087 0.1969, 6.5 -0.7087 1.0, 5.2638 -0.9843 1.0, 5.2638 -0.9843 0.0, 5.4325 -0.7874 0.1969, 5.4325 -0.7874 0.0, 5.4173 -0.8051 1.0, 5.5 -0.7087 0.1969, 5.5 -0.7087 1.0, 5.5675 -0.7874 0.1969, 5.5675 -0.7874 0.0, 5.7362 -0.9843 0.0, 5.5827 -0.8051 1.0, 5.7362 -0.9843 1.0, -2.7362 -0.9843 1.0, -2.7362 -0.9843 0.0, -2.5675 -0.7874 0.1969, -2.5675 -0.7874 0.0, -2.5827 -0.8051 1.0, -2.5 -0.7087 0.1969, -2.5 -0.7087 1.0, -2.4325 -0.7874 0.1969, -2.4325 -0.7874 0.0, -2.2638 -0.9843 0.0, -2.4173 -0.8051 1.0, -2.2638 -0.9843 1.0, -1.7362 -0.9843 1.0, -1.7362 -0.9843 0.0, -1.5675 -0.7874 0.1969, -1.5675 -0.7874 0.0, -1.5827 -0.8051 1.0, -1.5 -0.7087 0.1969, -1.5 -0.7087 1.0, -1.4325 -0.7874 0.1969, -1.4325 -0.7874 0.0, -1.2638 -0.9843 0.0, -1.4173 -0.8051 1.0, -1.2638 -0.9843 1.0, -5.4325 -0.7874 0.1969, -5.4325 -0.7874 0.0, -5.2638 -0.9843 0.0, -5.5 -0.7087 1.0, -5.5 -0.7087 0.1969, -5.4173 -0.8051 1.0, -5.2638 -0.9843 1.0, -4.7362 -0.9843 1.0, -4.7362 -0.9843 0.0, -4.5675 -0.7874 0.1969, -4.5675 -0.7874 0.0, -4.5827 -0.8051 1.0, -4.5 -0.7087 0.1969, -4.5 -0.7087 1.0, -4.4325 -0.7874 0.1969, -4.4325 -0.7874 0.0, -4.2638 -0.9843 0.0, -4.4173 -0.8051 1.0, -4.2638 -0.9843 1.0, -3.7362 -0.9843 1.0, -3.7362 -0.9843 0.0, -3.5675 -0.7874 0.1969, -3.5675 -0.7874 0.0, -3.5827 -0.8051 1.0, -3.5 -0.7087 0.1969, -3.5 -0.7087 1.0, -3.4325 -0.7874 0.1969, -3.4325 -0.7874 0.0, -3.2638 -0.9843 0.0, -3.4173 -0.8051 1.0, -3.2638 -0.9843 1.0, 1.2638 -0.9843 1.0, 1.2638 -0.9843 0.0, 1.4325 -0.7874 0.1969, 1.4325 -0.7874 0.0, 1.4173 -0.8051 1.0, 1.5 -0.7087 0.1969, 1.5 -0.7087 1.0, 1.5675 -0.7874 0.1969, 1.5675 -0.7874 0.0, 1.7362 -0.9843 0.0, 1.5827 -0.8051 1.0, 1.7362 -0.9843 1.0, 2.2638 -0.9843 1.0, 2.2638 -0.9843 0.0, 2.4325 -0.7874 0.1969, 2.4325 -0.7874 0.0, 2.4173 -0.8051 1.0, 2.5 -0.7087 0.1969, 2.5 -0.7087 1.0, 2.5675 -0.7874 0.1969, 2.5675 -0.7874 0.0, 2.7362 -0.9843 0.0, 2.5827 -0.8051 1.0, 2.7362 -0.9843 1.0, -0.7362 -0.9843 1.0, -0.7362 -0.9843 0.0, -0.5675 -0.7874 0.1969, -0.5675 -0.7874 0.0, -0.5827 -0.8051 1.0, -0.5 -0.7087 0.1969, -0.5 -0.7087 1.0, -0.4325 -0.7874 0.1969, -0.4325 -0.7874 0.0, -0.2638 -0.9843 0.0, -0.4173 -0.8051 1.0, -0.2638 -0.9843 1.0, 0.2638 -0.9843 1.0, 0.2638 -0.9843 0.0, 0.4325 -0.7874 0.1969, 0.4325 -0.7874 0.0, 0.4173 -0.8051 1.0, 0.5 -0.7087 0.1969, 0.5 -0.7087 1.0, 0.5675 -0.7874 0.1969, 0.5675 -0.7874 0.0, 0.7362 -0.9843 0.0, 0.5827 -0.8051 1.0, 0.7362 -0.9843 1.0, -5.2638 0.9843 0.0, -5.4325 0.7874 0.0, -5.4325 0.7874 0.1969, -5.5 0.7087 0.1969, -5.5 0.7087 1.0, -5.2638 0.9843 1.0, 4.4325 0.7874 0.0, 4.2638 0.9843 0.0, 4.4325 0.7874 0.1969, 4.2638 0.9843 1.0, 4.5 0.7087 0.1969, 4.5 0.7087 1.0, 4.7362 0.9843 0.0, 4.5675 0.7874 0.0, 4.5675 0.7874 0.1969, 4.7362 0.9843 1.0, 3.4325 0.7874 0.0, 3.2638 0.9843 0.0, 3.4325 0.7874 0.1969, 3.2638 0.9843 1.0, 3.5 0.7087 0.1969, 3.5 0.7087 1.0, 3.7362 0.9843 0.0, 3.5675 0.7874 0.0, 3.5675 0.7874 0.1969, 3.7362 0.9843 1.0, 6.4325 0.7874 0.0, 6.2638 0.9843 0.0, 6.4325 0.7874 0.1969, 6.2638 0.9843 1.0, 6.5 0.7087 0.1969, 6.5 0.7087 1.0, 5.4325 0.7874 0.0, 5.2638 0.9843 0.0, 5.4325 0.7874 0.1969, 5.2638 0.9843 1.0, 5.5 0.7087 0.1969, 5.5 0.7087 1.0, 5.7362 0.9843 0.0, 5.5675 0.7874 0.0, 5.5675 0.7874 0.1969, 5.7362 0.9843 1.0, -2.5675 0.7874 0.0, -2.7362 0.9843 0.0, -2.5675 0.7874 0.1969, -2.7362 0.9843 1.0, -2.5 0.7087 0.1969, -2.5 0.7087 1.0, -2.2638 0.9843 0.0, -2.4325 0.7874 0.0, -2.4325 0.7874 0.1969, -2.2638 0.9843 1.0, -1.5675 0.7874 0.0, -1.7362 0.9843 0.0, -1.5675 0.7874 0.1969, -1.7362 0.9843 1.0, -1.5 0.7087 0.1969, -1.5 0.7087 1.0, -1.2638 0.9843 0.0, -1.4325 0.7874 0.0, -1.4325 0.7874 0.1969, -1.2638 0.9843 1.0, -4.5675 0.7874 0.0, -4.7362 0.9843 0.0, -4.5675 0.7874 0.1969, -4.7362 0.9843 1.0, -4.5 0.7087 0.1969, -4.5 0.7087 1.0, -4.2638 0.9843 0.0, -4.4325 0.7874 0.0, -4.4325 0.7874 0.1969, -4.2638 0.9843 1.0, -3.5675 0.7874 0.0, -3.7362 0.9843 0.0, -3.5675 0.7874 0.1969, -3.7362 0.9843 1.0, -3.5 0.7087 0.1969, -3.5 0.7087 1.0, -3.2638 0.9843 0.0, -3.4325 0.7874 0.0, -3.4325 0.7874 0.1969, -3.2638 0.9843 1.0, 1.4325 0.7874 0.0, 1.2638 0.9843 0.0, 1.4325 0.7874 0.1969, 1.2638 0.9843 1.0, 1.5 0.7087 0.1969, 1.5 0.7087 1.0, 1.7362 0.9843 0.0, 1.5675 0.7874 0.0, 1.5675 0.7874 0.1969, 1.7362 0.9843 1.0, 2.4325 0.7874 0.0, 2.2638 0.9843 0.0, 2.4325 0.7874 0.1969, 2.2638 0.9843 1.0, 2.5 0.7087 0.1969, 2.5 0.7087 1.0, 2.7362 0.9843 0.0, 2.5675 0.7874 0.0, 2.5675 0.7874 0.1969, 2.7362 0.9843 1.0, -0.5675 0.7874 0.0, -0.7362 0.9843 0.0, -0.5675 0.7874 0.1969, -0.7362 0.9843 1.0, -0.5 0.7087 0.1969, -0.5 0.7087 1.0, -0.2638 0.9843 0.0, -0.4325 0.7874 0.0, -0.4325 0.7874 0.1969, -0.2638 0.9843 1.0, 0.4325 0.7874 0.0, 0.2638 0.9843 0.0, 0.4325 0.7874 0.1969, 0.2638 0.9843 1.0, 0.5 0.7087 0.1969, 0.5 0.7087 1.0, 0.7362 0.9843 0.0, 0.5675 0.7874 0.0, 0.5675 0.7874 0.1969, 0.7362 0.9843 1.0
            ]
        }
        coordIndex [
            0,1,2,-1,2,1,3,-1,0,2,4,-1,4,2,5,-1,4,5,6,-1,7,8,9,-1,6,5,10,-1,10,5,7,-1,10,7,11,-1,11,7,9,-1,12,13,14,-1,14,13,15,-1,12,14,16,-1,16,14,17,-1,16,17,18,-1,19,20,21,-1,18,17,22,-1,22,17,19,-1,22,19,23,-1,23,19,21,-1,24,25,26,-1,26,25,27,-1,24,26,28,-1,28,26,29,-1,28,29,30,-1,31,32,33,-1,33,32,34,-1,31,33,35,-1,35,33,36,-1,35,36,37,-1,38,39,40,-1,37,36,41,-1,41,36,38,-1,41,38,42,-1,42,38,40,-1,43,44,45,-1,45,44,46,-1,43,45,47,-1,47,45,48,-1,47,48,49,-1,50,51,52,-1,49,48,53,-1,53,48,50,-1,53,50,54,-1,54,50,52,-1,55,56,57,-1,57,56,58,-1,55,57,59,-1,59,57,60,-1,59,60,61,-1,62,63,64,-1,61,60,65,-1,65,60,62,-1,65,62,66,-1,66,62,64,-1,67,68,69,-1,70,71,72,-1,72,71,67,-1,72,67,73,-1,73,67,69,-1,74,75,76,-1,76,75,77,-1,74,76,78,-1,78,76,79,-1,78,79,80,-1,81,82,83,-1,80,79,84,-1,84,79,81,-1,84,81,85,-1,85,81,83,-1,86,87,88,-1,88,87,89,-1,86,88,90,-1,90,88,91,-1,90,91,92,-1,93,94,95,-1,92,91,96,-1,96,91,93,-1,96,93,97,-1,97,93,95,-1,98,99,100,-1,100,99,101,-1,98,100,102,-1,102,100,103,-1,102,103,104,-1,105,106,107,-1,104,103,108,-1,108,103,105,-1,108,105,109,-1,109,105,107,-1,110,111,112,-1,112,111,113,-1,110,112,114,-1,114,112,115,-1,114,115,116,-1,117,118,119,-1,116,115,120,-1,120,115,117,-1,120,117,121,-1,121,117,119,-1,122,123,124,-1,124,123,125,-1,122,124,126,-1,126,124,127,-1,126,127,128,-1,129,130,131,-1,128,127,132,-1,132,127,129,-1,132,129,133,-1,133,129,131,-1,134,135,136,-1,136,135,137,-1,134,136,138,-1,138,136,139,-1,138,139,140,-1,141,142,143,-1,140,139,144,-1,144,139,141,-1,144,141,145,-1,145,141,143,-1,146,147,148,-1,149,150,148,-1,148,150,151,-1,148,151,146,-1,152,153,154,-1,154,153,155,-1,154,155,156,-1,156,155,157,-1,158,159,160,-1,156,157,160,-1,160,157,161,-1,160,161,158,-1,162,163,164,-1,164,163,165,-1,164,165,166,-1,166,165,167,-1,168,169,170,-1,166,167,170,-1,170,167,171,-1,170,171,168,-1,172,173,174,-1,174,173,175,-1,174,175,176,-1,176,175,177,-1,178,179,180,-1,180,179,181,-1,180,181,182,-1,182,181,183,-1,184,185,186,-1,182,183,186,-1,186,183,187,-1,186,187,184,-1,188,189,190,-1,190,189,191,-1,190,191,192,-1,192,191,193,-1,194,195,196,-1,192,193,196,-1,196,193,197,-1,196,197,194,-1,198,199,200,-1,200,199,201,-1,200,201,202,-1,202,201,203,-1,204,205,206,-1,202,203,206,-1,206,203,207,-1,206,207,204,-1,208,209,210,-1,210,209,211,-1,210,211,212,-1,212,211,213,-1,214,215,216,-1,212,213,216,-1,216,213,217,-1,216,217,214,-1,218,219,220,-1,220,219,221,-1,220,221,222,-1,222,221,223,-1,224,225,226,-1,222,223,226,-1,226,223,227,-1,226,227,224,-1,228,229,230,-1,230,229,231,-1,230,231,232,-1,232,231,233,-1,234,235,236,-1,232,233,236,-1,236,233,237,-1,236,237,234,-1,238,239,240,-1,240,239,241,-1,240,241,242,-1,242,241,243,-1,244,245,246,-1,242,243,246,-1,246,243,247,-1,246,247,244,-1,248,249,250,-1,250,249,251,-1,250,251,252,-1,252,251,253,-1,254,255,256,-1,252,253,256,-1,256,253,257,-1,256,257,254,-1,258,259,260,-1,260,259,261,-1,260,261,262,-1,262,261,263,-1,264,265,266,-1,262,263,266,-1,266,263,267,-1,266,267,264,-1,
        ]
    }
}
Shape{
    appearance Appearance {
        material  Material 	{
            diffuseColor 0.7529411764705882 0.7529411764705882 0.7529411764705882
            specularColor 0.3764705882352941 0.3764705882352941 0.3764705882352941
            ambientIntensity 0.7529
            transparency 0.0
            shininess 0.5
        }
    }
    geometry IndexedFaceSet {
        ccw TRUE
        solid FALSE
        coord DEF co Coordinate {
            point [
                -5.126 -0.4724 -1.1811, -5.126 -0.374 -1.0827, -4.874 -0.4724 -1.1811, -4.874 -0.374 -1.0827, -5.126 -0.5276 -1.1811, -4.874 -0.5276 -1.1811, -5.126 -0.626 -1.0827, -4.874 -0.626 -1.0827, -4.874 -0.626 0.1969, -4.874 -0.374 0.1969, -5.126 -0.374 0.1969, -5.126 -0.626 0.1969, -4.874 -0.626 3.2638, -5.126 -0.626 3.2638, -4.874 -0.626 1.0, -5.126 -0.626 1.0, -5.126 -0.5276 3.3622, -4.874 -0.5276 3.3622, -5.126 -0.4724 3.3622, -4.874 -0.4724 3.3622, -5.126 -0.374 3.2638, -4.874 -0.374 3.2638, -5.126 -0.374 1.0, -4.874 -0.374 1.0, -5.126 0.5276 -1.1811, -5.126 0.626 -1.0827, -4.874 0.5276 -1.1811, -4.874 0.626 -1.0827, -5.126 0.4724 -1.1811, -4.874 0.4724 -1.1811, -5.126 0.374 -1.0827, -4.874 0.374 -1.0827, -4.874 0.626 0.1969, -4.874 0.374 0.1969, -5.126 0.626 0.1969, -5.126 0.374 0.1969, -4.874 0.374 3.2638, -5.126 0.374 3.2638, -4.874 0.374 1.0, -5.126 0.374 1.0, -5.126 0.4724 3.3622, -4.874 0.4724 3.3622, -5.126 0.5276 3.3622, -4.874 0.5276 3.3622, -5.126 0.626 3.2638, -4.874 0.626 3.2638, -5.126 0.626 1.0, -4.874 0.626 1.0, -4.126 -0.4724 -1.1811, -4.126 -0.374 -1.0827, -3.874 -0.4724 -1.1811, -3.874 -0.374 -1.0827, -4.126 -0.5276 -1.1811, -3.874 -0.5276 -1.1811, -4.126 -0.626 -1.0827, -3.874 -0.626 -1.0827, -3.874 -0.374 0.1969, -3.874 -0.626 0.1969, -4.126 -0.374 0.1969, -4.126 -0.626 0.1969, -3.874 -0.626 3.2638, -4.126 -0.626 3.2638, -3.874 -0.626 1.0, -4.126 -0.626 1.0, -4.126 -0.5276 3.3622, -3.874 -0.5276 3.3622, -4.126 -0.4724 3.3622, -3.874 -0.4724 3.3622, -4.126 -0.374 3.2638, -3.874 -0.374 3.2638, -4.126 -0.374 1.0, -3.874 -0.374 1.0, -4.126 0.5276 -1.1811, -4.126 0.626 -1.0827, -3.874 0.5276 -1.1811, -3.874 0.626 -1.0827, -4.126 0.4724 -1.1811, -3.874 0.4724 -1.1811, -4.126 0.374 -1.0827, -3.874 0.374 -1.0827, -3.874 0.626 0.1969, -3.874 0.374 0.1969, -4.126 0.626 0.1969, -4.126 0.374 0.1969, -3.874 0.374 3.2638, -4.126 0.374 3.2638, -3.874 0.374 1.0, -4.126 0.374 1.0, -4.126 0.4724 3.3622, -3.874 0.4724 3.3622, -4.126 0.5276 3.3622, -3.874 0.5276 3.3622, -4.126 0.626 3.2638, -3.874 0.626 3.2638, -4.126 0.626 1.0, -3.874 0.626 1.0, -3.126 -0.4724 -1.1811, -3.126 -0.374 -1.0827, -2.874 -0.4724 -1.1811, -2.874 -0.374 -1.0827, -3.126 -0.5276 -1.1811, -2.874 -0.5276 -1.1811, -3.126 -0.626 -1.0827, -2.874 -0.626 -1.0827, -2.874 -0.626 0.1969, -2.874 -0.374 0.1969, -3.126 -0.626 0.1969, -3.126 -0.374 0.1969, -2.874 -0.626 3.2638, -3.126 -0.626 3.2638, -2.874 -0.626 1.0, -3.126 -0.626 1.0, -3.126 -0.5276 3.3622, -2.874 -0.5276 3.3622, -3.126 -0.4724 3.3622, -2.874 -0.4724 3.3622, -3.126 -0.374 3.2638, -2.874 -0.374 3.2638, -3.126 -0.374 1.0, -2.874 -0.374 1.0, -3.126 0.5276 -1.1811, -3.126 0.626 -1.0827, -2.874 0.5276 -1.1811, -2.874 0.626 -1.0827, -3.126 0.4724 -1.1811, -2.874 0.4724 -1.1811, -3.126 0.374 -1.0827, -2.874 0.374 -1.0827, -2.874 0.374 0.1969, -2.874 0.626 0.1969, -3.126 0.374 0.1969, -3.126 0.626 0.1969, -2.874 0.374 3.2638, -3.126 0.374 3.2638, -2.874 0.374 1.0, -3.126 0.374 1.0, -3.126 0.4724 3.3622, -2.874 0.4724 3.3622, -3.126 0.5276 3.3622, -2.874 0.5276 3.3622, -3.126 0.626 3.2638, -2.874 0.626 3.2638, -3.126 0.626 1.0, -2.874 0.626 1.0, -2.126 -0.4724 -1.1811, -2.126 -0.374 -1.0827, -1.874 -0.4724 -1.1811, -1.874 -0.374 -1.0827, -2.126 -0.5276 -1.1811, -1.874 -0.5276 -1.1811, -2.126 -0.626 -1.0827, -1.874 -0.626 -1.0827, -1.874 -0.626 0.1969, -1.874 -0.374 0.1969, -2.126 -0.626 0.1969, -2.126 -0.374 0.1969, -1.874 -0.626 3.2638, -2.126 -0.626 3.2638, -1.874 -0.626 1.0, -2.126 -0.626 1.0, -2.126 -0.5276 3.3622, -1.874 -0.5276 3.3622, -2.126 -0.4724 3.3622, -1.874 -0.4724 3.3622, -2.126 -0.374 3.2638, -1.874 -0.374 3.2638, -2.126 -0.374 1.0, -1.874 -0.374 1.0, -2.126 0.5276 -1.1811, -2.126 0.626 -1.0827, -1.874 0.5276 -1.1811, -1.874 0.626 -1.0827, -2.126 0.4724 -1.1811, -1.874 0.4724 -1.1811, -2.126 0.374 -1.0827, -1.874 0.374 -1.0827, -1.874 0.374 0.1969, -1.874 0.626 0.1969, -2.126 0.374 0.1969, -2.126 0.626 0.1969, -1.874 0.374 3.2638, -2.126 0.374 3.2638, -1.874 0.374 1.0, -2.126 0.374 1.0, -2.126 0.4724 3.3622, -1.874 0.4724 3.3622, -2.126 0.5276 3.3622, -1.874 0.5276 3.3622, -2.126 0.626 3.2638, -1.874 0.626 3.2638, -2.126 0.626 1.0, -1.874 0.626 1.0, -1.126 -0.4724 -1.1811, -1.126 -0.374 -1.0827, -0.874 -0.4724 -1.1811, -0.874 -0.374 -1.0827, -1.126 -0.5276 -1.1811, -0.874 -0.5276 -1.1811, -1.126 -0.626 -1.0827, -0.874 -0.626 -1.0827, -0.874 -0.626 0.1969, -0.874 -0.374 0.1969, -1.126 -0.626 0.1969, -1.126 -0.374 0.1969, -0.874 -0.626 3.2638, -1.126 -0.626 3.2638, -0.874 -0.626 1.0, -1.126 -0.626 1.0, -1.126 -0.5276 3.3622, -0.874 -0.5276 3.3622, -1.126 -0.4724 3.3622, -0.874 -0.4724 3.3622, -1.126 -0.374 3.2638, -0.874 -0.374 3.2638, -1.126 -0.374 1.0, -0.874 -0.374 1.0, -1.126 0.5276 -1.1811, -1.126 0.626 -1.0827, -0.874 0.5276 -1.1811, -0.874 0.626 -1.0827, -1.126 0.4724 -1.1811, -0.874 0.4724 -1.1811, -1.126 0.374 -1.0827, -0.874 0.374 -1.0827, -0.874 0.626 0.1969, -0.874 0.374 0.1969, -1.126 0.626 0.1969, -1.126 0.374 0.1969, -0.874 0.374 3.2638, -1.126 0.374 3.2638, -0.874 0.374 1.0, -1.126 0.374 1.0, -1.126 0.4724 3.3622, -0.874 0.4724 3.3622, -1.126 0.5276 3.3622, -0.874 0.5276 3.3622, -1.126 0.626 3.2638, -0.874 0.626 3.2638, -1.126 0.626 1.0, -0.874 0.626 1.0, -0.126 -0.4724 -1.1811, -0.126 -0.374 -1.0827, 0.126 -0.4724 -1.1811, 0.126 -0.374 -1.0827, -0.126 -0.5276 -1.1811, 0.126 -0.5276 -1.1811, -0.126 -0.626 -1.0827, 0.126 -0.626 -1.0827, 0.126 -0.626 0.1969, 0.126 -0.374 0.1969, -0.126 -0.626 0.1969, -0.126 -0.374 0.1969, -0.1223 -0.374 0.1969, -0.1223 -0.626 0.1969, 0.126 -0.626 3.2638, -0.126 -0.626 3.2638, 0.126 -0.626 1.0, -0.126 -0.626 1.0, -0.126 -0.5276 3.3622, 0.126 -0.5276 3.3622, -0.126 -0.4724 3.3622, 0.126 -0.4724 3.3622, -0.126 -0.374 3.2638, 0.126 -0.374 3.2638, -0.126 -0.374 1.0, 0.126 -0.374 1.0, -0.126 0.5276 -1.1811, -0.126 0.626 -1.0827, 0.126 0.5276 -1.1811, 0.126 0.626 -1.0827, -0.126 0.4724 -1.1811, 0.126 0.4724 -1.1811, -0.126 0.374 -1.0827, 0.126 0.374 -1.0827, 0.126 0.626 0.1969, 0.126 0.374 0.1969, -0.126 0.626 0.1969, -0.126 0.374 0.1969, -0.1223 0.626 0.1969, -0.1223 0.374 0.1969, 0.126 0.374 3.2638, -0.126 0.374 3.2638, 0.126 0.374 1.0, -0.126 0.374 1.0, -0.126 0.4724 3.3622, 0.126 0.4724 3.3622, -0.126 0.5276 3.3622, 0.126 0.5276 3.3622, -0.126 0.626 3.2638, 0.126 0.626 3.2638, -0.126 0.626 1.0, 0.126 0.626 1.0, 0.874 -0.4724 -1.1811, 0.874 -0.374 -1.0827, 1.126 -0.4724 -1.1811, 1.126 -0.374 -1.0827, 0.874 -0.5276 -1.1811, 1.126 -0.5276 -1.1811, 0.874 -0.626 -1.0827, 1.126 -0.626 -1.0827, 1.126 -0.626 0.1969, 1.126 -0.374 0.1969, 0.874 -0.626 0.1969, 0.874 -0.374 0.1969, 1.126 -0.626 3.2638, 0.874 -0.626 3.2638, 1.126 -0.626 1.0, 0.874 -0.626 1.0, 0.874 -0.5276 3.3622, 1.126 -0.5276 3.3622, 0.874 -0.4724 3.3622, 1.126 -0.4724 3.3622, 0.874 -0.374 3.2638, 1.126 -0.374 3.2638, 0.874 -0.374 1.0, 1.126 -0.374 1.0, 0.874 0.5276 -1.1811, 0.874 0.626 -1.0827, 1.126 0.5276 -1.1811, 1.126 0.626 -1.0827, 0.874 0.4724 -1.1811, 1.126 0.4724 -1.1811, 0.874 0.374 -1.0827, 1.126 0.374 -1.0827, 1.126 0.626 0.1969, 1.126 0.374 0.1969, 0.874 0.626 0.1969, 0.874 0.374 0.1969, 1.126 0.374 3.2638, 0.874 0.374 3.2638, 1.126 0.374 1.0, 0.874 0.374 1.0, 0.874 0.4724 3.3622, 1.126 0.4724 3.3622, 0.874 0.5276 3.3622, 1.126 0.5276 3.3622, 0.874 0.626 3.2638, 1.126 0.626 3.2638, 0.874 0.626 1.0, 1.126 0.626 1.0, 1.874 -0.4724 -1.1811, 1.874 -0.374 -1.0827, 2.126 -0.4724 -1.1811, 2.126 -0.374 -1.0827, 1.874 -0.5276 -1.1811, 2.126 -0.5276 -1.1811, 1.874 -0.626 -1.0827, 2.126 -0.626 -1.0827, 2.126 -0.374 0.1969, 2.126 -0.626 0.1969, 1.874 -0.374 0.1969, 1.874 -0.626 0.1969, 2.126 -0.626 3.2638, 1.874 -0.626 3.2638, 2.126 -0.626 1.0, 1.874 -0.626 1.0, 1.874 -0.5276 3.3622, 2.126 -0.5276 3.3622, 1.874 -0.4724 3.3622, 2.126 -0.4724 3.3622, 1.874 -0.374 3.2638, 2.126 -0.374 3.2638, 1.874 -0.374 1.0, 2.126 -0.374 1.0, 1.874 0.5276 -1.1811, 1.874 0.626 -1.0827, 2.126 0.5276 -1.1811, 2.126 0.626 -1.0827, 1.874 0.4724 -1.1811, 2.126 0.4724 -1.1811, 1.874 0.374 -1.0827, 2.126 0.374 -1.0827, 2.126 0.626 0.1969, 2.126 0.374 0.1969, 1.874 0.626 0.1969, 1.874 0.374 0.1969, 2.126 0.374 3.2638, 1.874 0.374 3.2638, 2.126 0.374 1.0, 1.874 0.374 1.0, 1.874 0.4724 3.3622, 2.126 0.4724 3.3622, 1.874 0.5276 3.3622, 2.126 0.5276 3.3622, 1.874 0.626 3.2638, 2.126 0.626 3.2638, 1.874 0.626 1.0, 2.126 0.626 1.0, 2.874 -0.4724 -1.1811, 2.874 -0.374 -1.0827, 3.126 -0.4724 -1.1811, 3.126 -0.374 -1.0827, 2.874 -0.5276 -1.1811, 3.126 -0.5276 -1.1811, 2.874 -0.626 -1.0827, 3.126 -0.626 -1.0827, 3.126 -0.626 0.1969, 3.126 -0.374 0.1969, 2.874 -0.374 0.1969, 2.874 -0.626 0.1969, 3.126 -0.626 3.2638, 2.874 -0.626 3.2638, 3.126 -0.626 1.0, 2.874 -0.626 1.0, 2.874 -0.5276 3.3622, 3.126 -0.5276 3.3622, 2.874 -0.4724 3.3622, 3.126 -0.4724 3.3622, 2.874 -0.374 3.2638, 3.126 -0.374 3.2638, 2.874 -0.374 1.0, 3.126 -0.374 1.0, 2.874 0.5276 -1.1811, 2.874 0.626 -1.0827, 3.126 0.5276 -1.1811, 3.126 0.626 -1.0827, 2.874 0.4724 -1.1811, 3.126 0.4724 -1.1811, 2.874 0.374 -1.0827, 3.126 0.374 -1.0827, 3.126 0.374 0.1969, 3.126 0.626 0.1969, 2.874 0.374 0.1969, 2.874 0.626 0.1969, 3.126 0.374 3.2638, 2.874 0.374 3.2638, 3.126 0.374 1.0, 2.874 0.374 1.0, 2.874 0.4724 3.3622, 3.126 0.4724 3.3622, 2.874 0.5276 3.3622, 3.126 0.5276 3.3622, 2.874 0.626 3.2638, 3.126 0.626 3.2638, 2.874 0.626 1.0, 3.126 0.626 1.0, 3.874 -0.4724 -1.1811, 3.874 -0.374 -1.0827, 4.126 -0.4724 -1.1811, 4.126 -0.374 -1.0827, 3.874 -0.5276 -1.1811, 4.126 -0.5276 -1.1811, 3.874 -0.626 -1.0827, 4.126 -0.626 -1.0827, 4.126 -0.626 0.1969, 4.126 -0.374 0.1969, 3.874 -0.374 0.1969, 3.874 -0.626 0.1969, 4.126 -0.626 3.2638, 3.874 -0.626 3.2638, 4.126 -0.626 1.0, 3.874 -0.626 1.0, 3.874 -0.5276 3.3622, 4.126 -0.5276 3.3622, 3.874 -0.4724 3.3622, 4.126 -0.4724 3.3622, 3.874 -0.374 3.2638, 4.126 -0.374 3.2638, 3.874 -0.374 1.0, 4.126 -0.374 1.0, 3.874 0.5276 -1.1811, 3.874 0.626 -1.0827, 4.126 0.5276 -1.1811, 4.126 0.626 -1.0827, 3.874 0.4724 -1.1811, 4.126 0.4724 -1.1811, 3.874 0.374 -1.0827, 4.126 0.374 -1.0827, 4.126 0.374 0.1969, 4.126 0.626 0.1969, 3.874 0.374 0.1969, 3.874 0.626 0.1969, 4.126 0.374 3.2638, 3.874 0.374 3.2638, 4.126 0.374 1.0, 3.874 0.374 1.0, 3.874 0.4724 3.3622, 4.126 0.4724 3.3622, 3.874 0.5276 3.3622, 4.126 0.5276 3.3622, 3.874 0.626 3.2638, 4.126 0.626 3.2638, 3.874 0.626 1.0, 4.126 0.626 1.0, 4.874 -0.4724 -1.1811, 4.874 -0.374 -1.0827, 5.126 -0.4724 -1.1811, 5.126 -0.374 -1.0827, 4.874 -0.5276 -1.1811, 5.126 -0.5276 -1.1811, 4.874 -0.626 -1.0827, 5.126 -0.626 -1.0827, 5.126 -0.626 0.1969, 5.126 -0.374 0.1969, 4.874 -0.374 0.1969, 4.874 -0.626 0.1969, 5.126 -0.626 3.2638, 4.874 -0.626 3.2638, 5.126 -0.626 1.0, 4.874 -0.626 1.0, 4.874 -0.5276 3.3622, 5.126 -0.5276 3.3622, 4.874 -0.4724 3.3622, 5.126 -0.4724 3.3622, 4.874 -0.374 3.2638, 5.126 -0.374 3.2638, 4.874 -0.374 1.0, 5.126 -0.374 1.0, 4.874 0.5276 -1.1811, 4.874 0.626 -1.0827, 5.126 0.5276 -1.1811, 5.126 0.626 -1.0827, 4.874 0.4724 -1.1811, 5.126 0.4724 -1.1811, 4.874 0.374 -1.0827, 5.126 0.374 -1.0827, 5.126 0.626 0.1969, 5.126 0.374 0.1969, 4.874 0.626 0.1969, 4.874 0.374 0.1969, 5.126 0.374 3.2638, 4.874 0.374 3.2638, 5.126 0.374 1.0, 4.874 0.374 1.0, 4.874 0.4724 3.3622, 5.126 0.4724 3.3622, 4.874 0.5276 3.3622, 5.126 0.5276 3.3622, 4.874 0.626 3.2638, 5.126 0.626 3.2638, 4.874 0.626 1.0, 5.126 0.626 1.0, 5.874 -0.4724 -1.1811, 5.874 -0.374 -1.0827, 6.126 -0.4724 -1.1811, 6.126 -0.374 -1.0827, 5.874 -0.5276 -1.1811, 6.126 -0.5276 -1.1811, 5.874 -0.626 -1.0827, 6.126 -0.626 -1.0827, 6.126 -0.626 0.1969, 6.126 -0.374 0.1969, 5.874 -0.374 0.1969, 5.874 -0.626 0.1969, 6.126 -0.626 3.2638, 5.874 -0.626 3.2638, 6.126 -0.626 1.0, 5.874 -0.626 1.0, 5.874 -0.5276 3.3622, 6.126 -0.5276 3.3622, 5.874 -0.4724 3.3622, 6.126 -0.4724 3.3622, 5.874 -0.374 3.2638, 6.126 -0.374 3.2638, 5.874 -0.374 1.0, 6.126 -0.374 1.0, 5.874 0.5276 -1.1811, 5.874 0.626 -1.0827, 6.126 0.5276 -1.1811, 6.126 0.626 -1.0827, 5.874 0.4724 -1.1811, 6.126 0.4724 -1.1811, 5.874 0.374 -1.0827, 6.126 0.374 -1.0827, 6.126 0.626 0.1969, 6.126 0.374 0.1969, 5.874 0.626 0.1969, 5.874 0.374 0.1969, 6.126 0.374 3.2638, 5.874 0.374 3.2638, 6.126 0.374 1.0, 5.874 0.374 1.0, 5.874 0.4724 3.3622, 6.126 0.4724 3.3622, 5.874 0.5276 3.3622, 6.126 0.5276 3.3622, 5.874 0.626 3.2638, 6.126 0.626 3.2638, 5.874 0.626 1.0, 6.126 0.626 1.0, -0.8 0.1969 0.2362, -0.8025 0.1969 0.2362, -0.8 0.1969 0.1969, -0.8025 0.1969 0.1969, -0.8934 0.0 0.2362, -0.8934 0.0 0.1969, -0.8742 0.0 0.2362, -0.8742 0.0 0.1969, -0.8451 0.0631 0.2362, -0.8451 0.0631 0.1969, -0.7903 0.0631 0.1969, -0.7559 0.0631 0.2362, -0.7559 0.0631 0.1969, -0.7259 0.0 0.2362, -0.7259 0.0 0.1969, -0.7066 0.0 0.2362, -0.7066 0.0 0.1969, -0.7903 0.1764 0.1969, -0.8358 0.0833 0.2362, -0.7654 0.0833 0.2362, -0.8011 0.1585 0.2362, -0.8358 0.0833 0.1969, -0.8011 0.1585 0.1969, -0.7654 0.0833 0.1969, -0.5809 0.0 0.2362, -0.5199 0.0 0.2362, -0.5809 0.0 0.1969, -0.5199 0.0 0.1969, -0.5199 0.1969 0.2362, -0.5199 0.1969 0.1969, -0.5596 0.1969 0.2362, -0.5596 0.1969 0.1969, -0.6221 0.1898 0.2362, -0.6221 0.1898 0.1969, -0.5912 0.1956 0.1969, -0.5912 0.1956 0.2362, -0.6814 0.0959 0.2362, -0.6814 0.0959 0.1969, -0.6811 0.1051 0.1969, -0.6811 0.1051 0.2362, -0.6772 0.1289 0.1969, -0.6772 0.1289 0.2362, -0.6689 0.1494 0.1969, -0.6689 0.1494 0.2362, -0.6564 0.1672 0.1969, -0.6564 0.1672 0.2362, -0.642 0.1797 0.1969, -0.642 0.1797 0.2362, -0.604 0.0013 0.1969, -0.604 0.0013 0.2362, -0.628 0.0068 0.1969, -0.628 0.0068 0.2362, -0.6428 0.0144 0.1969, -0.6428 0.0144 0.2362, -0.6575 0.0274 0.1969, -0.6575 0.0274 0.2362, -0.6709 0.0477 0.1969, -0.6709 0.0477 0.2362, -0.6786 0.0696 0.1969, -0.6786 0.0696 0.2362, -0.5818 0.1757 0.2362, -0.6119 0.1711 0.2362, -0.6207 0.1679 0.2362, -0.6354 0.1593 0.2362, -0.6468 0.1482 0.2362, -0.6558 0.1338 0.2362, -0.6616 0.1169 0.2362, -0.6637 0.096 0.2362, -0.6636 0.0905 0.2362, -0.6601 0.0697 0.2362, -0.6536 0.0548 0.2362, -0.6438 0.0419 0.2362, -0.6321 0.0324 0.2362, -0.6164 0.0252 0.2362, -0.5885 0.021 0.2362, -0.5601 0.0202 0.2362, -0.5376 0.0202 0.2362, -0.5376 0.1767 0.2362, -0.5514 0.1767 0.2362, -0.5376 0.1767 0.1969, -0.5376 0.0202 0.1969, -0.5514 0.1767 0.1969, -0.5818 0.1757 0.1969, -0.6119 0.1711 0.1969, -0.6207 0.1679 0.1969, -0.6354 0.1593 0.1969, -0.6468 0.1482 0.1969, -0.6558 0.1338 0.1969, -0.6616 0.1169 0.1969, -0.6637 0.096 0.1969, -0.6636 0.0905 0.1969, -0.6601 0.0697 0.1969, -0.6536 0.0548 0.1969, -0.6438 0.0419 0.1969, -0.6321 0.0324 0.1969, -0.6164 0.0252 0.1969, -0.5885 0.021 0.1969, -0.5601 0.0202 0.1969, -0.3735 0.0 0.2362, -0.3735 0.1969 0.2362, -0.3735 0.0 0.1969, -0.3735 0.1969 0.1969, -0.4846 0.1969 0.2362, -0.4846 0.1969 0.1969, -0.4846 0.1767 0.2362, -0.4846 0.1767 0.1969, -0.3912 0.1767 0.2362, -0.3912 0.1767 0.1969, -0.3912 0.1161 0.2362, -0.3912 0.1161 0.1969, -0.4846 0.1161 0.2362, -0.4846 0.1161 0.1969, -0.4846 0.0959 0.2362, -0.4846 0.0959 0.1969, -0.3912 0.0959 0.2362, -0.3912 0.0959 0.1969, -0.3912 0.0202 0.2362, -0.3912 0.0202 0.1969, -0.4846 0.0202 0.2362, -0.4846 0.0202 0.1969, -0.4846 0.0 0.2362, -0.4846 0.0 0.1969, -0.2472 0.2019 0.1969, -0.2472 0.2019 0.2362, -0.2692 0.1994 0.1969, -0.2759 0.1986 0.2362, -0.2759 0.1986 0.1969, -0.2938 0.1924 0.2362, -0.2938 0.1924 0.1969, -0.3153 0.1794 0.2362, -0.3153 0.1794 0.1969, -0.3273 0.168 0.2362, -0.3273 0.168 0.1969, -0.3331 0.1607 0.2362, -0.3331 0.1607 0.1969, -0.3177 0.1489 0.2362, -0.3177 0.1489 0.1969, -0.2461 0.1817 0.2362, -0.2461 0.1817 0.1969, -0.253 0.1815 0.1969, -0.253 0.1815 0.2362, -0.2747 0.1777 0.1969, -0.2747 0.1777 0.2362, -0.2834 0.1746 0.1969, -0.2834 0.1746 0.2362, -0.3019 0.1642 0.1969, -0.3019 0.1642 0.2362, -0.159 0.0982 0.2362, -0.159 0.0982 0.1969, -0.1594 0.1075 0.1969, -0.1594 0.1075 0.2362, -0.1637 0.1266 0.1969, -0.1637 0.1266 0.2362, -0.1724 0.1441 0.1969, -0.1724 0.1441 0.2362, -0.1847 0.1583 0.1969, -0.1847 0.1583 0.2362, -0.2028 0.1711 0.1969, -0.2028 0.1711 0.2362, -0.2229 0.1788 0.1969, -0.2229 0.1788 0.2362, -0.2474 0.0151 0.2362, -0.2474 0.0151 0.1969, -0.2317 0.0162 0.1969, -0.2317 0.0162 0.2362, -0.2117 0.0214 0.1969, -0.2117 0.0214 0.2362, -0.1926 0.0318 0.1969, -0.1926 0.0318 0.2362, -0.1784 0.0448 0.1969, -0.1784 0.0448 0.2362, -0.1678 0.0602 0.1969, -0.1678 0.0602 0.2362, -0.1616 0.0765 0.1969, -0.1616 0.0765 0.2362, -0.3177 0.048 0.2362, -0.3177 0.048 0.1969, -0.3068 0.037 0.1969, -0.3068 0.037 0.2362, -0.2894 0.025 0.1969, -0.2894 0.025 0.2362, -0.2704 0.0179 0.1969, -0.2704 0.0179 0.2362, -0.3331 0.0362 0.2362, -0.3331 0.0362 0.1969, -0.2475 -0.005 0.2362, -0.2475 -0.005 0.1969, -0.2573 -0.0047 0.1969, -0.2573 -0.0047 0.2362, -0.273 -0.0024 0.1969, -0.273 -0.0024 0.2362, -0.2954 0.0052 0.1969, -0.2954 0.0052 0.2362, -0.3158 0.018 0.1969, -0.3158 0.018 0.2362, -0.1663 0.0294 0.2362, -0.1663 0.0294 0.1969, -0.1742 0.0212 0.1969, -0.1742 0.0212 0.2362, -0.1932 0.0075 0.1969, -0.1932 0.0075 0.2362, -0.2168 -0.0015 0.1969, -0.2168 -0.0015 0.2362, -0.1413 0.0996 0.2362, -0.1413 0.0996 0.1969, -0.1441 0.0736 0.1969, -0.1441 0.0736 0.2362, -0.152 0.051 0.1969, -0.152 0.051 0.2362, -0.2315 0.201 0.1969, -0.2315 0.201 0.2362, -0.2248 0.1994 0.1969, -0.2075 0.1953 0.2362, -0.2075 0.1953 0.1969, -0.1866 0.1847 0.1969, -0.1866 0.1847 0.2362, -0.1661 0.1667 0.1969, -0.1661 0.1667 0.2362, -0.1526 0.1473 0.1969, -0.1526 0.1473 0.2362, -0.1446 0.1265 0.1969, -0.1446 0.1265 0.2362, -0.0252 0.0 0.2362, -0.0252 0.1969 0.2362, -0.0252 0.0 0.1969, -0.0252 0.1969 0.1969, -0.0429 0.1969 0.2362, -0.0429 0.1969 0.1969, -0.0429 0.0202 0.2362, -0.0429 0.0202 0.1969, -0.1186 0.0202 0.2362, -0.1186 0.0202 0.1969, -0.1186 0.0 0.2362, -0.1186 0.0 0.1969
            ]
        }
        coordIndex [
            0,1,2,-1,2,1,3,-1,4,0,5,-1,5,0,2,-1,6,4,7,-1,7,4,5,-1,5,2,7,-1,7,2,3,-1,7,3,8,-1,8,3,9,-1,0,4,1,-1,1,4,6,-1,1,6,10,-1,10,6,11,-1,9,3,10,-1,10,3,1,-1,11,6,8,-1,8,6,7,-1,12,13,14,-1,14,13,15,-1,16,13,17,-1,17,13,12,-1,18,16,19,-1,19,16,17,-1,20,18,21,-1,21,18,19,-1,20,21,22,-1,22,21,23,-1,16,18,13,-1,13,18,20,-1,13,20,15,-1,15,20,22,-1,19,17,21,-1,21,17,12,-1,21,12,23,-1,23,12,14,-1,24,25,26,-1,26,25,27,-1,28,24,29,-1,29,24,26,-1,30,28,31,-1,31,28,29,-1,32,33,27,-1,27,33,31,-1,27,31,26,-1,26,31,29,-1,24,28,25,-1,25,28,30,-1,25,30,34,-1,34,30,35,-1,32,27,34,-1,34,27,25,-1,35,30,33,-1,33,30,31,-1,36,37,38,-1,38,37,39,-1,40,37,41,-1,41,37,36,-1,42,40,43,-1,43,40,41,-1,44,42,45,-1,45,42,43,-1,44,45,46,-1,46,45,47,-1,40,42,37,-1,37,42,44,-1,37,44,39,-1,39,44,46,-1,43,41,45,-1,45,41,36,-1,45,36,47,-1,47,36,38,-1,48,49,50,-1,50,49,51,-1,52,48,53,-1,53,48,50,-1,54,52,55,-1,55,52,53,-1,56,57,51,-1,51,57,55,-1,51,55,50,-1,50,55,53,-1,48,52,49,-1,49,52,54,-1,49,54,58,-1,58,54,59,-1,56,51,58,-1,58,51,49,-1,59,54,57,-1,57,54,55,-1,60,61,62,-1,62,61,63,-1,64,61,65,-1,65,61,60,-1,66,64,67,-1,67,64,65,-1,68,66,69,-1,69,66,67,-1,68,69,70,-1,70,69,71,-1,70,63,68,-1,68,63,61,-1,68,61,66,-1,66,61,64,-1,67,65,69,-1,69,65,60,-1,69,60,71,-1,71,60,62,-1,72,73,74,-1,74,73,75,-1,76,72,77,-1,77,72,74,-1,78,76,79,-1,79,76,77,-1,80,81,75,-1,75,81,79,-1,75,79,74,-1,74,79,77,-1,72,76,73,-1,73,76,78,-1,73,78,82,-1,82,78,83,-1,80,75,82,-1,82,75,73,-1,83,78,81,-1,81,78,79,-1,84,85,86,-1,86,85,87,-1,88,85,89,-1,89,85,84,-1,90,88,91,-1,91,88,89,-1,92,90,93,-1,93,90,91,-1,92,93,94,-1,94,93,95,-1,88,90,85,-1,85,90,92,-1,85,92,87,-1,87,92,94,-1,91,89,93,-1,93,89,84,-1,93,84,95,-1,95,84,86,-1,96,97,98,-1,98,97,99,-1,100,96,101,-1,101,96,98,-1,102,100,103,-1,103,100,101,-1,101,98,103,-1,103,98,99,-1,103,99,104,-1,104,99,105,-1,106,107,102,-1,102,107,97,-1,102,97,100,-1,100,97,96,-1,105,99,107,-1,107,99,97,-1,106,102,104,-1,104,102,103,-1,108,109,110,-1,110,109,111,-1,112,109,113,-1,113,109,108,-1,114,112,115,-1,115,112,113,-1,116,114,117,-1,117,114,115,-1,116,117,118,-1,118,117,119,-1,118,111,116,-1,116,111,109,-1,116,109,114,-1,114,109,112,-1,115,113,117,-1,117,113,108,-1,117,108,119,-1,119,108,110,-1,120,121,122,-1,122,121,123,-1,124,120,125,-1,125,120,122,-1,126,124,127,-1,127,124,125,-1,125,122,127,-1,127,122,123,-1,127,123,128,-1,128,123,129,-1,130,131,126,-1,126,131,121,-1,126,121,124,-1,124,121,120,-1,129,123,131,-1,131,123,121,-1,130,126,128,-1,128,126,127,-1,132,133,134,-1,134,133,135,-1,136,133,137,-1,137,133,132,-1,138,136,139,-1,139,136,137,-1,140,138,141,-1,141,138,139,-1,140,141,142,-1,142,141,143,-1,142,135,140,-1,140,135,133,-1,140,133,138,-1,138,133,136,-1,139,137,141,-1,141,137,132,-1,141,132,143,-1,143,132,134,-1,144,145,146,-1,146,145,147,-1,148,144,149,-1,149,144,146,-1,150,148,151,-1,151,148,149,-1,149,146,151,-1,151,146,147,-1,151,147,152,-1,152,147,153,-1,154,155,150,-1,150,155,145,-1,150,145,148,-1,148,145,144,-1,153,147,155,-1,155,147,145,-1,154,150,152,-1,152,150,151,-1,156,157,158,-1,158,157,159,-1,160,157,161,-1,161,157,156,-1,162,160,163,-1,163,160,161,-1,164,162,165,-1,165,162,163,-1,164,165,166,-1,166,165,167,-1,160,162,157,-1,157,162,164,-1,157,164,159,-1,159,164,166,-1,163,161,165,-1,165,161,156,-1,165,156,167,-1,167,156,158,-1,168,169,170,-1,170,169,171,-1,172,168,173,-1,173,168,170,-1,174,172,175,-1,175,172,173,-1,173,170,175,-1,175,170,171,-1,175,171,176,-1,176,171,177,-1,178,179,174,-1,174,179,169,-1,174,169,172,-1,172,169,168,-1,177,171,179,-1,179,171,169,-1,178,174,176,-1,176,174,175,-1,180,181,182,-1,182,181,183,-1,184,181,185,-1,185,181,180,-1,186,184,187,-1,187,184,185,-1,188,186,189,-1,189,186,187,-1,188,189,190,-1,190,189,191,-1,184,186,181,-1,181,186,188,-1,181,188,183,-1,183,188,190,-1,182,191,180,-1,180,191,189,-1,180,189,185,-1,185,189,187,-1,192,193,194,-1,194,193,195,-1,196,192,197,-1,197,192,194,-1,198,196,199,-1,199,196,197,-1,197,194,199,-1,199,194,195,-1,199,195,200,-1,200,195,201,-1,202,203,198,-1,198,203,193,-1,198,193,196,-1,196,193,192,-1,201,195,203,-1,203,195,193,-1,202,198,200,-1,200,198,199,-1,204,205,206,-1,206,205,207,-1,208,205,209,-1,209,205,204,-1,210,208,211,-1,211,208,209,-1,212,210,213,-1,213,210,211,-1,212,213,214,-1,214,213,215,-1,208,210,205,-1,205,210,212,-1,205,212,207,-1,207,212,214,-1,211,209,213,-1,213,209,204,-1,213,204,215,-1,215,204,206,-1,216,217,218,-1,218,217,219,-1,220,216,221,-1,221,216,218,-1,222,220,223,-1,223,220,221,-1,224,225,219,-1,219,225,223,-1,219,223,218,-1,218,223,221,-1,216,220,217,-1,217,220,222,-1,217,222,226,-1,226,222,227,-1,224,219,226,-1,226,219,217,-1,227,222,225,-1,225,222,223,-1,228,229,230,-1,230,229,231,-1,232,229,233,-1,233,229,228,-1,234,232,235,-1,235,232,233,-1,236,234,237,-1,237,234,235,-1,236,237,238,-1,238,237,239,-1,232,234,229,-1,229,234,236,-1,229,236,231,-1,231,236,238,-1,235,233,237,-1,237,233,228,-1,237,228,239,-1,239,228,230,-1,240,241,242,-1,242,241,243,-1,244,240,245,-1,245,240,242,-1,246,244,247,-1,247,244,245,-1,245,242,247,-1,247,242,243,-1,247,243,248,-1,248,243,249,-1,250,251,246,-1,246,251,241,-1,246,241,244,-1,244,241,240,-1,241,251,243,-1,243,251,252,-1,243,252,249,-1,250,246,253,-1,253,246,247,-1,253,247,248,-1,254,255,256,-1,256,255,257,-1,258,255,259,-1,259,255,254,-1,260,258,261,-1,261,258,259,-1,262,260,263,-1,263,260,261,-1,262,263,264,-1,264,263,265,-1,258,260,255,-1,255,260,262,-1,255,262,257,-1,257,262,264,-1,261,259,263,-1,263,259,254,-1,263,254,265,-1,265,254,256,-1,266,267,268,-1,268,267,269,-1,270,266,271,-1,271,266,268,-1,272,270,273,-1,273,270,271,-1,274,275,269,-1,269,275,273,-1,269,273,268,-1,268,273,271,-1,266,270,267,-1,267,270,272,-1,267,272,276,-1,276,272,277,-1,267,276,269,-1,269,276,278,-1,269,278,274,-1,277,272,279,-1,279,272,273,-1,279,273,275,-1,280,281,282,-1,282,281,283,-1,284,281,285,-1,285,281,280,-1,286,284,287,-1,287,284,285,-1,288,286,289,-1,289,286,287,-1,288,289,290,-1,290,289,291,-1,284,286,281,-1,281,286,288,-1,281,288,283,-1,283,288,290,-1,287,285,289,-1,289,285,280,-1,289,280,291,-1,291,280,282,-1,292,293,294,-1,294,293,295,-1,296,292,297,-1,297,292,294,-1,298,296,299,-1,299,296,297,-1,297,294,299,-1,299,294,295,-1,299,295,300,-1,300,295,301,-1,302,303,298,-1,298,303,293,-1,298,293,296,-1,296,293,292,-1,301,295,303,-1,303,295,293,-1,302,298,300,-1,300,298,299,-1,304,305,306,-1,306,305,307,-1,308,305,309,-1,309,305,304,-1,310,308,311,-1,311,308,309,-1,312,310,313,-1,313,310,311,-1,312,313,314,-1,314,313,315,-1,308,310,305,-1,305,310,312,-1,305,312,307,-1,307,312,314,-1,311,309,313,-1,313,309,304,-1,313,304,315,-1,315,304,306,-1,316,317,318,-1,318,317,319,-1,320,316,321,-1,321,316,318,-1,322,320,323,-1,323,320,321,-1,324,325,319,-1,319,325,323,-1,319,323,318,-1,318,323,321,-1,316,320,317,-1,317,320,322,-1,317,322,326,-1,326,322,327,-1,324,319,326,-1,326,319,317,-1,327,322,325,-1,325,322,323,-1,328,329,330,-1,330,329,331,-1,332,329,333,-1,333,329,328,-1,334,332,335,-1,335,332,333,-1,336,334,337,-1,337,334,335,-1,336,337,338,-1,338,337,339,-1,332,334,329,-1,329,334,336,-1,329,336,331,-1,331,336,338,-1,335,333,337,-1,337,333,328,-1,337,328,339,-1,339,328,330,-1,340,341,342,-1,342,341,343,-1,344,340,345,-1,345,340,342,-1,346,344,347,-1,347,344,345,-1,348,349,343,-1,343,349,347,-1,343,347,342,-1,342,347,345,-1,340,344,341,-1,341,344,346,-1,341,346,350,-1,350,346,351,-1,348,343,350,-1,350,343,341,-1,351,346,349,-1,349,346,347,-1,352,353,354,-1,354,353,355,-1,356,353,357,-1,357,353,352,-1,358,356,359,-1,359,356,357,-1,360,358,361,-1,361,358,359,-1,360,361,362,-1,362,361,363,-1,362,355,360,-1,360,355,353,-1,360,353,358,-1,358,353,356,-1,359,357,361,-1,361,357,352,-1,361,352,363,-1,363,352,354,-1,364,365,366,-1,366,365,367,-1,368,364,369,-1,369,364,366,-1,370,368,371,-1,371,368,369,-1,372,373,367,-1,367,373,371,-1,367,371,366,-1,366,371,369,-1,364,368,365,-1,365,368,370,-1,365,370,374,-1,374,370,375,-1,372,367,374,-1,374,367,365,-1,375,370,373,-1,373,370,371,-1,376,377,378,-1,378,377,379,-1,380,377,381,-1,381,377,376,-1,382,380,383,-1,383,380,381,-1,384,382,385,-1,385,382,383,-1,384,385,386,-1,386,385,387,-1,380,382,377,-1,377,382,384,-1,377,384,379,-1,379,384,386,-1,383,381,385,-1,385,381,376,-1,385,376,387,-1,387,376,378,-1,388,389,390,-1,390,389,391,-1,392,388,393,-1,393,388,390,-1,394,392,395,-1,395,392,393,-1,393,390,395,-1,395,390,391,-1,395,391,396,-1,396,391,397,-1,388,392,389,-1,389,392,394,-1,389,394,398,-1,398,394,399,-1,397,391,398,-1,398,391,389,-1,399,394,396,-1,396,394,395,-1,400,401,402,-1,402,401,403,-1,404,401,405,-1,405,401,400,-1,406,404,407,-1,407,404,405,-1,408,406,409,-1,409,406,407,-1,408,409,410,-1,410,409,411,-1,404,406,401,-1,401,406,408,-1,401,408,403,-1,403,408,410,-1,407,405,409,-1,409,405,400,-1,409,400,411,-1,411,400,402,-1,412,413,414,-1,414,413,415,-1,416,412,417,-1,417,412,414,-1,418,416,419,-1,419,416,417,-1,417,414,419,-1,419,414,415,-1,419,415,420,-1,420,415,421,-1,422,423,418,-1,418,423,413,-1,418,413,416,-1,416,413,412,-1,421,415,423,-1,423,415,413,-1,422,418,420,-1,420,418,419,-1,424,425,426,-1,426,425,427,-1,428,425,429,-1,429,425,424,-1,430,428,431,-1,431,428,429,-1,432,430,433,-1,433,430,431,-1,432,433,434,-1,434,433,435,-1,428,430,425,-1,425,430,432,-1,425,432,427,-1,427,432,434,-1,426,435,424,-1,424,435,433,-1,424,433,429,-1,429,433,431,-1,436,437,438,-1,438,437,439,-1,440,436,441,-1,441,436,438,-1,442,440,443,-1,443,440,441,-1,441,438,443,-1,443,438,439,-1,443,439,444,-1,444,439,445,-1,436,440,437,-1,437,440,442,-1,437,442,446,-1,446,442,447,-1,445,439,446,-1,446,439,437,-1,447,442,444,-1,444,442,443,-1,448,449,450,-1,450,449,451,-1,452,449,453,-1,453,449,448,-1,454,452,455,-1,455,452,453,-1,456,454,457,-1,457,454,455,-1,456,457,458,-1,458,457,459,-1,452,454,449,-1,449,454,456,-1,449,456,451,-1,451,456,458,-1,455,453,457,-1,457,453,448,-1,457,448,459,-1,459,448,450,-1,460,461,462,-1,462,461,463,-1,464,460,465,-1,465,460,462,-1,466,464,467,-1,467,464,465,-1,465,462,467,-1,467,462,463,-1,467,463,468,-1,468,463,469,-1,470,471,466,-1,466,471,461,-1,466,461,464,-1,464,461,460,-1,469,463,471,-1,471,463,461,-1,470,466,468,-1,468,466,467,-1,472,473,474,-1,474,473,475,-1,476,473,477,-1,477,473,472,-1,478,476,479,-1,479,476,477,-1,480,478,481,-1,481,478,479,-1,480,481,482,-1,482,481,483,-1,476,478,473,-1,473,478,480,-1,473,480,475,-1,475,480,482,-1,474,483,472,-1,472,483,481,-1,472,481,477,-1,477,481,479,-1,484,485,486,-1,486,485,487,-1,488,484,489,-1,489,484,486,-1,490,488,491,-1,491,488,489,-1,489,486,491,-1,491,486,487,-1,491,487,492,-1,492,487,493,-1,484,488,485,-1,485,488,490,-1,485,490,494,-1,494,490,495,-1,493,487,494,-1,494,487,485,-1,495,490,492,-1,492,490,491,-1,496,497,498,-1,498,497,499,-1,500,497,501,-1,501,497,496,-1,502,500,503,-1,503,500,501,-1,504,502,505,-1,505,502,503,-1,504,505,506,-1,506,505,507,-1,500,502,497,-1,497,502,504,-1,497,504,499,-1,499,504,506,-1,503,501,505,-1,505,501,496,-1,505,496,507,-1,507,496,498,-1,508,509,510,-1,510,509,511,-1,512,508,513,-1,513,508,510,-1,514,512,515,-1,515,512,513,-1,516,517,511,-1,511,517,515,-1,511,515,510,-1,510,515,513,-1,508,512,509,-1,509,512,514,-1,509,514,518,-1,518,514,519,-1,516,511,518,-1,518,511,509,-1,519,514,517,-1,517,514,515,-1,520,521,522,-1,522,521,523,-1,524,521,525,-1,525,521,520,-1,526,524,527,-1,527,524,525,-1,528,526,529,-1,529,526,527,-1,528,529,530,-1,530,529,531,-1,524,526,521,-1,521,526,528,-1,521,528,523,-1,523,528,530,-1,527,525,529,-1,529,525,520,-1,529,520,531,-1,531,520,522,-1,532,533,534,-1,534,533,535,-1,536,532,537,-1,537,532,534,-1,538,536,539,-1,539,536,537,-1,537,534,539,-1,539,534,535,-1,539,535,540,-1,540,535,541,-1,532,536,533,-1,533,536,538,-1,533,538,542,-1,542,538,543,-1,541,535,542,-1,542,535,533,-1,543,538,540,-1,540,538,539,-1,544,545,546,-1,546,545,547,-1,548,545,549,-1,549,545,544,-1,550,548,551,-1,551,548,549,-1,552,550,553,-1,553,550,551,-1,552,553,554,-1,554,553,555,-1,548,550,545,-1,545,550,552,-1,545,552,547,-1,547,552,554,-1,551,549,553,-1,553,549,544,-1,553,544,555,-1,555,544,546,-1,556,557,558,-1,558,557,559,-1,560,556,561,-1,561,556,558,-1,562,560,563,-1,563,560,561,-1,564,565,559,-1,559,565,563,-1,559,563,558,-1,558,563,561,-1,556,560,557,-1,557,560,562,-1,557,562,566,-1,566,562,567,-1,564,559,566,-1,566,559,557,-1,567,562,565,-1,565,562,563,-1,568,569,570,-1,570,569,571,-1,572,569,573,-1,573,569,568,-1,574,572,575,-1,575,572,573,-1,576,574,577,-1,577,574,575,-1,576,577,578,-1,578,577,579,-1,572,574,569,-1,569,574,576,-1,569,576,571,-1,571,576,578,-1,575,573,577,-1,577,573,568,-1,577,568,579,-1,579,568,570,-1,580,581,582,-1,582,581,583,-1,581,584,583,-1,583,584,585,-1,584,586,585,-1,585,586,587,-1,586,588,587,-1,587,588,589,-1,589,588,590,-1,590,588,591,-1,590,591,592,-1,591,593,592,-1,592,593,594,-1,593,595,594,-1,594,595,596,-1,596,595,597,-1,597,595,580,-1,597,580,582,-1,598,584,581,-1,580,599,581,-1,581,599,600,-1,581,600,598,-1,595,593,591,-1,586,584,588,-1,588,584,598,-1,588,598,591,-1,591,598,599,-1,591,599,595,-1,595,599,580,-1,598,600,601,-1,601,600,602,-1,599,598,603,-1,603,598,601,-1,600,599,602,-1,602,599,603,-1,604,605,606,-1,606,605,607,-1,605,608,607,-1,607,608,609,-1,608,610,609,-1,609,610,611,-1,612,613,614,-1,612,614,615,-1,615,614,611,-1,615,611,610,-1,616,617,618,-1,616,618,619,-1,619,618,620,-1,619,620,621,-1,621,620,622,-1,621,622,623,-1,623,622,624,-1,623,624,625,-1,625,624,626,-1,625,626,627,-1,627,626,613,-1,627,613,612,-1,604,606,628,-1,604,628,629,-1,629,628,630,-1,629,630,631,-1,631,630,632,-1,631,632,633,-1,633,632,634,-1,633,634,635,-1,635,634,636,-1,635,636,637,-1,637,636,638,-1,637,638,639,-1,639,638,617,-1,639,617,616,-1,640,641,612,-1,612,641,642,-1,612,642,627,-1,627,642,643,-1,627,643,625,-1,625,643,644,-1,625,644,623,-1,623,644,645,-1,623,645,621,-1,621,645,646,-1,621,646,619,-1,619,646,647,-1,619,647,616,-1,616,647,648,-1,616,648,639,-1,639,648,649,-1,639,649,637,-1,637,649,650,-1,637,650,635,-1,635,650,651,-1,635,651,633,-1,633,651,652,-1,633,652,631,-1,631,652,653,-1,631,653,629,-1,629,653,654,-1,629,654,604,-1,604,654,655,-1,604,655,605,-1,605,655,656,-1,605,656,608,-1,608,656,657,-1,608,657,610,-1,610,657,658,-1,610,658,615,-1,615,658,640,-1,615,640,612,-1,657,656,659,-1,659,656,660,-1,658,657,661,-1,661,657,659,-1,658,661,662,-1,658,662,640,-1,640,662,663,-1,640,663,641,-1,641,663,664,-1,641,664,642,-1,642,664,665,-1,642,665,643,-1,643,665,666,-1,643,666,644,-1,644,666,667,-1,644,667,645,-1,645,667,668,-1,645,668,646,-1,646,668,669,-1,646,669,647,-1,647,669,670,-1,647,670,648,-1,648,670,671,-1,648,671,649,-1,649,671,672,-1,649,672,650,-1,650,672,673,-1,650,673,651,-1,651,673,674,-1,651,674,652,-1,652,674,675,-1,652,675,653,-1,653,675,676,-1,653,676,654,-1,654,676,677,-1,654,677,655,-1,656,655,660,-1,660,655,677,-1,678,679,680,-1,680,679,681,-1,679,682,681,-1,681,682,683,-1,682,684,683,-1,683,684,685,-1,684,686,685,-1,685,686,687,-1,686,688,687,-1,687,688,689,-1,688,690,689,-1,689,690,691,-1,690,692,691,-1,691,692,693,-1,692,694,693,-1,693,694,695,-1,694,696,695,-1,695,696,697,-1,696,698,697,-1,697,698,699,-1,698,700,699,-1,699,700,701,-1,700,678,701,-1,701,678,680,-1,678,700,698,-1,698,696,678,-1,678,696,694,-1,678,694,679,-1,684,682,686,-1,686,682,679,-1,686,679,688,-1,688,679,694,-1,688,694,690,-1,690,694,692,-1,702,703,704,-1,704,703,705,-1,704,705,706,-1,706,705,707,-1,706,707,708,-1,708,707,709,-1,708,709,710,-1,710,709,711,-1,710,711,712,-1,712,711,713,-1,712,713,714,-1,713,715,714,-1,714,715,716,-1,717,718,719,-1,717,719,720,-1,720,719,721,-1,720,721,722,-1,722,721,723,-1,722,723,724,-1,724,723,725,-1,724,725,726,-1,726,725,716,-1,726,716,715,-1,727,728,729,-1,727,729,730,-1,730,729,731,-1,730,731,732,-1,732,731,733,-1,732,733,734,-1,734,733,735,-1,734,735,736,-1,736,735,737,-1,736,737,738,-1,738,737,739,-1,738,739,740,-1,740,739,718,-1,740,718,717,-1,741,742,743,-1,741,743,744,-1,744,743,745,-1,744,745,746,-1,746,745,747,-1,746,747,748,-1,748,747,749,-1,748,749,750,-1,750,749,751,-1,750,751,752,-1,752,751,753,-1,752,753,754,-1,754,753,728,-1,754,728,727,-1,755,756,757,-1,755,757,758,-1,758,757,759,-1,758,759,760,-1,760,759,761,-1,760,761,762,-1,762,761,742,-1,762,742,741,-1,755,763,756,-1,756,763,764,-1,765,766,767,-1,765,767,768,-1,768,767,769,-1,768,769,770,-1,770,769,771,-1,770,771,772,-1,772,771,773,-1,772,773,774,-1,774,773,764,-1,774,764,763,-1,775,776,777,-1,775,777,778,-1,778,777,779,-1,778,779,780,-1,780,779,781,-1,780,781,782,-1,782,781,766,-1,782,766,765,-1,783,784,785,-1,783,785,786,-1,786,785,787,-1,786,787,788,-1,788,787,776,-1,788,776,775,-1,703,702,789,-1,703,789,790,-1,790,789,791,-1,790,791,792,-1,791,793,792,-1,792,793,794,-1,792,794,795,-1,795,794,796,-1,795,796,797,-1,797,796,798,-1,797,798,799,-1,799,798,800,-1,799,800,801,-1,801,800,784,-1,801,784,783,-1,715,713,711,-1,763,755,774,-1,774,755,758,-1,774,758,772,-1,772,758,760,-1,772,760,770,-1,770,760,762,-1,770,762,768,-1,768,762,741,-1,715,711,726,-1,726,711,709,-1,726,709,724,-1,724,709,707,-1,724,707,722,-1,722,707,705,-1,722,705,720,-1,720,705,703,-1,720,703,717,-1,717,703,790,-1,717,790,740,-1,740,790,792,-1,740,792,738,-1,738,792,795,-1,738,795,736,-1,736,795,797,-1,736,797,734,-1,734,797,799,-1,734,799,732,-1,732,799,801,-1,732,801,730,-1,730,801,783,-1,730,783,727,-1,727,783,754,-1,754,783,786,-1,754,786,752,-1,752,786,788,-1,752,788,750,-1,750,788,775,-1,750,775,748,-1,748,775,778,-1,748,778,746,-1,746,778,780,-1,746,780,744,-1,744,780,782,-1,744,782,741,-1,741,782,765,-1,741,765,768,-1,802,803,804,-1,804,803,805,-1,803,806,805,-1,805,806,807,-1,806,808,807,-1,807,808,809,-1,808,810,809,-1,809,810,811,-1,810,812,811,-1,811,812,813,-1,812,802,813,-1,813,802,804,-1,806,803,808,-1,808,803,802,-1,808,802,810,-1,810,802,812,-1,
        ]
    }
}
Shape{
    appearance Appearance {
        material  Material 	{
            diffuseColor 0.14901960784313725 0.14901960784313725 0.14901960784313725
            specularColor 0.07450980392156863 0.07450980392156863 0.07450980392156863
            ambientIntensity 0.149
            transparency 0.0
            shininess 0.5
        }
    }
    geometry IndexedFaceSet {
        ccw TRUE
        solid FALSE
        coord DEF co Coordinate {
            point [
                -0.8011 0.1585 0.1969, -0.7654 0.0833 0.1969, -0.8358 0.0833 0.1969, -0.5376 0.1767 0.1969, -0.5376 0.0202 0.1969, -0.5514 0.1767 0.1969, -0.5601 0.0202 0.1969, -0.5818 0.1757 0.1969, -0.5885 0.021 0.1969, -0.6119 0.1711 0.1969, -0.6536 0.0548 0.1969, -0.6601 0.0697 0.1969, -0.6636 0.0905 0.1969, -0.6637 0.096 0.1969, -0.6164 0.0252 0.1969, -0.6321 0.0324 0.1969, -0.6438 0.0419 0.1969, -0.6616 0.1169 0.1969, -0.6558 0.1338 0.1969, -0.6468 0.1482 0.1969, -0.6354 0.1593 0.1969, -0.6207 0.1679 0.1969
            ]
        }
        coordIndex [
            0,1,2,-1,3,4,5,-1,5,4,6,-1,5,6,7,-1,7,6,8,-1,7,8,9,-1,10,11,8,-1,8,11,12,-1,8,12,13,-1,14,15,8,-1,8,15,16,-1,8,16,10,-1,13,17,8,-1,8,17,18,-1,8,18,19,-1,19,20,8,-1,8,20,21,-1,8,21,9,-1,
        ]
    }
}