#VRML V2.0 utf8
# 3D model generated by easyeda2kicad.py (https://github.com/uPesy/easyeda2kicad.py)

Shape{
    appearance Appearance {
        material  Material 	{
            diffuseColor 1.0 1.0 0.5019607843137255
            specularColor 0.5019607843137255 0.5019607843137255 0.25098039215686274
            ambientIntensity 0.9432
            transparency 0.0
            shininess 0.5
        }
    }
    geometry IndexedFaceSet {
        ccw TRUE
        solid FALSE
        coord DEF co Coordinate {
            point [
                -0.2362 0.6398 0.0394, -0.2362 0.4343 0.0394, -0.2362 0.6398 0.0, -0.2362 0.4343 0.0, -0.4724 0.6398 0.0394, -0.4724 0.6398 0.0, -0.4724 0.4343 0.0394, -0.4724 0.4343 0.0, -0.1181 0.6398 0.0394, 0.1181 0.6398 0.0394, -0.1181 0.6398 0.0, 0.1181 0.6398 0.0, -0.1181 0.4343 0.0394, -0.1181 0.4343 0.0, 0.1181 0.4343 0.0394, 0.1181 0.4343 0.0, -0.3199 -0.2795 0.0, -0.3176 -0.2417 0.0394, -0.3176 -0.2417 0.0, -0.3109 -0.2044 0.0394, -0.3109 -0.2044 0.0, -0.2999 -0.1681 0.0394, -0.2999 -0.1681 0.0, -0.2846 -0.1335 0.0394, -0.2846 -0.1335 0.0, -0.2653 -0.1008 0.0394, -0.2653 -0.1008 0.0, -0.2423 -0.0707 0.0394, -0.2423 -0.0707 0.0, -0.2159 -0.0435 0.0394, -0.2159 -0.0435 0.0, -0.1865 -0.0196 0.0394, -0.1865 -0.0196 0.0, -0.1544 0.0006 0.0394, -0.1544 0.0006 0.0, -0.1202 0.0169 0.0394, -0.1202 0.0169 0.0, -0.0843 0.029 0.0394, -0.0843 0.029 0.0, -0.0472 0.0368 0.0394, -0.0472 0.0368 0.0, -0.0095 0.0402 0.0394, -0.0095 0.0402 0.0, 0.0284 0.0391 0.0394, 0.0284 0.0391 0.0, 0.0659 0.0335 0.0394, 0.0659 0.0335 0.0, 0.1024 0.0235 0.0394, 0.1024 0.0235 0.0, 0.1376 0.0093 0.0394, 0.1376 0.0093 0.0, 0.1708 -0.009 0.0394, 0.1708 -0.009 0.0, 0.2016 -0.0311 0.0394, 0.2016 -0.0311 0.0, 0.2295 -0.0567 0.0394, 0.2295 -0.0567 0.0, 0.2543 -0.0854 0.0394, 0.2543 -0.0854 0.0, 0.2754 -0.1169 0.0394, 0.2754 -0.1169 0.0, 0.2927 -0.1506 0.0394, 0.2927 -0.1506 0.0, 0.3059 -0.1861 0.0394, 0.3059 -0.1861 0.0, 0.3148 -0.2229 0.0394, 0.3148 -0.2229 0.0, 0.3193 -0.2606 0.0394, 0.3193 -0.2606 0.0, 0.3193 -0.2985 0.0394, 0.3193 -0.2985 0.0, 0.3148 -0.3361 0.0394, 0.3148 -0.3361 0.0, 0.3059 -0.373 0.0394, 0.3059 -0.373 0.0, 0.2927 -0.4085 0.0394, 0.2927 -0.4085 0.0, 0.2754 -0.4422 0.0394, 0.2754 -0.4422 0.0, 0.2543 -0.4736 0.0394, 0.2543 -0.4736 0.0, 0.2295 -0.5023 0.0394, 0.2295 -0.5023 0.0, 0.2016 -0.5279 0.0394, 0.2016 -0.5279 0.0, 0.1708 -0.55 0.0394, 0.1708 -0.55 0.0, 0.1376 -0.5683 0.0394, 0.1376 -0.5683 0.0, 0.1024 -0.5826 0.0394, 0.1024 -0.5826 0.0, 0.0659 -0.5926 0.0394, 0.0659 -0.5926 0.0, 0.0284 -0.5981 0.0394, 0.0284 -0.5981 0.0, -0.0095 -0.5993 0.0394, -0.0095 -0.5993 0.0, -0.0472 -0.5959 0.0394, -0.0472 -0.5959 0.0, -0.0843 -0.5881 0.0394, -0.0843 -0.5881 0.0, -0.1202 -0.576 0.0394, -0.1202 -0.576 0.0, -0.1544 -0.5597 0.0394, -0.1544 -0.5597 0.0, -0.1865 -0.5394 0.0394, -0.1865 -0.5394 0.0, -0.2159 -0.5155 0.0394, -0.2159 -0.5155 0.0, -0.2423 -0.4884 0.0394, -0.2423 -0.4884 0.0, -0.2653 -0.4582 0.0394, -0.2653 -0.4582 0.0, -0.2846 -0.4256 0.0394, -0.2846 -0.4256 0.0, -0.2999 -0.3909 0.0394, -0.2999 -0.3909 0.0, -0.3109 -0.3547 0.0394, -0.3109 -0.3547 0.0, -0.3176 -0.3174 0.0394, -0.3176 -0.3174 0.0, -0.3199 -0.2795 0.0394, -0.0449 -0.4762 0.0394, -0.0151 -0.4807 0.0394, 0.0151 -0.4807 0.0394, 0.0449 -0.4762 0.0394, 0.0737 -0.4674 0.0394, 0.1009 -0.4543 0.0394, 0.1258 -0.4373 0.0394, 0.1479 -0.4168 0.0394, 0.1667 -0.3932 0.0394, -0.1479 -0.4168 0.0394, -0.1258 -0.4373 0.0394, -0.1009 -0.4543 0.0394, -0.0737 -0.4674 0.0394, 0.1995 -0.3096 0.0394, 0.2018 -0.2795 0.0394, 0.1995 -0.2495 0.0394, 0.1928 -0.2201 0.0394, 0.1818 -0.192 0.0394, 0.1818 -0.3671 0.0394, 0.1928 -0.339 0.0394, -0.1995 -0.3096 0.0394, -0.1928 -0.339 0.0394, -0.1818 -0.3671 0.0394, -0.1667 -0.3932 0.0394, 0.1009 -0.1048 0.0394, 0.0737 -0.0917 0.0394, 0.0449 -0.0828 0.0394, 0.0151 -0.0783 0.0394, -0.0151 -0.0783 0.0394, 0.1667 -0.1659 0.0394, 0.1479 -0.1423 0.0394, 0.1258 -0.1218 0.0394, -0.1928 -0.2201 0.0394, -0.1995 -0.2495 0.0394, -0.2018 -0.2795 0.0394, -0.0449 -0.0828 0.0394, -0.0737 -0.0917 0.0394, -0.1009 -0.1048 0.0394, -0.1258 -0.1218 0.0394, -0.1479 -0.1423 0.0394, -0.1667 -0.1659 0.0394, -0.1818 -0.192 0.0394, 0.1009 -0.4543 0.0, 0.0737 -0.4674 0.0, 0.0449 -0.4762 0.0, 0.0151 -0.4807 0.0, -0.0151 -0.4807 0.0, -0.1928 -0.339 0.0, -0.1995 -0.3096 0.0, -0.2018 -0.2795 0.0, -0.1995 -0.2495 0.0, -0.1258 -0.4373 0.0, -0.1479 -0.4168 0.0, -0.1667 -0.3932 0.0, -0.1818 -0.3671 0.0, -0.0449 -0.4762 0.0, -0.0737 -0.4674 0.0, -0.1009 -0.4543 0.0, -0.0449 -0.0828 0.0, -0.0151 -0.0783 0.0, 0.0151 -0.0783 0.0, 0.0449 -0.0828 0.0, 0.0737 -0.0917 0.0, 0.1818 -0.3671 0.0, 0.1667 -0.3932 0.0, 0.1479 -0.4168 0.0, 0.1258 -0.4373 0.0, 0.2018 -0.2795 0.0, 0.1995 -0.3096 0.0, 0.1928 -0.339 0.0, -0.1479 -0.1423 0.0, -0.1258 -0.1218 0.0, -0.1009 -0.1048 0.0, -0.0737 -0.0917 0.0, -0.1928 -0.2201 0.0, -0.1818 -0.192 0.0, -0.1667 -0.1659 0.0, 0.1667 -0.1659 0.0, 0.1818 -0.192 0.0, 0.1928 -0.2201 0.0, 0.1995 -0.2495 0.0, 0.1009 -0.1048 0.0, 0.1258 -0.1218 0.0, 0.1479 -0.1423 0.0, 0.2362 0.6398 0.0394, 0.4724 0.6398 0.0394, 0.2362 0.6398 0.0, 0.4724 0.6398 0.0, 0.2362 0.4343 0.0394, 0.2362 0.4343 0.0, 0.4724 0.4343 0.0394, 0.4724 0.4343 0.0, 0.2362 0.3169 0.0394, 0.4724 0.3169 0.0394, 0.2362 0.3169 0.0, 0.4724 0.3169 0.0, 0.2362 0.1114 0.0394, 0.2362 0.1114 0.0, 0.4724 0.1114 0.0394, 0.4724 0.1114 0.0, -0.4724 0.3169 0.0394, -0.2362 0.3169 0.0394, -0.4724 0.3169 0.0, -0.2362 0.3169 0.0, -0.4724 0.1114 0.0394, -0.4724 0.1114 0.0, -0.2362 0.1114 0.0394, -0.2362 0.1114 0.0
            ]
        }
        coordIndex [
            0,1,2,-1,2,1,3,-1,4,0,5,-1,5,0,2,-1,6,4,7,-1,7,4,5,-1,1,6,3,-1,3,6,7,-1,4,6,0,-1,0,6,1,-1,7,5,3,-1,3,5,2,-1,8,9,10,-1,10,9,11,-1,12,8,13,-1,13,8,10,-1,14,12,15,-1,15,12,13,-1,9,14,11,-1,11,14,15,-1,12,14,8,-1,8,14,9,-1,15,13,11,-1,11,13,10,-1,16,17,18,-1,18,17,19,-1,18,19,20,-1,20,19,21,-1,20,21,22,-1,22,21,23,-1,22,23,24,-1,24,23,25,-1,24,25,26,-1,26,25,27,-1,26,27,28,-1,28,27,29,-1,28,29,30,-1,30,29,31,-1,30,31,32,-1,32,31,33,-1,32,33,34,-1,34,33,35,-1,34,35,36,-1,36,35,37,-1,36,37,38,-1,38,37,39,-1,38,39,40,-1,40,39,41,-1,40,41,42,-1,42,41,43,-1,42,43,44,-1,44,43,45,-1,44,45,46,-1,46,45,47,-1,46,47,48,-1,48,47,49,-1,48,49,50,-1,50,49,51,-1,50,51,52,-1,52,51,53,-1,52,53,54,-1,54,53,55,-1,54,55,56,-1,56,55,57,-1,56,57,58,-1,58,57,59,-1,58,59,60,-1,60,59,61,-1,60,61,62,-1,62,61,63,-1,62,63,64,-1,64,63,65,-1,64,65,66,-1,66,65,67,-1,66,67,68,-1,68,67,69,-1,68,69,70,-1,70,69,71,-1,70,71,72,-1,72,71,73,-1,72,73,74,-1,74,73,75,-1,74,75,76,-1,76,75,77,-1,76,77,78,-1,78,77,79,-1,78,79,80,-1,80,79,81,-1,80,81,82,-1,82,81,83,-1,82,83,84,-1,84,83,85,-1,84,85,86,-1,86,85,87,-1,86,87,88,-1,88,87,89,-1,88,89,90,-1,90,89,91,-1,90,91,92,-1,92,91,93,-1,92,93,94,-1,94,93,95,-1,94,95,96,-1,96,95,97,-1,96,97,98,-1,98,97,99,-1,98,99,100,-1,100,99,101,-1,100,101,102,-1,102,101,103,-1,102,103,104,-1,104,103,105,-1,104,105,106,-1,106,105,107,-1,106,107,108,-1,108,107,109,-1,108,109,110,-1,110,109,111,-1,110,111,112,-1,112,111,113,-1,112,113,114,-1,114,113,115,-1,114,115,116,-1,116,115,117,-1,116,117,118,-1,118,117,119,-1,118,119,120,-1,120,119,121,-1,120,121,16,-1,16,121,17,-1,122,97,123,-1,123,97,95,-1,123,95,124,-1,124,95,93,-1,124,93,125,-1,125,93,91,-1,125,91,126,-1,91,89,126,-1,126,89,87,-1,126,87,127,-1,127,87,85,-1,127,85,128,-1,128,85,83,-1,128,83,129,-1,129,83,81,-1,129,81,130,-1,131,107,132,-1,132,107,105,-1,132,105,133,-1,133,105,103,-1,133,103,134,-1,134,103,101,-1,134,101,122,-1,122,101,99,-1,122,99,97,-1,135,69,136,-1,136,69,67,-1,136,67,137,-1,137,67,65,-1,137,65,138,-1,138,65,63,-1,138,63,139,-1,81,79,130,-1,130,79,77,-1,130,77,140,-1,140,77,75,-1,140,75,141,-1,141,75,73,-1,141,73,135,-1,135,73,71,-1,135,71,69,-1,142,117,143,-1,143,117,115,-1,143,115,144,-1,144,115,113,-1,144,113,145,-1,145,113,111,-1,145,111,131,-1,131,111,109,-1,131,109,107,-1,146,49,147,-1,147,49,47,-1,147,47,148,-1,148,47,45,-1,148,45,149,-1,149,45,43,-1,149,43,150,-1,63,61,139,-1,139,61,59,-1,139,59,151,-1,151,59,57,-1,151,57,152,-1,152,57,55,-1,152,55,153,-1,153,55,53,-1,153,53,146,-1,146,53,51,-1,146,51,49,-1,154,19,155,-1,155,19,17,-1,155,17,156,-1,156,17,121,-1,156,121,142,-1,142,121,119,-1,142,119,117,-1,43,41,150,-1,150,41,39,-1,150,39,157,-1,157,39,37,-1,157,37,158,-1,158,37,35,-1,158,35,159,-1,159,35,33,-1,159,33,160,-1,33,31,160,-1,160,31,29,-1,160,29,161,-1,161,29,27,-1,161,27,162,-1,162,27,25,-1,162,25,163,-1,163,25,23,-1,163,23,154,-1,154,23,21,-1,154,21,19,-1,164,88,165,-1,165,88,90,-1,165,90,166,-1,166,90,92,-1,166,92,167,-1,167,92,94,-1,167,94,168,-1,169,118,170,-1,170,118,120,-1,170,120,171,-1,171,120,16,-1,171,16,172,-1,173,108,174,-1,174,108,110,-1,174,110,175,-1,175,110,112,-1,175,112,176,-1,176,112,114,-1,176,114,169,-1,169,114,116,-1,169,116,118,-1,94,96,168,-1,168,96,98,-1,168,98,177,-1,177,98,100,-1,177,100,178,-1,178,100,102,-1,178,102,179,-1,179,102,104,-1,179,104,173,-1,173,104,106,-1,173,106,108,-1,180,40,181,-1,181,40,42,-1,181,42,182,-1,182,42,44,-1,182,44,183,-1,183,44,46,-1,183,46,184,-1,185,78,186,-1,186,78,80,-1,186,80,187,-1,187,80,82,-1,187,82,188,-1,188,82,84,-1,188,84,164,-1,164,84,86,-1,164,86,88,-1,189,70,190,-1,190,70,72,-1,190,72,191,-1,191,72,74,-1,191,74,185,-1,185,74,76,-1,185,76,78,-1,192,30,193,-1,193,30,32,-1,193,32,194,-1,194,32,34,-1,194,34,195,-1,195,34,36,-1,195,36,180,-1,180,36,38,-1,180,38,40,-1,16,18,172,-1,172,18,20,-1,172,20,196,-1,196,20,22,-1,196,22,197,-1,197,22,24,-1,197,24,198,-1,198,24,26,-1,198,26,192,-1,192,26,28,-1,192,28,30,-1,199,60,200,-1,200,60,62,-1,200,62,201,-1,201,62,64,-1,201,64,202,-1,202,64,66,-1,202,66,189,-1,189,66,68,-1,189,68,70,-1,46,48,184,-1,184,48,50,-1,184,50,203,-1,203,50,52,-1,203,52,204,-1,204,52,54,-1,204,54,205,-1,205,54,56,-1,205,56,199,-1,199,56,58,-1,199,58,60,-1,156,171,155,-1,155,171,172,-1,155,172,154,-1,154,172,196,-1,154,196,163,-1,163,196,197,-1,163,197,162,-1,162,197,198,-1,162,198,161,-1,161,198,192,-1,161,192,160,-1,160,192,193,-1,160,193,159,-1,159,193,194,-1,159,194,158,-1,158,194,195,-1,158,195,157,-1,157,195,180,-1,157,180,150,-1,150,180,181,-1,150,181,149,-1,149,181,182,-1,149,182,148,-1,148,182,183,-1,148,183,147,-1,147,183,184,-1,147,184,146,-1,146,184,203,-1,146,203,153,-1,153,203,204,-1,153,204,152,-1,152,204,205,-1,152,205,151,-1,151,205,199,-1,151,199,139,-1,139,199,200,-1,139,200,138,-1,138,200,201,-1,138,201,137,-1,137,201,202,-1,137,202,136,-1,136,202,189,-1,136,189,135,-1,135,189,190,-1,135,190,141,-1,141,190,191,-1,141,191,140,-1,140,191,185,-1,140,185,130,-1,130,185,186,-1,130,186,129,-1,129,186,187,-1,129,187,128,-1,128,187,188,-1,128,188,127,-1,127,188,164,-1,127,164,126,-1,126,164,165,-1,126,165,125,-1,125,165,166,-1,125,166,124,-1,124,166,167,-1,124,167,123,-1,123,167,168,-1,123,168,122,-1,122,168,177,-1,122,177,134,-1,134,177,178,-1,134,178,133,-1,133,178,179,-1,133,179,132,-1,132,179,173,-1,132,173,131,-1,131,173,174,-1,131,174,145,-1,145,174,175,-1,145,175,144,-1,144,175,176,-1,144,176,143,-1,143,176,169,-1,143,169,142,-1,142,169,170,-1,142,170,156,-1,156,170,171,-1,206,207,208,-1,208,207,209,-1,210,206,211,-1,211,206,208,-1,212,210,213,-1,213,210,211,-1,207,212,209,-1,209,212,213,-1,210,212,206,-1,206,212,207,-1,213,211,209,-1,209,211,208,-1,214,215,216,-1,216,215,217,-1,218,214,219,-1,219,214,216,-1,220,218,221,-1,221,218,219,-1,215,220,217,-1,217,220,221,-1,218,220,214,-1,214,220,215,-1,221,219,217,-1,217,219,216,-1,222,223,224,-1,224,223,225,-1,226,222,227,-1,227,222,224,-1,228,226,229,-1,229,226,227,-1,223,228,225,-1,225,228,229,-1,226,228,222,-1,222,228,223,-1,229,227,225,-1,225,227,224,-1,
        ]
    }
}
Shape{
    appearance Appearance {
        material  Material 	{
            diffuseColor 0.7529411764705882 0.7529411764705882 0.7529411764705882
            specularColor 0.3764705882352941 0.3764705882352941 0.3764705882352941
            ambientIntensity 0.7529
            transparency 0.0
            shininess 0.5
        }
    }
    geometry IndexedFaceSet {
        ccw TRUE
        solid FALSE
        coord DEF co Coordinate {
            point [
                0.4626 -0.5906 0.1181, 0.4626 0.5906 0.1181, 0.4626 -0.5906 0.2756, 0.4626 0.5906 0.2756, 0.4232 0.6299 0.1181, -0.4232 0.6299 0.1181, 0.4232 0.6299 0.2756, -0.4232 0.6299 0.2756, -0.4626 -0.5906 0.2756, -0.4626 0.5906 0.2756, -0.4626 -0.5906 0.1181, -0.4626 0.5906 0.1181, -0.4232 -0.6299 0.1181, 0.4232 -0.6299 0.1181, -0.4232 -0.6299 0.2756, 0.4232 -0.6299 0.2756, 0.3524 0.5197 0.3858, 0.2965 0.4055 0.3858, 0.2945 0.3904 0.3858, 0.2794 0.3642 0.3858, 0.2673 0.355 0.3858, 0.3524 -0.5197 0.3858, 0.2887 0.3763 0.3858, 0.2532 0.4619 0.3858, 0.2673 0.4561 0.3858, 0.2794 0.4468 0.3858, 0.2887 0.4347 0.3858, 0.2945 0.4206 0.3858, 0.1798 0.4055 0.3858, 0.1817 0.4206 0.3858, -0.3524 0.5197 0.3858, 0.1876 0.4347 0.3858, 0.1968 0.4468 0.3858, 0.2532 0.3491 0.3858, 0.2381 0.3471 0.3858, -0.3524 -0.5197 0.3858, 0.223 0.3491 0.3858, 0.2089 0.355 0.3858, 0.2089 0.4561 0.3858, 0.223 0.4619 0.3858, 0.2381 0.4639 0.3858, 0.1968 0.3642 0.3858, 0.1876 0.3763 0.3858, 0.1817 0.3904 0.3858, -0.4429 -0.6246 0.1181, -0.4511 -0.6184 0.1181, -0.4573 -0.6102 0.1181, -0.4334 -0.6286 0.1181, -0.4613 -0.6007 0.1181, -0.4573 0.6102 0.1181, -0.4511 0.6184 0.1181, -0.4429 0.6246 0.1181, 0.4613 0.6007 0.1181, 0.4573 0.6102 0.1181, 0.4511 0.6184 0.1181, -0.4613 0.6007 0.1181, -0.4334 0.6286 0.1181, 0.4334 0.6286 0.1181, 0.4429 0.6246 0.1181, 0.4429 -0.6246 0.1181, 0.4334 -0.6286 0.1181, 0.4511 -0.6184 0.1181, 0.4573 -0.6102 0.1181, 0.4613 -0.6007 0.1181, -0.3698 0.5469 0.3824, 0.3698 0.5469 0.3824, -0.3707 0.5482 0.3819, 0.3707 0.5482 0.3819, -0.3862 0.5723 0.3725, 0.3862 0.5723 0.3725, -0.3877 0.5746 0.3708, 0.3877 0.5746 0.3708, -0.4003 0.5943 0.3567, 0.4003 0.5943 0.3567, -0.4022 0.5973 0.3532, 0.4205 0.6256 0.304, -0.4186 0.6227 0.3147, 0.4186 0.6227 0.3147, -0.4134 0.6147 0.3305, 0.4134 0.6147 0.3305, -0.4114 0.6115 0.3366, 0.4114 0.6115 0.3366, 0.4022 0.5973 0.3532, 0.4223 0.6284 0.2937, -0.4223 0.6284 0.2937, -0.4205 0.6256 0.304, -0.3808 0.538 0.3819, -0.405 0.5535 0.3725, -0.405 -0.5535 0.3725, -0.4073 0.555 0.3708, -0.4073 -0.555 0.3708, -0.427 0.5677 0.3567, -0.427 -0.5677 0.3567, -0.43 0.5696 0.3532, -0.43 -0.5696 0.3532, -0.4442 0.5787 0.3366, -0.4442 -0.5787 0.3366, -0.4473 0.5807 0.3305, -0.4473 -0.5807 0.3305, -0.4554 0.5859 0.3147, -0.4554 -0.5859 0.3147, -0.4583 0.5878 0.304, -0.4583 -0.5878 0.304, -0.4611 0.5896 0.2937, -0.4611 -0.5896 0.2937, -0.3795 -0.5371 0.3824, -0.3808 -0.538 0.3819, -0.3795 0.5371 0.3824, 0.3795 0.5371 0.3824, 0.3795 -0.5371 0.3824, 0.3808 0.538 0.3819, 0.3808 -0.538 0.3819, 0.405 0.5535 0.3725, 0.405 -0.5535 0.3725, 0.4073 0.555 0.3708, 0.4073 -0.555 0.3708, 0.427 0.5677 0.3567, 0.427 -0.5677 0.3567, 0.43 0.5696 0.3532, 0.43 -0.5696 0.3532, 0.4442 0.5787 0.3366, 0.4442 -0.5787 0.3366, 0.4473 0.5807 0.3305, 0.4473 -0.5807 0.3305, 0.4554 0.5859 0.3147, 0.4554 -0.5859 0.3147, 0.4583 0.5878 0.304, 0.4583 -0.5878 0.304, 0.4611 0.5896 0.2937, 0.4611 -0.5896 0.2937, 0.3698 -0.5469 0.3824, -0.3698 -0.5469 0.3824, -0.3707 -0.5482 0.3819, 0.3707 -0.5482 0.3819, 0.3862 -0.5723 0.3725, -0.4022 -0.5973 0.3532, 0.4003 -0.5943 0.3567, -0.4003 -0.5943 0.3567, 0.3877 -0.5746 0.3708, -0.3877 -0.5746 0.3708, -0.3862 -0.5723 0.3725, -0.4223 -0.6284 0.2937, 0.4223 -0.6284 0.2937, -0.4205 -0.6256 0.304, 0.4205 -0.6256 0.304, -0.4186 -0.6227 0.3147, 0.4186 -0.6227 0.3147, -0.4134 -0.6147 0.3305, 0.4134 -0.6147 0.3305, -0.4114 -0.6115 0.3366, 0.4114 -0.6115 0.3366, 0.4022 -0.5973 0.3532, -0.4613 -0.6007 0.2756, -0.4573 -0.6102 0.2756, -0.4511 -0.6184 0.2756, -0.4429 -0.6246 0.2756, -0.4334 -0.6286 0.2756, -0.3764 -0.5404 0.383, -0.3748 -0.5421 0.383, -0.378 -0.5388 0.3828, -0.3715 -0.5453 0.3828, -0.4022 -0.5569 0.3737, -0.4238 -0.5729 0.3589, -0.4414 -0.6229 0.2959, -0.4494 -0.6167 0.2962, -0.4556 -0.6087 0.2959, -0.4596 -0.5995 0.2951, -0.4322 -0.6269 0.2951, -0.4275 -0.6206 0.3172, -0.4186 -0.6086 0.3394, -0.4431 -0.6105 0.3194, -0.4491 -0.6031 0.3188, -0.4317 -0.599 0.3418, -0.437 -0.5927 0.3412, -0.4532 -0.5948 0.3172, -0.4413 -0.5859 0.3394, -0.4056 -0.5911 0.3589, -0.4199 -0.578 0.3603, -0.4155 -0.5828 0.3608, -0.3896 -0.5696 0.3737, -0.3993 -0.5602 0.3744, -0.3962 -0.5635 0.3746, -0.3731 -0.5437 0.383, -0.3929 -0.5666 0.3744, -0.4107 -0.5872 0.3603, -0.4254 -0.6043 0.3412, -0.4358 -0.6164 0.3188, 0.4334 -0.6286 0.2756, 0.4429 -0.6246 0.2756, 0.4511 -0.6184 0.2756, 0.4573 -0.6102 0.2756, 0.4613 -0.6007 0.2756, 0.3731 -0.5437 0.383, 0.3748 -0.5421 0.383, 0.3715 -0.5453 0.3828, 0.378 -0.5388 0.3828, 0.3896 -0.5696 0.3737, 0.4056 -0.5911 0.3589, 0.4556 -0.6087 0.2959, 0.4494 -0.6167 0.2962, 0.4414 -0.6229 0.2959, 0.4322 -0.6269 0.2951, 0.4596 -0.5995 0.2951, 0.4532 -0.5948 0.3172, 0.4413 -0.5859 0.3394, 0.4431 -0.6105 0.3194, 0.4358 -0.6164 0.3188, 0.4317 -0.599 0.3418, 0.4254 -0.6043 0.3412, 0.4275 -0.6206 0.3172, 0.4186 -0.6086 0.3394, 0.4238 -0.5729 0.3589, 0.4107 -0.5872 0.3603, 0.4155 -0.5828 0.3608, 0.4022 -0.5569 0.3737, 0.3929 -0.5666 0.3744, 0.3962 -0.5635 0.3746, 0.3764 -0.5404 0.383, 0.3993 -0.5602 0.3744, 0.4199 -0.578 0.3603, 0.437 -0.5927 0.3412, 0.4491 -0.6031 0.3188, 0.4613 0.6007 0.2756, 0.4573 0.6102 0.2756, 0.4511 0.6184 0.2756, 0.4429 0.6246 0.2756, 0.4334 0.6286 0.2756, 0.3764 0.5404 0.383, 0.3748 0.5421 0.383, 0.378 0.5388 0.3828, 0.3715 0.5453 0.3828, 0.4022 0.5569 0.3737, 0.4238 0.5729 0.3589, 0.4414 0.6229 0.2959, 0.4494 0.6167 0.2962, 0.4556 0.6087 0.2959, 0.4596 0.5995 0.2951, 0.4322 0.6269 0.2951, 0.4275 0.6206 0.3172, 0.4186 0.6086 0.3394, 0.4431 0.6105 0.3194, 0.4491 0.6031 0.3188, 0.4317 0.599 0.3418, 0.437 0.5927 0.3412, 0.4532 0.5948 0.3172, 0.4413 0.5859 0.3394, 0.4056 0.5911 0.3589, 0.4199 0.578 0.3603, 0.4155 0.5828 0.3608, 0.3896 0.5696 0.3737, 0.3993 0.5602 0.3744, 0.3962 0.5635 0.3746, 0.3731 0.5437 0.383, 0.3929 0.5666 0.3744, 0.4107 0.5872 0.3603, 0.4254 0.6043 0.3412, 0.4358 0.6164 0.3188, -0.4334 0.6286 0.2756, -0.4429 0.6246 0.2756, -0.4511 0.6184 0.2756, -0.4573 0.6102 0.2756, -0.4613 0.6007 0.2756, -0.3731 0.5437 0.383, -0.3748 0.5421 0.383, -0.3715 0.5453 0.3828, -0.378 0.5388 0.3828, -0.3896 0.5696 0.3737, -0.4056 0.5911 0.3589, -0.4556 0.6087 0.2959, -0.4494 0.6167 0.2962, -0.4414 0.6229 0.2959, -0.4322 0.6269 0.2951, -0.4596 0.5995 0.2951, -0.4532 0.5948 0.3172, -0.4413 0.5859 0.3394, -0.4431 0.6105 0.3194, -0.4358 0.6164 0.3188, -0.4317 0.599 0.3418, -0.4254 0.6043 0.3412, -0.4275 0.6206 0.3172, -0.4186 0.6086 0.3394, -0.4238 0.5729 0.3589, -0.4107 0.5872 0.3603, -0.4155 0.5828 0.3608, -0.4022 0.5569 0.3737, -0.3929 0.5666 0.3744, -0.3962 0.5635 0.3746, -0.3764 0.5404 0.383, -0.3993 0.5602 0.3744, -0.4199 0.578 0.3603, -0.437 0.5927 0.3412, -0.4491 0.6031 0.3188
            ]
        }
        coordIndex [
            0,1,2,-1,2,1,3,-1,4,5,6,-1,6,5,7,-1,8,9,10,-1,10,9,11,-1,12,13,14,-1,14,13,15,-1,16,17,18,-1,19,20,21,-1,16,18,21,-1,21,18,22,-1,21,22,19,-1,23,24,16,-1,16,24,25,-1,25,26,16,-1,16,26,27,-1,16,27,17,-1,28,29,30,-1,30,29,31,-1,30,31,32,-1,20,33,21,-1,21,33,34,-1,21,34,35,-1,35,34,36,-1,35,36,37,-1,32,38,30,-1,30,38,39,-1,30,39,16,-1,16,39,40,-1,16,40,23,-1,37,41,35,-1,35,41,42,-1,35,42,30,-1,30,42,43,-1,30,43,28,-1,1,5,4,-1,44,45,46,-1,12,10,5,-1,5,10,11,-1,12,47,10,-1,10,47,44,-1,10,44,48,-1,48,44,46,-1,49,50,51,-1,52,1,53,-1,53,1,54,-1,11,55,5,-1,5,55,49,-1,5,49,56,-1,56,49,51,-1,4,57,1,-1,1,57,58,-1,1,58,54,-1,59,60,61,-1,61,60,13,-1,61,13,62,-1,5,1,12,-1,12,1,0,-1,12,0,13,-1,13,0,63,-1,13,63,62,-1,30,16,64,-1,64,16,65,-1,64,65,66,-1,66,65,67,-1,66,67,68,-1,68,67,69,-1,68,69,70,-1,70,69,71,-1,70,71,72,-1,72,71,73,-1,72,73,74,-1,75,76,77,-1,77,76,78,-1,77,78,79,-1,79,78,80,-1,79,80,81,-1,81,80,74,-1,81,74,82,-1,82,74,73,-1,6,7,83,-1,83,7,84,-1,83,84,75,-1,75,84,85,-1,75,85,76,-1,86,87,88,-1,88,87,89,-1,88,89,90,-1,90,89,91,-1,90,91,92,-1,92,91,93,-1,92,93,94,-1,94,93,95,-1,94,95,96,-1,96,95,97,-1,96,97,98,-1,98,97,99,-1,98,99,100,-1,100,99,101,-1,100,101,102,-1,102,101,103,-1,102,103,104,-1,104,103,9,-1,104,9,8,-1,105,35,30,-1,88,106,86,-1,86,106,105,-1,86,105,107,-1,107,105,30,-1,16,21,108,-1,108,21,109,-1,108,109,110,-1,110,109,111,-1,110,111,112,-1,112,111,113,-1,112,113,114,-1,114,113,115,-1,114,115,116,-1,116,115,117,-1,116,117,118,-1,118,117,119,-1,118,119,120,-1,120,119,121,-1,120,121,122,-1,122,121,123,-1,122,123,124,-1,124,123,125,-1,124,125,126,-1,126,125,127,-1,126,127,128,-1,128,127,129,-1,128,129,3,-1,3,129,2,-1,130,21,35,-1,35,131,130,-1,130,131,132,-1,130,132,133,-1,133,132,134,-1,135,136,137,-1,137,136,138,-1,137,138,139,-1,139,138,134,-1,139,134,140,-1,140,134,132,-1,14,15,141,-1,141,15,142,-1,141,142,143,-1,143,142,144,-1,143,144,145,-1,145,144,146,-1,145,146,147,-1,147,146,148,-1,147,148,149,-1,149,148,150,-1,149,150,135,-1,135,150,151,-1,135,151,136,-1,8,10,48,-1,8,48,152,-1,152,48,46,-1,152,46,153,-1,153,46,45,-1,153,45,154,-1,154,45,44,-1,154,44,155,-1,155,44,47,-1,155,47,156,-1,156,47,12,-1,156,12,14,-1,35,157,158,-1,159,157,35,-1,105,159,35,-1,35,160,131,-1,106,88,161,-1,90,92,162,-1,156,14,141,-1,154,155,163,-1,153,154,164,-1,152,153,165,-1,104,8,166,-1,166,8,152,-1,156,141,167,-1,167,141,143,-1,167,143,168,-1,168,143,145,-1,168,145,169,-1,153,164,165,-1,165,164,170,-1,165,170,171,-1,171,170,172,-1,171,172,173,-1,152,165,166,-1,166,165,171,-1,166,171,174,-1,174,171,173,-1,174,173,175,-1,94,96,175,-1,175,96,98,-1,175,98,174,-1,174,98,100,-1,174,100,166,-1,166,100,102,-1,166,102,104,-1,145,147,169,-1,169,147,149,-1,169,149,176,-1,92,94,162,-1,162,94,175,-1,162,175,177,-1,177,175,173,-1,177,173,178,-1,178,173,172,-1,149,135,176,-1,176,135,137,-1,176,137,179,-1,88,90,161,-1,161,90,162,-1,161,162,180,-1,180,162,177,-1,180,177,181,-1,181,177,178,-1,137,139,179,-1,179,139,140,-1,179,140,160,-1,160,140,132,-1,160,132,131,-1,35,182,160,-1,160,182,183,-1,160,183,179,-1,179,183,184,-1,179,184,176,-1,176,184,185,-1,176,185,169,-1,169,185,186,-1,169,186,168,-1,168,186,163,-1,168,163,167,-1,167,163,155,-1,167,155,156,-1,105,106,159,-1,159,106,161,-1,159,161,157,-1,157,161,180,-1,157,180,158,-1,158,180,181,-1,154,163,164,-1,164,163,186,-1,164,186,170,-1,170,186,185,-1,170,185,172,-1,172,185,184,-1,172,184,178,-1,178,184,183,-1,178,183,181,-1,181,183,182,-1,181,182,158,-1,158,182,35,-1,15,13,60,-1,15,60,187,-1,187,60,59,-1,187,59,188,-1,188,59,61,-1,188,61,189,-1,189,61,62,-1,189,62,190,-1,190,62,63,-1,190,63,191,-1,191,63,0,-1,191,0,2,-1,21,192,193,-1,194,192,21,-1,130,194,21,-1,21,195,109,-1,133,134,196,-1,138,136,197,-1,191,2,129,-1,189,190,198,-1,188,189,199,-1,187,188,200,-1,142,15,201,-1,201,15,187,-1,191,129,202,-1,202,129,127,-1,202,127,203,-1,203,127,125,-1,203,125,204,-1,188,199,200,-1,200,199,205,-1,200,205,206,-1,206,205,207,-1,206,207,208,-1,187,200,201,-1,201,200,206,-1,201,206,209,-1,209,206,208,-1,209,208,210,-1,151,150,210,-1,210,150,148,-1,210,148,209,-1,209,148,146,-1,209,146,201,-1,201,146,144,-1,201,144,142,-1,125,123,204,-1,204,123,121,-1,204,121,211,-1,136,151,197,-1,197,151,210,-1,197,210,212,-1,212,210,208,-1,212,208,213,-1,213,208,207,-1,121,119,211,-1,211,119,117,-1,211,117,214,-1,134,138,196,-1,196,138,197,-1,196,197,215,-1,215,197,212,-1,215,212,216,-1,216,212,213,-1,117,115,214,-1,214,115,113,-1,214,113,195,-1,195,113,111,-1,195,111,109,-1,21,217,195,-1,195,217,218,-1,195,218,214,-1,214,218,219,-1,214,219,211,-1,211,219,220,-1,211,220,204,-1,204,220,221,-1,204,221,203,-1,203,221,198,-1,203,198,202,-1,202,198,190,-1,202,190,191,-1,130,133,194,-1,194,133,196,-1,194,196,192,-1,192,196,215,-1,192,215,193,-1,193,215,216,-1,189,198,199,-1,199,198,221,-1,199,221,205,-1,205,221,220,-1,205,220,207,-1,207,220,219,-1,207,219,213,-1,213,219,218,-1,213,218,216,-1,216,218,217,-1,216,217,193,-1,193,217,21,-1,3,1,52,-1,3,52,222,-1,222,52,53,-1,222,53,223,-1,223,53,54,-1,223,54,224,-1,224,54,58,-1,224,58,225,-1,225,58,57,-1,225,57,226,-1,226,57,4,-1,226,4,6,-1,16,227,228,-1,229,227,16,-1,108,229,16,-1,16,230,65,-1,110,112,231,-1,114,116,232,-1,226,6,83,-1,224,225,233,-1,223,224,234,-1,222,223,235,-1,128,3,236,-1,236,3,222,-1,226,83,237,-1,237,83,75,-1,237,75,238,-1,238,75,77,-1,238,77,239,-1,223,234,235,-1,235,234,240,-1,235,240,241,-1,241,240,242,-1,241,242,243,-1,222,235,236,-1,236,235,241,-1,236,241,244,-1,244,241,243,-1,244,243,245,-1,118,120,245,-1,245,120,122,-1,245,122,244,-1,244,122,124,-1,244,124,236,-1,236,124,126,-1,236,126,128,-1,77,79,239,-1,239,79,81,-1,239,81,246,-1,116,118,232,-1,232,118,245,-1,232,245,247,-1,247,245,243,-1,247,243,248,-1,248,243,242,-1,81,82,246,-1,246,82,73,-1,246,73,249,-1,112,114,231,-1,231,114,232,-1,231,232,250,-1,250,232,247,-1,250,247,251,-1,251,247,248,-1,73,71,249,-1,249,71,69,-1,249,69,230,-1,230,69,67,-1,230,67,65,-1,16,252,230,-1,230,252,253,-1,230,253,249,-1,249,253,254,-1,249,254,246,-1,246,254,255,-1,246,255,239,-1,239,255,256,-1,239,256,238,-1,238,256,233,-1,238,233,237,-1,237,233,225,-1,237,225,226,-1,108,110,229,-1,229,110,231,-1,229,231,227,-1,227,231,250,-1,227,250,228,-1,228,250,251,-1,224,233,234,-1,234,233,256,-1,234,256,240,-1,240,256,255,-1,240,255,242,-1,242,255,254,-1,242,254,248,-1,248,254,253,-1,248,253,251,-1,251,253,252,-1,251,252,228,-1,228,252,16,-1,7,5,56,-1,7,56,257,-1,257,56,51,-1,257,51,258,-1,258,51,50,-1,258,50,259,-1,259,50,49,-1,259,49,260,-1,260,49,55,-1,260,55,261,-1,261,55,11,-1,261,11,9,-1,30,262,263,-1,264,262,30,-1,64,264,30,-1,30,265,107,-1,66,68,266,-1,70,72,267,-1,261,9,103,-1,259,260,268,-1,258,259,269,-1,257,258,270,-1,84,7,271,-1,271,7,257,-1,261,103,272,-1,272,103,101,-1,272,101,273,-1,273,101,99,-1,273,99,274,-1,258,269,270,-1,270,269,275,-1,270,275,276,-1,276,275,277,-1,276,277,278,-1,257,270,271,-1,271,270,276,-1,271,276,279,-1,279,276,278,-1,279,278,280,-1,74,80,280,-1,280,80,78,-1,280,78,279,-1,279,78,76,-1,279,76,271,-1,271,76,85,-1,271,85,84,-1,99,97,274,-1,274,97,95,-1,274,95,281,-1,72,74,267,-1,267,74,280,-1,267,280,282,-1,282,280,278,-1,282,278,283,-1,283,278,277,-1,95,93,281,-1,281,93,91,-1,281,91,284,-1,68,70,266,-1,266,70,267,-1,266,267,285,-1,285,267,282,-1,285,282,286,-1,286,282,283,-1,91,89,284,-1,284,89,87,-1,284,87,265,-1,265,87,86,-1,265,86,107,-1,30,287,265,-1,265,287,288,-1,265,288,284,-1,284,288,289,-1,284,289,281,-1,281,289,290,-1,281,290,274,-1,274,290,291,-1,274,291,273,-1,273,291,268,-1,273,268,272,-1,272,268,260,-1,272,260,261,-1,64,66,264,-1,264,66,266,-1,264,266,262,-1,262,266,285,-1,262,285,263,-1,263,285,286,-1,259,268,269,-1,269,268,291,-1,269,291,275,-1,275,291,290,-1,275,290,277,-1,277,290,289,-1,277,289,283,-1,283,289,288,-1,283,288,286,-1,286,288,287,-1,286,287,263,-1,263,287,30,-1,
        ]
    }
}
Shape{
    appearance Appearance {
        material  Material 	{
            diffuseColor 0.5019607843137255 0.5019607843137255 0.5019607843137255
            specularColor 0.25098039215686274 0.25098039215686274 0.25098039215686274
            ambientIntensity 0.502
            transparency 0.0
            shininess 0.5
        }
    }
    geometry IndexedFaceSet {
        ccw TRUE
        solid FALSE
        coord DEF co Coordinate {
            point [
                0.2965 0.4055 0.3854, 0.2965 0.4055 0.3858, 0.2945 0.4206 0.3854, 0.2945 0.4206 0.3858, 0.2887 0.4347 0.3854, 0.2887 0.4347 0.3858, 0.2794 0.4468 0.3854, 0.2794 0.4468 0.3858, 0.2673 0.4561 0.3854, 0.2673 0.4561 0.3858, 0.2532 0.4619 0.3854, 0.2532 0.4619 0.3858, 0.2381 0.4639 0.3854, 0.2381 0.4639 0.3858, 0.223 0.4619 0.3854, 0.223 0.4619 0.3858, 0.2089 0.4561 0.3854, 0.2089 0.4561 0.3858, 0.1968 0.4468 0.3854, 0.1968 0.4468 0.3858, 0.1876 0.4347 0.3854, 0.1876 0.4347 0.3858, 0.1817 0.4206 0.3854, 0.1817 0.4206 0.3858, 0.1798 0.4055 0.3854, 0.1798 0.4055 0.3858, 0.1817 0.3904 0.3854, 0.1817 0.3904 0.3858, 0.1876 0.3763 0.3854, 0.1876 0.3763 0.3858, 0.1968 0.3642 0.3854, 0.1968 0.3642 0.3858, 0.2089 0.355 0.3854, 0.2089 0.355 0.3858, 0.223 0.3491 0.3854, 0.223 0.3491 0.3858, 0.2381 0.3471 0.3854, 0.2381 0.3471 0.3858, 0.2532 0.3491 0.3854, 0.2532 0.3491 0.3858, 0.2673 0.355 0.3854, 0.2673 0.355 0.3858, 0.2794 0.3642 0.3854, 0.2794 0.3642 0.3858, 0.2887 0.3763 0.3854, 0.2887 0.3763 0.3858, 0.2945 0.3904 0.3854, 0.2945 0.3904 0.3858, 0.2381 0.4055 0.3854
            ]
        }
        coordIndex [
            0,1,2,-1,2,1,3,-1,2,3,4,-1,4,3,5,-1,4,5,6,-1,6,5,7,-1,6,7,8,-1,8,7,9,-1,8,9,10,-1,10,9,11,-1,10,11,12,-1,12,11,13,-1,12,13,14,-1,14,13,15,-1,14,15,16,-1,16,15,17,-1,16,17,18,-1,18,17,19,-1,18,19,20,-1,20,19,21,-1,20,21,22,-1,22,21,23,-1,22,23,24,-1,24,23,25,-1,24,25,26,-1,26,25,27,-1,26,27,28,-1,28,27,29,-1,28,29,30,-1,30,29,31,-1,30,31,32,-1,32,31,33,-1,32,33,34,-1,34,33,35,-1,34,35,36,-1,36,35,37,-1,36,37,38,-1,38,37,39,-1,38,39,40,-1,40,39,41,-1,40,41,42,-1,42,41,43,-1,42,43,44,-1,44,43,45,-1,44,45,46,-1,46,45,47,-1,46,47,0,-1,0,47,1,-1,44,46,48,-1,48,46,0,-1,48,0,2,-1,38,40,48,-1,48,40,42,-1,48,42,44,-1,32,34,48,-1,48,34,36,-1,48,36,38,-1,26,28,48,-1,48,28,30,-1,48,30,32,-1,20,22,48,-1,48,22,24,-1,48,24,26,-1,14,16,48,-1,48,16,18,-1,48,18,20,-1,8,10,48,-1,48,10,12,-1,48,12,14,-1,2,4,48,-1,48,4,6,-1,48,6,8,-1,
        ]
    }
}
Shape{
    appearance Appearance {
        material  Material 	{
            diffuseColor 0.25098039215686274 0.25098039215686274 0.25098039215686274
            specularColor 0.12549019607843137 0.12549019607843137 0.12549019607843137
            ambientIntensity 0.251
            transparency 0.0
            shininess 0.5
        }
    }
    geometry IndexedFaceSet {
        ccw TRUE
        solid FALSE
        coord DEF co Coordinate {
            point [
                0.064 -0.5929 0.0, 0.0672 -0.592 0.0, 0.0672 -0.689 0.0, 0.1599 -0.5566 0.0, 0.1772 -0.5447 0.0, 0.1772 -0.689 0.0, 0.0324 0.3756 0.0, 0.0324 0.4343 0.0, 0.0672 0.4343 0.0, 0.0454 0.2045 0.0, 0.0493 0.2041 0.0, 0.0369 0.1749 0.0, 0.0362 0.1753 0.0, 0.0362 0.171 0.0, 0.0324 0.1687 0.0, 0.0404 0.1693 0.0, 0.0444 0.1687 0.0, 0.0589 0.1723 0.0, 0.0618 0.1754 0.0, 0.0672 0.1687 0.0, 0.0408 0.2085 0.0, 0.0362 0.2073 0.0, 0.0324 0.2629 0.0, 0.0362 0.202 0.0, 0.0557 0.1703 0.0, 0.0406 0.2039 0.0, 0.0672 0.2629 0.0, 0.0611 0.2016 0.0, 0.0576 0.2051 0.0, 0.0655 0.1879 0.0, 0.0649 0.1935 0.0, 0.0634 0.198 0.0, 0.0523 0.203 0.0, 0.055 0.2012 0.0, 0.0574 0.1986 0.0, 0.0602 0.1882 0.0, 0.0598 0.184 0.0, 0.0588 0.1806 0.0, 0.05 0.1732 0.0, 0.0463 0.1728 0.0, 0.0529 0.1743 0.0, 0.0553 0.1759 0.0, 0.0571 0.1779 0.0, 0.0411 0.1734 0.0, 0.059 0.1955 0.0, 0.06 0.1913 0.0, 0.0639 0.1792 0.0, 0.0651 0.1834 0.0, 0.0538 0.2072 0.0, 0.0494 0.2085 0.0, 0.0455 0.2088 0.0, 0.046 0.1685 0.0, 0.0324 0.0759 0.0, 0.0672 0.0759 0.0, 0.047 0.1685 0.0, 0.0494 0.1687 0.0, 0.0519 0.169 0.0, -0.2362 0.2629 0.0, -0.1772 0.2629 0.0, -0.2362 0.1687 0.0, -0.1772 0.1687 0.0, -0.1772 0.3756 0.0, -0.2362 0.3169 0.0, -0.5315 0.3756 0.0, -0.4724 0.3169 0.0, -0.5315 0.2629 0.0, -0.4724 0.2629 0.0, -0.5315 0.1687 0.0, -0.4724 0.1687 0.0, -0.5315 0.0759 0.0, -0.4724 0.1114 0.0, 0.0036 0.3756 0.0, 0.0036 0.4343 0.0, -0.0334 0.3756 0.0, -0.0334 0.4343 0.0, -0.1181 0.4343 0.0, -0.1181 0.6398 0.0, -0.1772 0.689 0.0, -0.0334 0.6398 0.0, -0.0334 0.689 0.0, 0.0036 0.689 0.0, 0.0036 0.6398 0.0, 0.0324 0.689 0.0, 0.0324 0.6398 0.0, 0.0672 0.689 0.0, 0.0672 0.6398 0.0, -0.3199 -0.2795 0.0, -0.5315 -0.689 0.0, -0.3157 -0.3308 0.0, -0.1817 -0.0163 0.0, -0.1772 0.0759 0.0, -0.2362 0.1114 0.0, -0.2216 -0.0488 0.0, -0.2557 -0.0874 0.0, -0.2832 -0.1309 0.0, -0.3034 -0.3808 0.0, -0.2832 -0.4282 0.0, -0.2557 -0.4717 0.0, -0.3034 -0.1782 0.0, -0.3157 -0.2282 0.0, -0.1772 -0.5454 0.0, -0.1772 -0.689 0.0, -0.1817 -0.5428 0.0, -0.2216 -0.5102 0.0, -0.089 0.0277 0.0, -0.1371 0.0095 0.0, -0.1772 -0.0136 0.0, -0.0386 0.038 0.0, -0.0334 0.0759 0.0, -0.0334 0.0382 0.0, 0.0036 0.0759 0.0, 0.0036 0.0397 0.0, 0.1134 0.0196 0.0, 0.0672 0.033 0.0, 0.064 0.0339 0.0, 0.0324 0.0377 0.0, 0.0129 0.0401 0.0, 0.2394 -0.4916 0.0, 0.2704 -0.4505 0.0, 0.3962 -0.689 0.0, 0.2943 -0.4049 0.0, 0.2023 -0.5273 0.0, 0.3106 -0.203 0.0, 0.2943 -0.1541 0.0, 0.3962 0.0759 0.0, 0.2704 -0.1086 0.0, 0.3106 -0.3561 0.0, 0.3188 -0.3053 0.0, 0.3188 -0.2538 0.0, 0.2394 -0.0674 0.0, 0.2023 -0.0317 0.0, 0.1772 0.0759 0.0, 0.1772 -0.0144 0.0, 0.1599 -0.0025 0.0, 0.1134 -0.5786 0.0, 0.0324 -0.5968 0.0, 0.0324 -0.689 0.0, 0.0129 -0.5991 0.0, 0.0036 -0.689 0.0, 0.0036 -0.5988 0.0, -0.0334 -0.689 0.0, -0.0334 -0.5973 0.0, -0.1371 -0.5685 0.0, -0.089 -0.5868 0.0, -0.0386 -0.5971 0.0, 0.2362 0.4343 0.0, 0.1772 0.3756 0.0, 0.2362 0.6398 0.0, 0.1772 0.689 0.0, 0.3962 0.6398 0.0, 0.3962 0.689 0.0, 0.4724 0.6398 0.0, 0.5315 0.689 0.0, 0.4724 0.4343 0.0, 0.5315 0.3756 0.0, 0.3962 0.4343 0.0, 0.3962 0.3756 0.0, 0.1772 0.2629 0.0, 0.2362 0.2629 0.0, 0.1772 0.1687 0.0, 0.2362 0.1687 0.0, 0.2362 0.1114 0.0, 0.2362 0.3169 0.0, 0.3962 0.3169 0.0, 0.4724 0.3169 0.0, 0.4724 0.2629 0.0, 0.5315 0.2629 0.0, 0.4724 0.1687 0.0, 0.5315 0.1687 0.0, 0.4724 0.1114 0.0, 0.5315 0.0759 0.0, 0.3962 0.1114 0.0, -0.2362 0.6398 0.0, -0.2362 0.4343 0.0, -0.4724 0.4343 0.0, -0.4724 0.6398 0.0, -0.5315 0.689 0.0, -0.0334 0.2629 0.0, 0.0672 0.3756 0.0, -0.0646 0.169 0.0, -0.0606 0.18 0.0, -0.0444 0.18 0.0, -0.0406 0.169 0.0, -0.0334 0.1687 0.0, -0.0704 0.169 0.0, -0.055 0.2083 0.0, -0.0497 0.2083 0.0, -0.0348 0.169 0.0, -0.03 0.1798 0.0, -0.0277 0.1762 0.0, -0.0245 0.1731 0.0, -0.0204 0.1707 0.0, 0.0036 0.1687 0.0, -0.0003 0.2083 0.0, 0.0036 0.2629 0.0, -0.0114 0.2083 0.0, -0.0171 0.2077 0.0, -0.0217 0.2061 0.0, -0.026 0.2032 0.0, -0.026 0.2032 0.0, -0.0288 0.2001 0.0, -0.0306 0.1967 0.0, -0.0159 0.1694 0.0, -0.011 0.169 0.0, -0.0003 0.169 0.0, -0.0317 0.1929 0.0, -0.032 0.1891 0.0, -0.0314 0.1839 0.0, 0.0285 0.2083 0.0, 0.1181 0.6398 0.0, 0.1181 0.4343 0.0, 0.0084 0.2083 0.0, 0.0084 0.204 0.0, 0.0074 0.1733 0.0, 0.0074 0.169 0.0, 0.0285 0.169 0.0, 0.0232 0.1867 0.0, 0.0232 0.1733 0.0, 0.0093 0.1867 0.0, 0.0093 0.1911 0.0, 0.0232 0.1911 0.0, 0.0232 0.204 0.0, 0.0689 0.1733 0.0, 0.0689 0.169 0.0, 0.0837 0.1733 0.0, 0.0837 0.2083 0.0, 0.089 0.2083 0.0, 0.089 0.169 0.0, 0.5315 -0.689 0.0
            ]
        }
        coordIndex [
            0,1,2,-1,3,4,5,-1,6,7,8,-1,9,10,11,-1,12,13,14,-1,14,13,15,-1,14,15,16,-1,17,18,19,-1,20,21,22,-1,22,21,23,-1,17,19,24,-1,9,11,25,-1,25,11,12,-1,25,12,23,-1,26,27,28,-1,29,30,26,-1,26,30,31,-1,26,31,27,-1,10,32,11,-1,11,32,33,-1,11,33,34,-1,35,36,11,-1,11,36,37,-1,38,39,40,-1,40,39,41,-1,37,42,11,-1,11,42,41,-1,11,41,43,-1,43,41,39,-1,34,44,11,-1,11,44,45,-1,11,45,35,-1,18,46,19,-1,19,46,47,-1,19,47,29,-1,28,48,26,-1,26,48,49,-1,26,49,22,-1,22,49,50,-1,22,50,20,-1,16,51,52,-1,52,51,53,-1,51,54,53,-1,53,54,55,-1,53,55,19,-1,19,55,56,-1,19,56,24,-1,57,58,59,-1,59,58,60,-1,61,62,63,-1,63,62,64,-1,63,64,65,-1,65,64,66,-1,65,66,67,-1,67,66,68,-1,67,68,69,-1,69,68,70,-1,7,71,72,-1,72,71,73,-1,72,73,74,-1,74,73,75,-1,75,73,61,-1,75,61,76,-1,76,61,77,-1,76,77,78,-1,77,79,78,-1,78,79,80,-1,78,80,81,-1,81,80,82,-1,81,82,83,-1,83,82,84,-1,83,84,85,-1,69,86,87,-1,87,86,88,-1,89,69,90,-1,90,69,70,-1,90,70,91,-1,89,92,69,-1,69,92,93,-1,69,93,94,-1,88,95,87,-1,87,95,96,-1,87,96,97,-1,94,98,69,-1,69,98,99,-1,69,99,86,-1,100,101,102,-1,102,101,87,-1,102,87,103,-1,103,87,97,-1,104,105,90,-1,90,105,106,-1,90,106,89,-1,104,90,107,-1,107,90,108,-1,107,108,109,-1,109,108,110,-1,109,110,111,-1,112,113,53,-1,53,113,114,-1,53,114,52,-1,52,114,115,-1,52,115,110,-1,110,115,116,-1,110,116,111,-1,117,118,119,-1,119,118,120,-1,5,4,119,-1,119,4,121,-1,119,121,117,-1,122,123,124,-1,124,123,125,-1,120,126,119,-1,119,126,127,-1,119,127,124,-1,124,127,128,-1,124,128,122,-1,125,129,124,-1,124,129,130,-1,124,130,131,-1,131,130,132,-1,131,132,133,-1,2,1,5,-1,5,1,134,-1,5,134,3,-1,0,2,135,-1,135,2,136,-1,135,136,137,-1,137,136,138,-1,137,138,139,-1,139,138,140,-1,139,140,141,-1,100,142,101,-1,101,142,143,-1,101,143,140,-1,140,143,144,-1,140,144,141,-1,145,146,147,-1,147,146,148,-1,147,148,149,-1,149,148,150,-1,149,150,151,-1,151,150,152,-1,151,152,153,-1,153,152,154,-1,153,154,155,-1,155,154,156,-1,155,156,145,-1,145,156,146,-1,157,158,159,-1,159,158,160,-1,159,160,131,-1,131,160,161,-1,131,161,124,-1,162,146,163,-1,163,146,156,-1,163,156,164,-1,164,156,154,-1,164,154,165,-1,165,154,166,-1,165,166,167,-1,167,166,168,-1,167,168,169,-1,169,168,170,-1,169,170,171,-1,172,77,173,-1,173,77,61,-1,173,61,174,-1,174,61,63,-1,174,63,175,-1,175,63,176,-1,175,176,172,-1,172,176,77,-1,71,177,73,-1,73,177,58,-1,73,58,61,-1,61,58,57,-1,61,57,62,-1,22,178,26,-1,26,178,146,-1,26,146,157,-1,157,146,162,-1,157,162,158,-1,179,180,181,-1,181,182,179,-1,179,182,183,-1,179,183,184,-1,184,183,60,-1,184,60,185,-1,185,60,58,-1,185,58,186,-1,186,58,177,-1,186,177,187,-1,187,177,183,-1,187,183,182,-1,188,189,183,-1,183,189,190,-1,183,190,191,-1,192,193,194,-1,194,193,195,-1,196,197,177,-1,177,197,198,-1,7,6,71,-1,71,6,194,-1,71,194,177,-1,177,194,195,-1,177,195,196,-1,198,199,177,-1,177,199,200,-1,177,200,201,-1,191,202,183,-1,183,202,203,-1,183,203,192,-1,192,203,204,-1,192,204,193,-1,201,205,177,-1,177,205,206,-1,177,206,183,-1,183,206,207,-1,183,207,188,-1,23,12,22,-1,22,12,14,-1,22,14,208,-1,85,84,209,-1,209,84,148,-1,209,148,210,-1,210,148,146,-1,210,146,8,-1,8,146,178,-1,8,178,6,-1,6,178,22,-1,6,22,194,-1,194,22,208,-1,194,208,211,-1,211,212,194,-1,194,212,213,-1,194,213,192,-1,192,213,214,-1,192,214,14,-1,14,214,215,-1,14,215,208,-1,216,217,218,-1,218,217,213,-1,218,213,219,-1,219,213,212,-1,219,212,220,-1,220,212,221,-1,29,26,19,-1,19,26,222,-1,19,222,223,-1,224,222,225,-1,225,222,26,-1,225,26,226,-1,226,26,157,-1,226,157,227,-1,227,157,159,-1,16,52,14,-1,14,52,110,-1,14,110,192,-1,192,110,108,-1,192,108,183,-1,183,108,90,-1,183,90,60,-1,60,90,91,-1,60,91,59,-1,223,227,19,-1,19,227,159,-1,19,159,53,-1,53,159,131,-1,53,131,112,-1,112,131,133,-1,161,171,124,-1,124,171,170,-1,124,170,119,-1,119,170,228,-1,
        ]
    }
}
Shape{
    appearance Appearance {
        material  Material 	{
            diffuseColor 0.5019607843137255 0.5019607843137255 0.5019607843137255
            specularColor 0.25098039215686274 0.25098039215686274 0.25098039215686274
            ambientIntensity 0.502
            transparency 0.0
            shininess 0.5
        }
    }
    geometry IndexedFaceSet {
        ccw TRUE
        solid FALSE
        coord DEF co Coordinate {
            point [
                -0.2018 -0.2795 0.0004, -0.1976 -0.2389 0.0394, -0.1976 -0.2389 0.0004, -0.1854 -0.2 0.0394, -0.1854 -0.2 0.0004, -0.1656 -0.1643 0.0394, -0.1656 -0.1643 0.0004, -0.139 -0.1333 0.0394, -0.139 -0.1333 0.0004, -0.1067 -0.1083 0.0394, -0.1067 -0.1083 0.0004, -0.0701 -0.0903 0.0394, -0.0701 -0.0903 0.0004, -0.0306 -0.0801 0.0394, -0.0306 -0.0801 0.0004, 0.0102 -0.078 0.0394, 0.0102 -0.078 0.0004, 0.0506 -0.0842 0.0394, 0.0506 -0.0842 0.0004, 0.0889 -0.0984 0.0394, 0.0889 -0.0984 0.0004, 0.1235 -0.12 0.0394, 0.1235 -0.12 0.0004, 0.1531 -0.1481 0.0394, 0.1531 -0.1481 0.0004, 0.1764 -0.1816 0.0394, 0.1764 -0.1816 0.0004, 0.1925 -0.2191 0.0394, 0.1925 -0.2191 0.0004, 0.2007 -0.2591 0.0394, 0.2007 -0.2591 0.0004, 0.2007 -0.2999 0.0394, 0.2007 -0.2999 0.0004, 0.1925 -0.3399 0.0394, 0.1925 -0.3399 0.0004, 0.1764 -0.3774 0.0394, 0.1764 -0.3774 0.0004, 0.1531 -0.411 0.0394, 0.1531 -0.411 0.0004, 0.1235 -0.4391 0.0394, 0.1235 -0.4391 0.0004, 0.0889 -0.4607 0.0394, 0.0889 -0.4607 0.0004, 0.0506 -0.4749 0.0394, 0.0506 -0.4749 0.0004, 0.0102 -0.481 0.0394, 0.0102 -0.481 0.0004, -0.0306 -0.479 0.0394, -0.0306 -0.479 0.0004, -0.0701 -0.4687 0.0394, -0.0701 -0.4687 0.0004, -0.1067 -0.4508 0.0394, -0.1067 -0.4508 0.0004, -0.139 -0.4258 0.0394, -0.139 -0.4258 0.0004, -0.1656 -0.3948 0.0394, -0.1656 -0.3948 0.0004, -0.1854 -0.3591 0.0394, -0.1854 -0.3591 0.0004, -0.1976 -0.3201 0.0394, -0.1976 -0.3201 0.0004, -0.2018 -0.2795 0.0394
            ]
        }
        coordIndex [
            0,1,2,-1,2,1,3,-1,2,3,4,-1,4,3,5,-1,4,5,6,-1,6,5,7,-1,6,7,8,-1,8,7,9,-1,8,9,10,-1,10,9,11,-1,10,11,12,-1,12,11,13,-1,12,13,14,-1,14,13,15,-1,14,15,16,-1,16,15,17,-1,16,17,18,-1,18,17,19,-1,18,19,20,-1,20,19,21,-1,20,21,22,-1,22,21,23,-1,22,23,24,-1,24,23,25,-1,24,25,26,-1,26,25,27,-1,26,27,28,-1,28,27,29,-1,28,29,30,-1,30,29,31,-1,30,31,32,-1,32,31,33,-1,32,33,34,-1,34,33,35,-1,34,35,36,-1,36,35,37,-1,36,37,38,-1,38,37,39,-1,38,39,40,-1,40,39,41,-1,40,41,42,-1,42,41,43,-1,42,43,44,-1,44,43,45,-1,44,45,46,-1,46,45,47,-1,46,47,48,-1,48,47,49,-1,48,49,50,-1,50,49,51,-1,50,51,52,-1,52,51,53,-1,52,53,54,-1,54,53,55,-1,54,55,56,-1,56,55,57,-1,56,57,58,-1,58,57,59,-1,58,59,60,-1,60,59,61,-1,60,61,0,-1,0,61,1,-1,
        ]
    }
}
Shape{
    appearance Appearance {
        material  Material 	{
            diffuseColor 0.25098039215686274 0.25098039215686274 0.25098039215686274
            specularColor 0.12549019607843137 0.12549019607843137 0.12549019607843137
            ambientIntensity 0.251
            transparency 0.0
            shininess 0.5
        }
    }
    geometry IndexedFaceSet {
        ccw TRUE
        solid FALSE
        coord DEF co Coordinate {
            point [
                0.5315 0.1687 0.0, 0.5315 0.689 0.1181, 0.5315 0.0759 0.0, 0.5315 -0.689 0.1181, 0.5315 -0.689 0.0, 0.5315 0.2629 0.0, 0.5315 0.3756 0.0, 0.5315 0.689 0.0, -0.1772 0.689 0.0, -0.5315 0.689 0.0, -0.5315 0.689 0.1181, 0.3962 0.689 0.0, 0.1772 0.689 0.0, 0.0672 0.689 0.0, 0.0324 0.689 0.0, 0.0036 0.689 0.0, -0.0334 0.689 0.0, -0.5315 0.3756 0.0, -0.5315 0.2629 0.0, -0.5315 -0.689 0.0, -0.5315 -0.689 0.1181, -0.5315 0.0759 0.0, -0.5315 0.1687 0.0, -0.1772 -0.689 0.0, -0.0334 -0.689 0.0, 0.0036 -0.689 0.0, 0.0324 -0.689 0.0, 0.0672 -0.689 0.0, 0.1772 -0.689 0.0, 0.3962 -0.689 0.0
            ]
        }
        coordIndex [
            0,1,2,-1,2,1,3,-1,2,3,4,-1,0,5,1,-1,1,5,6,-1,1,6,7,-1,8,9,10,-1,7,11,1,-1,1,11,12,-1,1,12,13,-1,13,14,1,-1,1,14,15,-1,1,15,10,-1,10,15,16,-1,10,16,8,-1,9,17,10,-1,10,17,18,-1,19,20,21,-1,21,20,10,-1,21,10,22,-1,22,10,18,-1,20,19,23,-1,23,24,20,-1,20,24,25,-1,20,25,3,-1,3,25,26,-1,3,26,27,-1,27,28,3,-1,3,28,29,-1,3,29,4,-1,10,20,1,-1,1,20,3,-1,
        ]
    }
}
Shape{
    appearance Appearance {
        material  Material 	{
            diffuseColor 0.7529411764705882 0.7529411764705882 0.7529411764705882
            specularColor 0.3764705882352941 0.3764705882352941 0.3764705882352941
            ambientIntensity 0.7529
            transparency 0.0
            shininess 0.5
        }
    }
    geometry IndexedFaceSet {
        ccw TRUE
        solid FALSE
        coord DEF co Coordinate {
            point [
                -0.2362 0.4343 0.0394, -0.2362 0.6398 0.0394, -0.2362 0.4343 0.0, -0.2362 0.6398 0.0, -0.4724 0.6398 0.0394, -0.4724 0.6398 0.0, -0.4724 0.4343 0.0394, -0.4724 0.4343 0.0, -0.2362 0.3169 0.0394, -0.4724 0.3169 0.0394, -0.2362 0.3169 0.0, -0.4724 0.3169 0.0, -0.4724 0.1114 0.0394, -0.4724 0.1114 0.0, -0.4724 0.1687 0.0, -0.4724 0.2629 0.0, -0.2362 0.1114 0.0394, -0.2362 0.1114 0.0, -0.2362 0.2629 0.0, -0.2362 0.1687 0.0, 0.0036 0.6398 0.0, 0.1181 0.6398 0.0394, -0.0334 0.6398 0.0, -0.1181 0.6398 0.0394, -0.1181 0.6398 0.0, 0.0324 0.6398 0.0, 0.0672 0.6398 0.0, 0.1181 0.6398 0.0, -0.1181 0.4343 0.0394, -0.1181 0.4343 0.0, 0.1181 0.4343 0.0394, 0.1181 0.4343 0.0, 0.0672 0.4343 0.0, 0.0324 0.4343 0.0, 0.0036 0.4343 0.0, -0.0334 0.4343 0.0
            ]
        }
        coordIndex [
            0,1,2,-1,2,1,3,-1,1,4,3,-1,3,4,5,-1,4,6,5,-1,5,6,7,-1,6,0,7,-1,7,0,2,-1,6,4,0,-1,0,4,1,-1,8,9,10,-1,10,9,11,-1,12,13,14,-1,12,14,9,-1,9,14,15,-1,9,15,11,-1,12,16,13,-1,13,16,17,-1,8,10,18,-1,8,18,16,-1,16,18,19,-1,16,19,17,-1,16,12,8,-1,8,12,9,-1,20,21,22,-1,22,21,23,-1,22,23,24,-1,20,25,21,-1,21,25,26,-1,21,26,27,-1,23,28,24,-1,24,28,29,-1,30,31,32,-1,32,33,30,-1,30,33,34,-1,30,34,28,-1,28,34,35,-1,28,35,29,-1,
        ]
    }
}
Shape{
    appearance Appearance {
        material  Material 	{
            diffuseColor 0.792156862745098 0.8196078431372549 0.9333333333333333
            specularColor 0.396078431372549 0.4117647058823529 0.4666666666666667
            ambientIntensity 0.8244
            transparency 0.0
            shininess 0.5
        }
    }
    geometry IndexedFaceSet {
        ccw TRUE
        solid FALSE
        coord DEF co Coordinate {
            point [
                0.1181 0.4343 0.0394, 0.1181 0.6398 0.0394, 0.1181 0.4343 0.0, 0.1181 0.6398 0.0, -0.1181 0.4343 0.0394, -0.1181 0.6398 0.0394, -0.1817 -0.0163 0.0394, -0.1772 -0.0136 0.0, -0.1371 0.0095 0.0394, -0.1371 0.0095 0.0, -0.089 0.0277 0.0394, -0.089 0.0277 0.0, -0.0386 0.038 0.0394, -0.0386 0.038 0.0, -0.0334 0.0382 0.0, 0.0036 0.0397 0.0, 0.0129 0.0401 0.0394, 0.0129 0.0401 0.0, 0.0324 0.0377 0.0, 0.064 0.0339 0.0394, 0.064 0.0339 0.0, 0.0672 0.033 0.0, 0.1134 0.0196 0.0394, 0.1134 0.0196 0.0, 0.1599 -0.0025 0.0394, 0.1599 -0.0025 0.0, 0.1772 -0.0144 0.0, 0.2023 -0.0317 0.0394, 0.2023 -0.0317 0.0, 0.2394 -0.0674 0.0394, 0.2394 -0.0674 0.0, 0.2704 -0.1086 0.0394, 0.2704 -0.1086 0.0, 0.2943 -0.1541 0.0394, 0.2943 -0.1541 0.0, 0.3106 -0.203 0.0394, 0.3106 -0.203 0.0, 0.3188 -0.2538 0.0394, 0.3188 -0.2538 0.0, 0.3188 -0.3053 0.0394, 0.3188 -0.3053 0.0, 0.3106 -0.3561 0.0394, 0.3106 -0.3561 0.0, 0.2943 -0.4049 0.0394, 0.2943 -0.4049 0.0, 0.2704 -0.4505 0.0394, 0.2704 -0.4505 0.0, 0.2394 -0.4916 0.0394, 0.2394 -0.4916 0.0, 0.2023 -0.5273 0.0394, 0.2023 -0.5273 0.0, 0.1772 -0.5447 0.0, 0.1599 -0.5566 0.0394, 0.1599 -0.5566 0.0, 0.1134 -0.5786 0.0394, 0.1134 -0.5786 0.0, 0.0672 -0.592 0.0, 0.064 -0.5929 0.0394, 0.0129 -0.5991 0.0, 0.0129 -0.5991 0.0394, 0.0324 -0.5968 0.0, 0.064 -0.5929 0.0, 0.0036 -0.5988 0.0, -0.0334 -0.5973 0.0, -0.0386 -0.5971 0.0394, -0.0386 -0.5971 0.0, -0.089 -0.5868 0.0394, -0.089 -0.5868 0.0, -0.1371 -0.5685 0.0394, -0.1371 -0.5685 0.0, -0.1772 -0.5454 0.0, -0.1817 -0.5428 0.0394, -0.1817 -0.5428 0.0, -0.2216 -0.5102 0.0394, -0.2216 -0.5102 0.0, -0.2557 -0.4717 0.0394, -0.2557 -0.4717 0.0, -0.2832 -0.4282 0.0394, -0.2832 -0.4282 0.0, -0.3034 -0.3808 0.0394, -0.3034 -0.3808 0.0, -0.3157 -0.3308 0.0394, -0.3157 -0.3308 0.0, -0.3199 -0.2795 0.0394, -0.3199 -0.2795 0.0, -0.3157 -0.2282 0.0394, -0.3157 -0.2282 0.0, -0.3034 -0.1782 0.0394, -0.3034 -0.1782 0.0, -0.2832 -0.1309 0.0394, -0.2832 -0.1309 0.0, -0.2557 -0.0874 0.0394, -0.2557 -0.0874 0.0, -0.2216 -0.0488 0.0394, -0.2216 -0.0488 0.0, -0.1817 -0.0163 0.0, -0.1854 -0.3591 0.0394, -0.1976 -0.3201 0.0394, -0.2018 -0.2795 0.0394, -0.1976 -0.2389 0.0394, 0.1925 -0.3399 0.0394, 0.1764 -0.3774 0.0394, 0.1531 -0.411 0.0394, 0.1235 -0.4391 0.0394, 0.0889 -0.4607 0.0394, 0.0506 -0.4749 0.0394, 0.0102 -0.481 0.0394, -0.0306 -0.479 0.0394, -0.0701 -0.4687 0.0394, 0.1764 -0.1816 0.0394, 0.1925 -0.2191 0.0394, 0.2007 -0.2591 0.0394, 0.2007 -0.2999 0.0394, -0.1067 -0.1083 0.0394, -0.0701 -0.0903 0.0394, -0.0306 -0.0801 0.0394, 0.0102 -0.078 0.0394, 0.0506 -0.0842 0.0394, -0.1067 -0.4508 0.0394, -0.139 -0.4258 0.0394, -0.1656 -0.3948 0.0394, 0.0889 -0.0984 0.0394, 0.1235 -0.12 0.0394, 0.1531 -0.1481 0.0394, -0.1854 -0.2 0.0394, -0.1656 -0.1643 0.0394, -0.139 -0.1333 0.0394, 0.2362 0.6398 0.0394, 0.2362 0.6398 0.0, 0.4724 0.6398 0.0394, 0.3962 0.6398 0.0, 0.4724 0.6398 0.0, 0.2362 0.4343 0.0394, 0.2362 0.4343 0.0, 0.3962 0.4343 0.0, 0.4724 0.4343 0.0394, 0.4724 0.4343 0.0, 0.2362 0.3169 0.0394, 0.2362 0.3169 0.0, 0.4724 0.3169 0.0394, 0.3962 0.3169 0.0, 0.4724 0.3169 0.0, 0.2362 0.1114 0.0394, 0.2362 0.1114 0.0, 0.2362 0.1687 0.0, 0.2362 0.2629 0.0, 0.3962 0.1114 0.0, 0.4724 0.1114 0.0394, 0.4724 0.1114 0.0, 0.4724 0.2629 0.0, 0.4724 0.1687 0.0
            ]
        }
        coordIndex [
            0,1,2,-1,2,1,3,-1,0,4,1,-1,1,4,5,-1,6,7,8,-1,8,7,9,-1,8,9,10,-1,10,9,11,-1,10,11,12,-1,12,11,13,-1,13,14,12,-1,12,14,15,-1,12,15,16,-1,15,17,16,-1,16,17,18,-1,16,18,19,-1,18,20,19,-1,19,20,21,-1,19,21,22,-1,22,21,23,-1,22,23,24,-1,23,25,24,-1,24,25,26,-1,24,26,27,-1,27,26,28,-1,27,28,29,-1,29,28,30,-1,29,30,31,-1,31,30,32,-1,31,32,33,-1,33,32,34,-1,33,34,35,-1,35,34,36,-1,35,36,37,-1,37,36,38,-1,37,38,39,-1,39,38,40,-1,39,40,41,-1,41,40,42,-1,41,42,43,-1,43,42,44,-1,43,44,45,-1,45,44,46,-1,45,46,47,-1,47,46,48,-1,47,48,49,-1,48,50,49,-1,49,50,51,-1,49,51,52,-1,52,51,53,-1,52,53,54,-1,53,55,54,-1,54,55,56,-1,54,56,57,-1,58,59,60,-1,60,59,57,-1,60,57,61,-1,61,57,56,-1,58,62,59,-1,59,62,63,-1,59,63,64,-1,64,63,65,-1,64,65,66,-1,66,65,67,-1,66,67,68,-1,67,69,68,-1,68,69,70,-1,68,70,71,-1,71,70,72,-1,71,72,73,-1,73,72,74,-1,73,74,75,-1,75,74,76,-1,75,76,77,-1,77,76,78,-1,77,78,79,-1,79,78,80,-1,79,80,81,-1,81,80,82,-1,81,82,83,-1,83,82,84,-1,83,84,85,-1,85,84,86,-1,85,86,87,-1,87,86,88,-1,87,88,89,-1,89,88,90,-1,89,90,91,-1,91,90,92,-1,91,92,93,-1,93,92,94,-1,93,94,6,-1,6,94,95,-1,6,95,7,-1,96,79,97,-1,97,79,81,-1,97,81,98,-1,98,81,83,-1,98,83,99,-1,100,43,101,-1,101,43,45,-1,101,45,102,-1,102,45,47,-1,102,47,103,-1,103,47,49,-1,103,49,104,-1,49,52,104,-1,104,52,54,-1,104,54,105,-1,105,54,57,-1,105,57,106,-1,106,57,59,-1,106,59,107,-1,107,59,64,-1,107,64,108,-1,109,33,110,-1,110,33,35,-1,110,35,111,-1,111,35,37,-1,111,37,112,-1,112,37,39,-1,112,39,100,-1,100,39,41,-1,100,41,43,-1,113,8,114,-1,114,8,10,-1,114,10,115,-1,115,10,12,-1,115,12,116,-1,116,12,16,-1,116,16,117,-1,64,66,108,-1,108,66,68,-1,108,68,118,-1,118,68,71,-1,118,71,119,-1,119,71,73,-1,119,73,120,-1,120,73,75,-1,120,75,96,-1,96,75,77,-1,96,77,79,-1,16,19,117,-1,117,19,22,-1,117,22,121,-1,121,22,24,-1,121,24,122,-1,122,24,27,-1,122,27,123,-1,123,27,29,-1,123,29,109,-1,109,29,31,-1,109,31,33,-1,83,85,99,-1,99,85,87,-1,99,87,124,-1,124,87,89,-1,124,89,125,-1,125,89,91,-1,125,91,126,-1,126,91,93,-1,126,93,113,-1,113,93,6,-1,113,6,8,-1,127,128,129,-1,129,128,130,-1,129,130,131,-1,127,132,128,-1,128,132,133,-1,133,132,134,-1,134,132,135,-1,134,135,136,-1,135,129,136,-1,136,129,131,-1,135,132,129,-1,129,132,127,-1,137,138,139,-1,139,138,140,-1,139,140,141,-1,142,143,144,-1,142,144,137,-1,137,144,145,-1,137,145,138,-1,143,142,146,-1,146,142,147,-1,146,147,148,-1,139,141,149,-1,139,149,147,-1,147,149,150,-1,147,150,148,-1,
        ]
    }
}
Shape{
    appearance Appearance {
        material  Material 	{
            diffuseColor 0.7529411764705882 0.7529411764705882 0.7529411764705882
            specularColor 0.3764705882352941 0.3764705882352941 0.3764705882352941
            ambientIntensity 0.7529
            transparency 0.0
            shininess 0.5
        }
    }
    geometry IndexedFaceSet {
        ccw TRUE
        solid FALSE
        coord DEF co Coordinate {
            point [
                0.4724 0.1114 0.0394, 0.2362 0.1114 0.0394, 0.4724 0.3169 0.0394, 0.2362 0.3169 0.0394
            ]
        }
        coordIndex [
            0,1,2,-1,2,1,3,-1,
        ]
    }
}
Shape{
    appearance Appearance {
        material  Material 	{
            diffuseColor 0.2627450980392157 0.0 0.30980392156862746
            specularColor 0.13333333333333333 0.0 0.1568627450980392
            ambientIntensity 0.1139
            transparency 0.0
            shininess 0.5
        }
    }
    geometry IndexedFaceSet {
        ccw TRUE
        solid FALSE
        coord DEF co Coordinate {
            point [
                -0.0554 -0.3115 0.0004, -0.1854 -0.3591 0.0004, -0.0618 -0.2961 0.0004, -0.1976 -0.3201 0.0004, -0.064 -0.2795 0.0004, -0.2018 -0.2795 0.0004, -0.0618 -0.263 0.0004, 0.0 -0.3435 0.0004, -0.0306 -0.479 0.0004, -0.0166 -0.3413 0.0004, -0.0701 -0.4687 0.0004, -0.032 -0.3349 0.0004, -0.1067 -0.4508 0.0004, -0.0452 -0.3248 0.0004, -0.139 -0.4258 0.0004, -0.1656 -0.3948 0.0004, 0.0452 -0.3248 0.0004, 0.1235 -0.4391 0.0004, 0.032 -0.3349 0.0004, 0.0889 -0.4607 0.0004, 0.0166 -0.3413 0.0004, 0.0506 -0.4749 0.0004, 0.0102 -0.481 0.0004, -0.1976 -0.2389 0.0004, -0.1854 -0.2 0.0004, -0.0554 -0.2475 0.0004, -0.1656 -0.1643 0.0004, -0.0452 -0.2343 0.0004, -0.139 -0.1333 0.0004, -0.032 -0.2241 0.0004, -0.1067 -0.1083 0.0004, -0.0166 -0.2177 0.0004, 0.032 -0.2241 0.0004, 0.1235 -0.12 0.0004, 0.0452 -0.2343 0.0004, 0.1531 -0.1481 0.0004, 0.0554 -0.2475 0.0004, 0.1764 -0.1816 0.0004, 0.0618 -0.263 0.0004, 0.1925 -0.2191 0.0004, 0.064 -0.2795 0.0004, -0.0701 -0.0903 0.0004, -0.0306 -0.0801 0.0004, 0.0 -0.2156 0.0004, 0.0102 -0.078 0.0004, 0.0166 -0.2177 0.0004, 0.0506 -0.0842 0.0004, 0.0889 -0.0984 0.0004, 0.2007 -0.2591 0.0004, 0.2007 -0.2999 0.0004, 0.0618 -0.2961 0.0004, 0.1925 -0.3399 0.0004, 0.0554 -0.3115 0.0004, 0.1764 -0.3774 0.0004, 0.1531 -0.411 0.0004, -0.064 -0.2795 0.0, -0.0618 -0.263 0.0, -0.0554 -0.2475 0.0, -0.0452 -0.2343 0.0, -0.032 -0.2241 0.0, -0.0166 -0.2177 0.0, 0.0 -0.2156 0.0, 0.0166 -0.2177 0.0, 0.032 -0.2241 0.0, 0.0452 -0.2343 0.0, 0.0554 -0.2475 0.0, 0.0618 -0.263 0.0, 0.064 -0.2795 0.0, 0.0618 -0.2961 0.0, 0.0554 -0.3115 0.0, 0.0452 -0.3248 0.0, 0.032 -0.3349 0.0, 0.0166 -0.3413 0.0, 0.0 -0.3435 0.0, -0.0166 -0.3413 0.0, -0.032 -0.3349 0.0, -0.0452 -0.3248 0.0, -0.0554 -0.3115 0.0, -0.0618 -0.2961 0.0
            ]
        }
        coordIndex [
            0,1,2,-1,2,1,3,-1,2,3,4,-1,4,3,5,-1,4,5,6,-1,7,8,9,-1,9,8,10,-1,9,10,11,-1,11,10,12,-1,11,12,13,-1,13,12,14,-1,13,14,0,-1,0,14,15,-1,0,15,1,-1,16,17,18,-1,18,17,19,-1,18,19,20,-1,20,19,21,-1,20,21,7,-1,7,21,22,-1,7,22,8,-1,5,23,6,-1,6,23,24,-1,6,24,25,-1,25,24,26,-1,25,26,27,-1,27,26,28,-1,27,28,29,-1,29,28,30,-1,29,30,31,-1,32,33,34,-1,34,33,35,-1,34,35,36,-1,36,35,37,-1,36,37,38,-1,38,37,39,-1,38,39,40,-1,30,41,31,-1,31,41,42,-1,31,42,43,-1,43,42,44,-1,43,44,45,-1,45,44,46,-1,45,46,32,-1,32,46,47,-1,32,47,33,-1,39,48,40,-1,40,48,49,-1,40,49,50,-1,50,49,51,-1,50,51,52,-1,52,51,53,-1,52,53,16,-1,16,53,54,-1,16,54,17,-1,55,6,56,-1,56,6,25,-1,56,25,57,-1,57,25,27,-1,57,27,58,-1,58,27,29,-1,58,29,59,-1,59,29,31,-1,59,31,60,-1,60,31,43,-1,60,43,61,-1,61,43,45,-1,61,45,62,-1,62,45,32,-1,62,32,63,-1,63,32,34,-1,63,34,64,-1,64,34,36,-1,64,36,65,-1,65,36,38,-1,65,38,66,-1,66,38,40,-1,66,40,67,-1,67,40,50,-1,67,50,68,-1,68,50,52,-1,68,52,69,-1,69,52,16,-1,69,16,70,-1,70,16,18,-1,70,18,71,-1,71,18,20,-1,71,20,72,-1,72,20,7,-1,72,7,73,-1,73,7,9,-1,73,9,74,-1,74,9,11,-1,74,11,75,-1,75,11,13,-1,75,13,76,-1,76,13,0,-1,76,0,77,-1,77,0,2,-1,77,2,78,-1,78,2,4,-1,78,4,55,-1,55,4,6,-1,
        ]
    }
}
Shape{
    appearance Appearance {
        material  Material 	{
            diffuseColor 0.25098039215686274 0.25098039215686274 0.25098039215686274
            specularColor 0.12549019607843137 0.12549019607843137 0.12549019607843137
            ambientIntensity 0.251
            transparency 0.0
            shininess 0.5
        }
    }
    geometry IndexedFaceSet {
        ccw TRUE
        solid FALSE
        coord DEF co Coordinate {
            point [
                -0.0554 -0.3115 0.0, -0.0618 -0.2961 0.0, 0.0 -0.2795 0.0, -0.064 -0.2795 0.0, -0.0618 -0.263 0.0, -0.0166 -0.3413 0.0, -0.032 -0.3349 0.0, -0.0452 -0.3248 0.0, 0.032 -0.3349 0.0, 0.0166 -0.3413 0.0, 0.0 -0.3435 0.0, 0.0618 -0.2961 0.0, 0.0554 -0.3115 0.0, 0.0452 -0.3248 0.0, 0.0554 -0.2475 0.0, 0.0618 -0.263 0.0, 0.064 -0.2795 0.0, 0.0166 -0.2177 0.0, 0.032 -0.2241 0.0, 0.0452 -0.2343 0.0, -0.032 -0.2241 0.0, -0.0166 -0.2177 0.0, 0.0 -0.2156 0.0, -0.0554 -0.2475 0.0, -0.0452 -0.2343 0.0
            ]
        }
        coordIndex [
            0,1,2,-1,2,1,3,-1,2,3,4,-1,5,6,2,-1,2,6,7,-1,2,7,0,-1,8,9,2,-1,2,9,10,-1,2,10,5,-1,11,12,2,-1,2,12,13,-1,2,13,8,-1,14,15,2,-1,2,15,16,-1,2,16,11,-1,17,18,2,-1,2,18,19,-1,2,19,14,-1,20,21,2,-1,2,21,22,-1,2,22,17,-1,4,23,2,-1,2,23,24,-1,2,24,20,-1,
        ]
    }
}
Shape{
    appearance Appearance {
        material  Material 	{
            diffuseColor 0.5019607843137255 0.5019607843137255 0.5019607843137255
            specularColor 0.25098039215686274 0.25098039215686274 0.25098039215686274
            ambientIntensity 0.502
            transparency 0.0
            shininess 0.5
        }
    }
    geometry IndexedFaceSet {
        ccw TRUE
        solid FALSE
        coord DEF co Coordinate {
            point [
                -0.055 0.2083 0.0004, -0.0704 0.169 0.0004, -0.055 0.2083 0.0, -0.0704 0.169 0.0, -0.0646 0.169 0.0004, -0.0646 0.169 0.0, -0.0606 0.18 0.0004, -0.0606 0.18 0.0, -0.0444 0.18 0.0004, -0.0444 0.18 0.0, -0.0406 0.169 0.0004, -0.0406 0.169 0.0, -0.0348 0.169 0.0004, -0.0348 0.169 0.0, -0.0497 0.2083 0.0004, -0.0497 0.2083 0.0, -0.0457 0.1843 0.0004, -0.0589 0.1843 0.0004, -0.0516 0.2008 0.0004, -0.0519 0.2021 0.0004, -0.0522 0.2035 0.0004, -0.0523 0.2035 0.0004, -0.0526 0.2021 0.0004, -0.0529 0.2008 0.0004, -0.0457 0.1843 0.0, -0.0589 0.1843 0.0, -0.0516 0.2008 0.0, -0.0519 0.2021 0.0, -0.0522 0.2035 0.0, -0.0523 0.2035 0.0, -0.0526 0.2021 0.0, -0.0529 0.2008 0.0, -0.011 0.169 0.0004, -0.0003 0.169 0.0004, -0.011 0.169 0.0, -0.0003 0.169 0.0, -0.0003 0.2083 0.0004, -0.0003 0.2083 0.0, -0.0114 0.2083 0.0004, -0.0114 0.2083 0.0, -0.032 0.1891 0.0004, -0.032 0.1891 0.0, -0.0317 0.1929 0.0, -0.0317 0.1929 0.0004, -0.0306 0.1967 0.0, -0.0306 0.1967 0.0004, -0.0288 0.2001 0.0, -0.0288 0.2001 0.0004, -0.026 0.2032 0.0, -0.026 0.2032 0.0004, -0.026 0.2032 0.0, -0.026 0.2032 0.0004, -0.0217 0.2061 0.0, -0.0217 0.2061 0.0004, -0.0171 0.2077 0.0, -0.0171 0.2077 0.0004, -0.0159 0.1694 0.0, -0.0159 0.1694 0.0004, -0.0204 0.1707 0.0, -0.0204 0.1707 0.0004, -0.0245 0.1731 0.0, -0.0245 0.1731 0.0004, -0.0277 0.1762 0.0, -0.0277 0.1762 0.0004, -0.03 0.1798 0.0, -0.03 0.1798 0.0004, -0.0314 0.1839 0.0, -0.0314 0.1839 0.0004, -0.0241 0.1985 0.0004, -0.0221 0.2005 0.0004, -0.0193 0.2024 0.0004, -0.016 0.2035 0.0004, -0.0114 0.204 0.0004, -0.0056 0.204 0.0004, -0.0056 0.1733 0.0004, -0.0111 0.1733 0.0004, -0.0153 0.1737 0.0004, -0.0186 0.1747 0.0004, -0.0213 0.1763 0.0004, -0.0235 0.1785 0.0004, -0.0252 0.1812 0.0004, -0.0263 0.1849 0.0004, -0.0267 0.189 0.0004, -0.0263 0.193 0.0004, -0.0254 0.1961 0.0004, -0.0114 0.204 0.0, -0.0056 0.204 0.0, -0.016 0.2035 0.0, -0.0193 0.2024 0.0, -0.0221 0.2005 0.0, -0.0241 0.1985 0.0, -0.0254 0.1961 0.0, -0.0263 0.193 0.0, -0.0267 0.189 0.0, -0.0263 0.1849 0.0, -0.0252 0.1812 0.0, -0.0235 0.1785 0.0, -0.0213 0.1763 0.0, -0.0186 0.1747 0.0, -0.0153 0.1737 0.0, -0.0111 0.1733 0.0, -0.0056 0.1733 0.0, 0.0074 0.1733 0.0004, 0.0074 0.169 0.0004, 0.0074 0.1733 0.0, 0.0074 0.169 0.0, 0.0285 0.169 0.0004, 0.0285 0.169 0.0, 0.0285 0.2083 0.0004, 0.0285 0.2083 0.0, 0.0084 0.2083 0.0004, 0.0084 0.2083 0.0, 0.0084 0.204 0.0004, 0.0084 0.204 0.0, 0.0232 0.204 0.0004, 0.0232 0.204 0.0, 0.0232 0.1911 0.0004, 0.0232 0.1911 0.0, 0.0093 0.1911 0.0004, 0.0093 0.1911 0.0, 0.0093 0.1867 0.0004, 0.0093 0.1867 0.0, 0.0232 0.1867 0.0004, 0.0232 0.1867 0.0, 0.0232 0.1733 0.0004, 0.0232 0.1733 0.0, 0.0362 0.1753 0.0004, 0.0362 0.171 0.0004, 0.0362 0.1753 0.0, 0.0362 0.171 0.0, 0.0404 0.1693 0.0004, 0.047 0.1685 0.0004, 0.047 0.1685 0.0, 0.046 0.1685 0.0, 0.046 0.1685 0.0004, 0.0444 0.1687 0.0, 0.0404 0.1693 0.0, 0.0494 0.1687 0.0, 0.0519 0.169 0.0004, 0.0519 0.169 0.0, 0.0557 0.1703 0.0004, 0.0557 0.1703 0.0, 0.0589 0.1723 0.0004, 0.0589 0.1723 0.0, 0.0618 0.1754 0.0004, 0.0618 0.1754 0.0, 0.0639 0.1792 0.0004, 0.0639 0.1792 0.0, 0.0651 0.1834 0.0004, 0.0651 0.1834 0.0, 0.0655 0.1879 0.0004, 0.0655 0.1879 0.0, 0.0455 0.2088 0.0004, 0.0455 0.2088 0.0, 0.0494 0.2085 0.0, 0.0494 0.2085 0.0004, 0.0538 0.2072 0.0, 0.0538 0.2072 0.0004, 0.0576 0.2051 0.0, 0.0576 0.2051 0.0004, 0.0611 0.2016 0.0, 0.0611 0.2016 0.0004, 0.0634 0.198 0.0, 0.0634 0.198 0.0004, 0.0649 0.1935 0.0, 0.0649 0.1935 0.0004, 0.0362 0.2073 0.0004, 0.0362 0.2073 0.0, 0.0408 0.2085 0.0, 0.0408 0.2085 0.0004, 0.0362 0.202 0.0004, 0.0362 0.202 0.0, 0.0454 0.2045 0.0004, 0.0454 0.2045 0.0, 0.0406 0.2039 0.0, 0.0406 0.2039 0.0004, 0.0602 0.1882 0.0004, 0.0602 0.1882 0.0, 0.06 0.1913 0.0, 0.06 0.1913 0.0004, 0.059 0.1955 0.0, 0.059 0.1955 0.0004, 0.0574 0.1986 0.0, 0.0574 0.1986 0.0004, 0.055 0.2012 0.0, 0.055 0.2012 0.0004, 0.0523 0.203 0.0, 0.0523 0.203 0.0004, 0.0493 0.2041 0.0, 0.0493 0.2041 0.0004, 0.0463 0.1728 0.0004, 0.0463 0.1728 0.0, 0.05 0.1732 0.0, 0.05 0.1732 0.0004, 0.0529 0.1743 0.0, 0.0529 0.1743 0.0004, 0.0553 0.1759 0.0, 0.0553 0.1759 0.0004, 0.0571 0.1779 0.0, 0.0571 0.1779 0.0004, 0.0588 0.1806 0.0, 0.0588 0.1806 0.0004, 0.0598 0.184 0.0, 0.0598 0.184 0.0004, 0.0369 0.1749 0.0, 0.0369 0.1749 0.0004, 0.0411 0.1734 0.0, 0.0411 0.1734 0.0004, 0.0689 0.1733 0.0004, 0.0689 0.169 0.0004, 0.0689 0.1733 0.0, 0.0689 0.169 0.0, 0.089 0.169 0.0004, 0.089 0.169 0.0, 0.089 0.2083 0.0004, 0.089 0.2083 0.0, 0.0837 0.2083 0.0004, 0.0837 0.2083 0.0, 0.0837 0.1733 0.0004, 0.0837 0.1733 0.0
            ]
        }
        coordIndex [
            0,1,2,-1,2,1,3,-1,1,4,3,-1,3,4,5,-1,4,6,5,-1,5,6,7,-1,6,8,7,-1,7,8,9,-1,8,10,9,-1,9,10,11,-1,10,12,11,-1,11,12,13,-1,12,14,13,-1,13,14,15,-1,14,0,15,-1,15,0,2,-1,16,8,17,-1,17,8,6,-1,18,14,16,-1,16,14,12,-1,16,12,8,-1,8,12,10,-1,18,19,14,-1,14,19,20,-1,14,20,0,-1,0,20,21,-1,0,21,22,-1,22,23,0,-1,0,23,17,-1,0,17,1,-1,1,17,6,-1,1,6,4,-1,16,17,24,-1,24,17,25,-1,18,16,26,-1,26,16,24,-1,18,26,27,-1,18,27,19,-1,19,27,28,-1,19,28,20,-1,21,20,29,-1,29,20,28,-1,21,29,30,-1,21,30,22,-1,22,30,31,-1,22,31,23,-1,17,23,25,-1,25,23,31,-1,32,33,34,-1,34,33,35,-1,33,36,35,-1,35,36,37,-1,36,38,37,-1,37,38,39,-1,40,41,42,-1,40,42,43,-1,43,42,44,-1,43,44,45,-1,45,44,46,-1,45,46,47,-1,47,46,48,-1,47,48,49,-1,49,48,50,-1,49,50,51,-1,51,50,52,-1,51,52,53,-1,53,52,54,-1,53,54,55,-1,55,54,39,-1,55,39,38,-1,32,34,56,-1,32,56,57,-1,57,56,58,-1,57,58,59,-1,59,58,60,-1,59,60,61,-1,61,60,62,-1,61,62,63,-1,63,62,64,-1,63,64,65,-1,65,64,66,-1,65,66,67,-1,67,66,41,-1,67,41,40,-1,45,47,68,-1,68,47,49,-1,68,49,69,-1,69,49,51,-1,69,51,70,-1,70,51,53,-1,70,53,71,-1,71,53,55,-1,71,55,72,-1,72,55,38,-1,72,38,73,-1,73,38,36,-1,73,36,74,-1,74,36,33,-1,74,33,75,-1,75,33,32,-1,75,32,76,-1,76,32,57,-1,76,57,77,-1,77,57,59,-1,77,59,78,-1,78,59,61,-1,78,61,79,-1,79,61,63,-1,79,63,80,-1,80,63,65,-1,80,65,81,-1,81,65,67,-1,81,67,82,-1,82,67,40,-1,82,40,83,-1,83,40,43,-1,83,43,84,-1,84,43,45,-1,84,45,68,-1,72,73,85,-1,85,73,86,-1,72,85,87,-1,72,87,71,-1,71,87,88,-1,71,88,70,-1,70,88,89,-1,70,89,69,-1,69,89,90,-1,69,90,68,-1,68,90,91,-1,68,91,84,-1,84,91,92,-1,84,92,83,-1,83,92,93,-1,83,93,82,-1,82,93,94,-1,82,94,81,-1,81,94,95,-1,81,95,80,-1,80,95,96,-1,80,96,79,-1,79,96,97,-1,79,97,78,-1,78,97,98,-1,78,98,77,-1,77,98,99,-1,77,99,76,-1,76,99,100,-1,76,100,75,-1,74,75,101,-1,101,75,100,-1,73,74,86,-1,86,74,101,-1,102,103,104,-1,104,103,105,-1,103,106,105,-1,105,106,107,-1,106,108,107,-1,107,108,109,-1,108,110,109,-1,109,110,111,-1,110,112,111,-1,111,112,113,-1,112,114,113,-1,113,114,115,-1,114,116,115,-1,115,116,117,-1,116,118,117,-1,117,118,119,-1,118,120,119,-1,119,120,121,-1,120,122,121,-1,121,122,123,-1,122,124,123,-1,123,124,125,-1,124,102,125,-1,125,102,104,-1,106,103,102,-1,102,124,106,-1,106,124,122,-1,106,122,108,-1,112,110,114,-1,114,110,108,-1,114,108,116,-1,116,108,122,-1,116,122,118,-1,118,122,120,-1,126,127,128,-1,128,127,129,-1,129,127,130,-1,131,132,133,-1,131,133,134,-1,134,133,135,-1,134,135,130,-1,130,135,136,-1,130,136,129,-1,132,131,137,-1,137,131,138,-1,137,138,139,-1,139,138,140,-1,139,140,141,-1,141,140,142,-1,141,142,143,-1,143,142,144,-1,143,144,145,-1,145,144,146,-1,145,146,147,-1,147,146,148,-1,147,148,149,-1,149,148,150,-1,149,150,151,-1,152,153,154,-1,152,154,155,-1,155,154,156,-1,155,156,157,-1,157,156,158,-1,157,158,159,-1,159,158,160,-1,159,160,161,-1,161,160,162,-1,161,162,163,-1,163,162,164,-1,163,164,165,-1,165,164,151,-1,165,151,150,-1,166,167,168,-1,166,168,169,-1,169,168,153,-1,169,153,152,-1,166,170,167,-1,167,170,171,-1,172,173,174,-1,172,174,175,-1,175,174,171,-1,175,171,170,-1,176,177,178,-1,176,178,179,-1,179,178,180,-1,179,180,181,-1,181,180,182,-1,181,182,183,-1,183,182,184,-1,183,184,185,-1,185,184,186,-1,185,186,187,-1,187,186,188,-1,187,188,189,-1,189,188,173,-1,189,173,172,-1,190,191,192,-1,190,192,193,-1,193,192,194,-1,193,194,195,-1,195,194,196,-1,195,196,197,-1,197,196,198,-1,197,198,199,-1,199,198,200,-1,199,200,201,-1,201,200,202,-1,201,202,203,-1,203,202,177,-1,203,177,176,-1,126,128,204,-1,126,204,205,-1,205,204,206,-1,205,206,207,-1,207,206,191,-1,207,191,190,-1,193,131,190,-1,190,131,134,-1,190,134,207,-1,207,134,130,-1,207,130,205,-1,205,130,127,-1,205,127,126,-1,170,166,175,-1,175,166,169,-1,175,169,172,-1,172,169,152,-1,172,152,189,-1,189,152,155,-1,189,155,187,-1,187,155,157,-1,187,157,185,-1,185,157,159,-1,185,159,183,-1,183,159,161,-1,183,161,181,-1,181,161,163,-1,181,163,179,-1,179,163,165,-1,179,165,176,-1,176,165,150,-1,176,150,203,-1,203,150,148,-1,203,148,201,-1,201,148,146,-1,201,146,199,-1,199,146,144,-1,199,144,197,-1,197,144,142,-1,197,142,195,-1,195,142,140,-1,195,140,193,-1,193,140,138,-1,193,138,131,-1,208,209,210,-1,210,209,211,-1,209,212,211,-1,211,212,213,-1,212,214,213,-1,213,214,215,-1,214,216,215,-1,215,216,217,-1,216,218,217,-1,217,218,219,-1,218,208,219,-1,219,208,210,-1,216,214,218,-1,218,214,212,-1,218,212,208,-1,208,212,209,-1,
        ]
    }
}
Shape{
    appearance Appearance {
        material  Material 	{
            diffuseColor 0.25098039215686274 0.25098039215686274 0.25098039215686274
            specularColor 0.12549019607843137 0.12549019607843137 0.12549019607843137
            ambientIntensity 0.251
            transparency 0.0
            shininess 0.5
        }
    }
    geometry IndexedFaceSet {
        ccw TRUE
        solid FALSE
        coord DEF co Coordinate {
            point [
                -0.0457 0.1843 0.0, -0.0589 0.1843 0.0, -0.0516 0.2008 0.0, -0.0529 0.2008 0.0, -0.0519 0.2021 0.0, -0.0526 0.2021 0.0, -0.0522 0.2035 0.0, -0.0523 0.2035 0.0, -0.0056 0.204 0.0, -0.0056 0.1733 0.0, -0.0114 0.204 0.0, -0.0111 0.1733 0.0, -0.0153 0.1737 0.0, -0.0267 0.189 0.0, -0.0263 0.193 0.0, -0.0254 0.1961 0.0, -0.016 0.2035 0.0, -0.0186 0.1747 0.0, -0.0213 0.1763 0.0, -0.0235 0.1785 0.0, -0.0252 0.1812 0.0, -0.0263 0.1849 0.0, -0.0241 0.1985 0.0, -0.0221 0.2005 0.0, -0.0193 0.2024 0.0
            ]
        }
        coordIndex [
            0,1,2,-1,2,1,3,-1,2,3,4,-1,4,3,5,-1,4,5,6,-1,6,5,7,-1,8,9,10,-1,10,9,11,-1,10,11,12,-1,13,14,10,-1,10,14,15,-1,10,15,16,-1,12,17,10,-1,10,17,18,-1,10,18,19,-1,19,20,10,-1,10,20,21,-1,10,21,13,-1,22,23,15,-1,15,23,24,-1,15,24,16,-1,
        ]
    }
}